{"glyphs":{"0":{"ha":846,"x_min":47,"x_max":797,"o":"m 424 989 q 628 922 544 989 q 755 742 713 856 q 797 486 797 628 q 755 231 797 346 q 628 50 713 117 q 424 -17 543 -17 q 218 50 303 -17 q 90 231 133 117 q 47 486 47 346 q 90 742 47 628 q 218 922 133 856 q 424 989 303 989 m 401 939 q 306 893 347 939 q 242 763 264 847 q 219 565 219 679 q 243 315 219 438 q 317 113 267 193 q 444 33 368 33 q 540 79 499 33 q 605 210 582 125 q 628 408 628 294 q 603 658 628 536 q 527 859 578 779 q 401 939 476 939 z "},"1":{"ha":511,"x_min":36,"x_max":472,"o":"m 472 19 l 472 0 l 36 0 l 36 19 l 144 49 q 179 94 179 57 l 179 839 q 113 800 151 814 q 36 783 75 786 l 36 833 q 162 882 97 839 q 296 989 226 925 l 343 989 l 343 94 q 378 49 343 57 l 472 19 z "},"2":{"ha":779,"x_min":33,"x_max":742,"o":"m 697 0 l 33 0 l 33 21 l 267 275 q 462 513 404 426 q 519 682 519 599 q 469 826 519 772 q 328 879 418 879 q 104 740 186 879 l 81 747 q 137 861 96 806 q 244 953 178 917 q 397 989 311 989 q 548 954 481 989 q 654 856 615 919 q 693 708 693 792 q 656 572 693 636 q 561 451 618 507 q 400 310 504 396 q 219 153 274 204 l 599 153 q 650 174 635 153 l 721 276 l 742 276 l 697 0 z "},"3":{"ha":753,"x_min":32,"x_max":710,"o":"m 356 547 q 439 560 397 560 q 573 525 511 560 q 672 427 635 490 q 710 283 710 364 q 667 134 710 203 q 545 24 625 65 q 357 -17 465 -17 q 146 47 238 -17 q 32 247 54 111 l 190 247 q 215 137 190 186 q 282 60 240 88 q 374 32 324 32 q 497 94 451 32 q 542 258 542 157 q 490 422 542 361 q 361 483 439 483 q 272 463 318 483 l 250 490 q 254 493 253 493 l 510 819 l 193 819 q 143 793 160 819 l 92 713 l 71 713 l 111 972 l 696 972 l 696 951 l 356 547 z "},"4":{"ha":796,"x_min":10,"x_max":757,"o":"m 604 94 q 639 49 604 57 l 726 19 l 726 0 l 290 0 l 290 19 l 407 49 q 432 64 424 51 q 440 94 440 76 l 440 278 l 10 278 l 10 318 l 483 989 l 604 989 l 604 325 l 757 325 l 757 278 l 604 278 l 604 94 m 440 325 l 440 833 l 82 325 l 440 325 z "},"5":{"ha":743,"x_min":14,"x_max":694,"o":"m 382 621 q 542 583 471 621 q 653 478 613 546 q 694 324 694 410 q 601 75 694 167 q 343 -17 508 -17 q 124 49 215 -17 q 14 247 33 115 l 172 247 q 198 140 174 189 q 265 61 222 90 q 361 32 307 32 q 490 99 442 32 q 538 278 538 165 q 478 453 538 386 q 324 521 418 521 q 132 446 232 521 l 90 467 l 160 972 l 571 972 q 599 978 588 972 q 619 1000 610 985 l 664 1071 l 685 1071 l 647 819 l 188 819 l 144 518 q 251 592 185 564 q 382 621 317 621 z "},"6":{"ha":804,"x_min":40,"x_max":751,"o":"m 463 622 q 612 583 546 622 q 715 473 678 543 q 751 314 751 403 q 709 144 751 219 q 591 26 667 69 q 417 -17 515 -17 q 206 51 290 -17 q 81 229 121 118 q 40 474 40 340 q 95 753 40 638 q 243 929 150 869 q 449 989 336 989 q 632 939 550 989 q 750 769 714 889 l 588 769 q 526 893 574 847 q 418 939 479 939 q 262 825 317 939 q 207 492 207 711 l 207 490 q 317 583 251 544 q 463 622 382 622 m 432 32 q 550 94 510 32 q 590 265 590 157 q 537 453 590 381 q 386 525 483 525 q 288 506 335 525 q 208 451 242 486 q 239 247 213 343 q 315 92 265 151 q 432 32 364 32 z "},"7":{"ha":718,"x_min":36,"x_max":689,"o":"m 689 953 q 508 648 582 792 q 388 341 433 504 q 343 0 343 178 l 176 0 q 228 317 176 172 q 357 574 279 461 q 550 819 435 688 l 157 819 q 107 793 124 819 l 57 713 l 36 713 l 76 972 l 689 972 l 689 953 z "},"8":{"ha":756,"x_min":46,"x_max":708,"o":"m 376 989 q 592 924 513 989 q 672 754 672 858 q 613 617 672 679 q 464 529 554 556 q 643 412 578 482 q 708 257 708 342 q 673 119 708 182 q 563 20 638 57 q 376 -17 488 -17 q 203 17 279 -17 q 87 110 128 50 q 46 246 46 169 q 99 392 46 333 q 260 492 153 451 q 128 592 174 533 q 83 733 83 650 q 117 863 83 804 q 216 955 150 921 q 376 989 282 989 m 379 942 q 269 894 310 942 q 229 778 229 847 q 245 689 229 722 q 303 625 261 656 q 433 547 344 594 q 531 765 531 615 q 492 894 531 846 q 379 942 453 942 m 297 474 q 221 374 244 436 q 197 236 197 311 q 246 85 197 142 q 378 29 294 29 q 515 79 467 29 q 564 218 564 129 q 541 311 564 275 q 467 380 518 347 q 297 474 415 413 z "},"9":{"ha":800,"x_min":49,"x_max":760,"o":"m 383 985 q 594 917 510 985 q 719 739 679 850 q 760 494 760 628 q 705 215 760 331 q 557 39 650 99 q 351 -21 464 -21 q 168 29 250 -21 q 50 199 86 79 l 213 199 q 274 75 226 121 q 382 29 321 29 q 538 143 483 29 q 593 476 593 257 l 593 478 q 483 385 549 424 q 338 346 418 346 q 188 385 254 346 q 85 495 122 425 q 49 654 49 565 q 91 824 49 749 q 209 942 133 899 q 383 985 285 985 m 414 443 q 512 463 465 443 q 592 517 558 482 q 561 721 588 625 q 485 876 535 817 q 368 936 436 936 q 250 874 290 936 q 210 703 210 811 q 263 515 210 588 q 414 443 317 443 z "},"\r":{"ha":833,"x_min":0,"x_max":0,"o":""}," ":{"ha":300,"x_min":0,"x_max":0,"o":""},"!":{"ha":431,"x_min":115,"x_max":315,"o":"m 233 285 l 197 285 l 118 972 l 313 972 l 233 285 m 215 -19 q 144 9 174 -19 q 115 81 115 38 q 144 150 115 121 q 215 179 174 179 q 288 151 260 179 q 315 81 315 122 q 286 9 315 38 q 215 -19 257 -19 z "},"\"":{"ha":504,"x_min":78,"x_max":425,"o":"m 78 928 l 217 928 l 178 574 l 114 574 l 78 928 m 286 928 l 425 928 l 386 574 l 322 574 l 286 928 z "},"#":{"ha":850,"x_min":39,"x_max":810,"o":"m 629 622 l 556 361 l 754 361 l 754 310 l 542 310 l 440 -51 l 382 -51 l 483 310 l 240 310 l 139 -51 l 81 -51 l 182 310 l 39 310 l 39 361 l 196 361 l 269 622 l 94 622 l 94 674 l 285 674 l 379 1011 l 438 1011 l 343 674 l 586 674 l 681 1011 l 739 1011 l 644 674 l 810 674 l 810 622 l 629 622 m 571 622 l 328 622 l 254 361 l 497 361 l 571 622 z "},"$":{"ha":733,"x_min":47,"x_max":693,"o":"m 693 274 q 611 76 693 154 q 397 -14 529 -1 l 397 -171 l 351 -171 l 351 -17 l 349 -17 q 49 56 175 -17 l 49 258 l 69 258 q 135 135 90 188 q 238 57 181 83 q 351 29 294 31 l 351 435 q 318 449 340 440 q 118 567 189 499 q 47 740 47 635 q 83 865 47 810 q 188 953 119 921 q 351 989 257 986 l 351 1129 l 397 1129 l 397 989 q 629 921 528 983 l 629 746 l 608 746 q 526 884 582 832 q 397 944 471 936 l 397 590 l 404 588 q 623 458 553 533 q 693 274 693 383 m 189 794 q 228 688 189 731 q 351 608 268 644 l 351 946 q 233 897 276 940 q 189 794 189 854 m 397 33 q 502 94 465 46 q 539 208 539 142 q 503 328 539 279 q 397 414 468 376 l 397 33 z "},"%":{"ha":936,"x_min":39,"x_max":897,"o":"m 189 0 l 725 972 l 779 972 l 243 0 l 189 0 m 228 508 q 131 537 175 508 q 63 615 88 565 q 39 728 39 665 q 63 840 39 789 q 131 919 88 890 q 228 947 175 947 q 324 919 281 947 q 391 840 367 890 q 415 728 415 789 q 391 615 415 665 q 324 537 367 565 q 228 508 281 508 m 233 551 q 288 594 267 551 q 308 710 308 636 q 284 853 308 800 q 221 906 260 906 q 166 863 188 906 q 144 746 144 819 q 170 603 144 656 q 233 551 196 551 m 710 -19 q 613 9 657 -19 q 545 88 569 38 q 521 201 521 139 q 545 313 521 263 q 613 391 569 363 q 710 419 657 419 q 806 391 763 419 q 873 313 849 363 q 897 201 897 263 q 873 88 897 139 q 806 9 849 38 q 710 -19 763 -19 m 717 24 q 771 67 750 24 q 792 189 792 111 q 767 326 792 275 q 704 378 742 378 q 648 335 669 378 q 626 219 626 293 q 652 76 626 129 q 717 24 678 24 z "},"&":{"ha":1007,"x_min":40,"x_max":983,"o":"m 983 19 l 983 0 l 736 0 l 668 76 q 386 -17 543 -17 q 212 15 290 -17 q 87 106 133 46 q 40 250 40 167 q 99 409 40 342 q 271 517 158 476 q 185 631 217 576 q 153 757 153 686 q 186 875 153 822 q 281 958 219 928 q 428 988 343 988 q 616 933 551 988 q 681 792 681 879 q 644 664 681 729 l 499 664 q 530 733 517 694 q 543 808 543 772 q 510 909 543 871 q 418 947 478 947 q 330 913 365 947 q 294 815 294 878 q 328 697 294 757 q 435 558 361 638 l 706 268 q 726 461 726 351 q 725 519 726 500 l 886 519 q 778 190 874 328 l 906 53 q 947 28 922 35 l 983 19 m 425 31 q 631 117 556 31 l 299 486 q 232 396 256 453 q 208 269 208 339 q 267 99 208 167 q 425 31 325 31 z "},"'":{"ha":296,"x_min":78,"x_max":217,"o":"m 78 928 l 217 928 l 178 574 l 114 574 l 78 928 z "},"(":{"ha":467,"x_min":44,"x_max":446,"o":"m 446 1040 q 272 765 339 936 q 206 383 206 593 q 274 5 206 178 q 446 -276 342 -168 l 421 -294 q 231 -129 315 -231 q 95 103 146 -28 q 44 382 44 235 q 96 660 44 528 q 233 896 147 793 q 421 1058 318 999 l 446 1040 z "},")":{"ha":467,"x_min":21,"x_max":422,"o":"m 46 1058 q 233 896 147 999 q 371 660 319 793 q 422 382 422 526 q 372 103 422 235 q 236 -129 321 -28 q 46 -294 151 -231 l 21 -276 q 193 5 125 -168 q 261 383 261 178 q 194 763 261 592 q 21 1040 128 935 l 46 1058 z "},"*":{"ha":647,"x_min":81,"x_max":568,"o":"m 113 879 l 303 782 l 269 993 l 378 993 l 343 783 l 536 879 l 568 786 l 360 746 l 515 596 l 436 531 l 324 721 l 214 531 l 135 589 l 289 746 l 81 786 l 113 879 z "},"+":{"ha":738,"x_min":69,"x_max":668,"o":"m 668 438 l 392 438 l 392 160 l 347 160 l 347 438 l 69 438 l 69 482 l 347 482 l 347 760 l 392 760 l 392 482 l 668 482 l 668 438 z "},",":{"ha":374,"x_min":81,"x_max":293,"o":"m 182 179 q 263 144 232 179 q 293 51 293 108 q 233 -117 293 -50 q 81 -194 174 -185 l 81 -164 q 173 -112 133 -154 q 214 -12 213 -69 q 182 -17 197 -17 q 110 11 139 -17 q 81 78 81 39 q 110 150 81 121 q 182 179 139 179 z "},"-":{"ha":426,"x_min":39,"x_max":386,"o":"m 386 371 l 39 371 l 39 433 l 386 433 l 386 371 z "},".":{"ha":360,"x_min":81,"x_max":279,"o":"m 179 -19 q 109 9 138 -19 q 81 81 81 38 q 109 150 81 121 q 179 179 138 179 q 251 151 224 179 q 279 81 279 122 q 250 9 279 38 q 179 -19 221 -19 z "},"/":{"ha":532,"x_min":57,"x_max":474,"o":"m 424 972 l 474 972 l 107 0 l 57 0 l 424 972 z "},":":{"ha":360,"x_min":81,"x_max":279,"o":"m 179 522 q 109 551 138 522 q 81 622 81 579 q 109 692 81 663 q 179 721 138 721 q 251 692 224 721 q 279 622 279 664 q 250 551 279 579 q 179 522 221 522 m 179 -19 q 109 9 138 -19 q 81 81 81 38 q 109 150 81 121 q 179 179 138 179 q 251 151 224 179 q 279 81 279 122 q 250 9 279 38 q 179 -19 221 -19 z "},";":{"ha":374,"x_min":81,"x_max":293,"o":"m 182 179 q 263 144 232 179 q 293 51 293 108 q 233 -117 293 -50 q 81 -194 174 -185 l 81 -164 q 173 -112 133 -154 q 214 -12 213 -69 q 182 -17 197 -17 q 110 11 139 -17 q 81 78 81 39 q 110 150 81 121 q 182 179 139 179 m 179 406 q 109 434 138 406 q 81 506 81 463 q 109 575 81 546 q 179 604 138 604 q 251 576 224 604 q 279 506 279 547 q 250 434 279 463 q 179 406 221 406 z "},"<":{"ha":690,"x_min":69,"x_max":621,"o":"m 621 193 l 601 149 l 69 421 l 69 472 l 601 744 l 621 701 l 115 447 l 621 193 z "},"=":{"ha":738,"x_min":69,"x_max":668,"o":"m 69 599 l 668 599 l 668 554 l 69 554 l 69 599 m 69 374 l 668 374 l 668 329 l 69 329 l 69 374 z "},">":{"ha":690,"x_min":69,"x_max":621,"o":"m 69 701 l 89 744 l 621 472 l 621 421 l 89 149 l 69 193 l 575 447 l 69 701 z "},"?":{"ha":721,"x_min":56,"x_max":640,"o":"m 314 285 q 279 431 279 365 q 307 531 279 492 q 390 618 335 569 q 467 695 440 661 q 499 779 493 729 q 500 808 500 789 q 463 910 500 874 q 368 946 426 946 q 256 886 296 946 q 218 729 217 826 l 56 729 q 152 924 68 861 q 365 988 236 988 q 508 958 446 988 q 606 876 571 929 q 640 754 640 822 q 619 653 640 696 q 566 581 597 610 q 483 517 535 553 q 411 462 438 485 q 367 406 385 439 q 349 331 349 374 q 353 285 349 310 l 314 285 m 342 -19 q 271 9 300 -19 q 242 81 242 38 q 271 150 242 121 q 342 179 300 179 q 414 151 386 179 q 442 81 442 122 q 413 9 442 38 q 342 -19 383 -19 z "},"@":{"ha":1258,"x_min":47,"x_max":1211,"o":"m 875 90 q 744 128 793 90 q 696 233 696 167 q 703 283 696 253 q 606 135 658 178 q 489 92 554 92 q 367 149 414 92 q 319 293 319 206 q 372 508 319 411 q 510 659 425 604 q 688 714 596 714 q 822 631 788 714 l 886 694 l 943 694 l 832 306 q 819 228 819 263 q 838 165 819 188 q 893 143 857 143 q 994 185 949 143 q 1065 306 1039 228 q 1090 483 1090 383 q 1040 700 1090 604 q 895 851 990 796 q 669 906 800 906 q 412 829 526 906 q 233 621 297 753 q 168 329 168 489 q 230 82 168 192 q 401 -90 292 -28 q 651 -153 511 -153 q 846 -129 760 -153 q 1021 -51 932 -106 l 1040 -79 q 865 -170 972 -136 q 638 -204 757 -204 q 333 -137 468 -204 q 123 53 199 -69 q 47 331 47 175 q 128 644 47 503 q 352 866 210 785 q 669 947 494 947 q 950 888 826 947 q 1142 723 1074 829 q 1211 483 1211 617 q 1163 277 1211 367 q 1038 139 1115 188 q 875 90 960 90 m 758 503 q 774 581 774 549 q 751 646 774 622 q 685 669 729 669 q 581 621 633 669 q 492 489 528 572 q 454 307 457 406 q 474 214 453 246 q 531 182 494 182 q 610 215 567 182 q 688 308 653 249 l 758 503 z "},"A":{"ha":1036,"x_min":24,"x_max":1013,"o":"m 1013 19 l 1013 0 l 607 0 l 607 19 l 710 50 q 739 83 739 58 q 735 103 739 93 l 657 306 l 276 306 l 199 103 q 194 85 194 93 q 225 50 194 58 l 332 19 l 332 0 l 24 0 l 24 19 l 97 49 q 135 90 124 60 l 483 981 l 565 981 l 913 90 q 949 47 922 60 l 1013 19 m 638 353 l 467 796 l 296 353 l 638 353 z "},"B":{"ha":892,"x_min":40,"x_max":853,"o":"m 451 972 q 703 915 617 972 q 790 746 790 858 q 732 611 790 664 q 576 544 674 558 q 780 454 707 529 q 853 265 853 379 q 760 73 853 146 q 500 0 668 0 l 40 0 l 40 19 l 139 56 q 171 104 171 68 l 171 869 q 138 917 171 904 l 40 953 l 40 972 l 451 972 m 335 925 l 335 556 l 431 556 q 574 605 525 556 q 622 746 622 654 q 568 876 622 826 q 413 925 514 925 l 335 925 m 335 508 l 335 106 q 352 63 335 79 q 403 47 369 47 l 485 47 q 632 104 582 47 q 682 265 682 161 q 658 382 682 326 q 583 473 633 438 q 457 508 532 508 l 335 508 z "},"C":{"ha":922,"x_min":44,"x_max":874,"o":"m 44 482 q 110 740 44 624 q 290 922 175 856 q 544 989 404 989 q 712 971 629 989 q 846 922 794 953 l 846 729 l 825 729 q 717 884 797 825 q 531 943 636 943 q 299 831 379 943 q 218 522 218 719 q 259 292 218 392 q 374 137 300 192 q 544 82 449 82 q 735 132 657 82 q 853 260 814 182 l 874 249 q 744 63 832 142 q 503 -17 657 -17 q 264 49 368 -17 q 102 228 160 114 q 44 482 44 342 z "},"D":{"ha":1001,"x_min":40,"x_max":963,"o":"m 450 972 q 739 911 624 972 q 908 747 854 850 q 963 519 963 644 q 894 242 963 360 q 713 62 826 124 q 471 0 600 0 l 40 0 l 40 19 l 131 54 q 163 103 163 67 l 163 869 q 131 917 163 904 l 40 953 l 40 972 l 450 972 m 471 47 q 704 163 621 47 q 788 486 788 278 q 746 701 788 600 q 622 863 704 801 q 426 925 540 925 l 325 925 l 325 136 q 358 68 325 89 q 471 47 390 47 z "},"E":{"ha":863,"x_min":40,"x_max":831,"o":"m 831 232 l 788 0 l 40 0 l 40 19 l 128 49 q 163 94 163 57 l 163 878 q 128 924 163 915 l 40 953 l 40 972 l 765 972 l 808 740 l 788 740 l 679 894 q 658 917 668 910 q 632 925 647 925 l 326 925 l 326 556 l 515 556 q 563 589 549 556 l 606 693 l 626 693 l 626 371 l 606 371 l 563 475 q 515 508 549 508 l 326 508 l 326 94 q 340 60 326 72 q 376 47 353 47 l 654 47 q 680 55 669 47 q 703 78 690 63 l 810 232 l 831 232 z "},"F":{"ha":810,"x_min":40,"x_max":788,"o":"m 788 740 l 767 740 l 658 894 q 637 917 647 910 q 610 925 626 925 l 326 925 l 326 556 l 494 556 q 542 589 528 556 l 585 693 l 606 693 l 606 371 l 585 371 l 542 475 q 494 508 528 508 l 326 508 l 326 94 q 335 64 326 76 q 360 49 343 51 l 476 19 l 476 0 l 40 0 l 40 19 l 128 49 q 163 94 163 57 l 163 878 q 128 924 163 915 l 40 953 l 40 972 l 744 972 l 788 740 z "},"G":{"ha":1014,"x_min":44,"x_max":988,"o":"m 819 729 q 707 885 785 828 q 532 943 629 943 q 371 899 442 943 q 259 765 300 856 q 218 543 218 675 q 261 294 218 410 q 381 108 304 178 q 554 38 458 38 q 693 78 643 38 q 743 178 743 118 l 743 403 q 713 451 743 442 l 613 478 l 613 499 l 988 499 l 988 478 l 921 451 q 889 403 889 438 l 889 226 q 900 196 889 207 q 931 185 911 185 l 972 185 l 972 164 q 738 29 847 72 q 507 -14 628 -14 q 267 49 372 -14 q 103 220 161 111 q 44 465 44 329 q 109 737 44 618 q 286 922 174 856 q 540 989 399 989 q 701 972 622 989 q 840 922 781 954 l 840 729 l 819 729 z "},"H":{"ha":1099,"x_min":40,"x_max":1060,"o":"m 971 924 q 938 878 938 915 l 938 94 q 971 49 938 57 l 1060 19 l 1060 0 l 651 0 l 651 19 l 739 49 q 774 94 774 57 l 774 468 l 326 468 l 326 94 q 360 49 326 57 l 449 19 l 449 0 l 40 0 l 40 19 l 128 49 q 163 94 163 57 l 163 878 q 128 924 163 915 l 40 953 l 40 972 l 449 972 l 449 953 l 360 924 q 326 878 326 915 l 326 515 l 774 515 l 774 878 q 739 924 774 915 l 651 953 l 651 972 l 1060 972 l 1060 953 l 971 924 z "},"I":{"ha":489,"x_min":40,"x_max":449,"o":"m 40 19 l 128 49 q 163 94 163 57 l 163 878 q 128 924 163 915 l 40 953 l 40 972 l 449 972 l 449 953 l 360 924 q 326 878 326 915 l 326 94 q 360 49 326 57 l 449 19 l 449 0 l 40 0 l 40 19 z "},"J":{"ha":788,"x_min":24,"x_max":747,"o":"m 747 972 l 747 953 l 660 924 q 625 878 625 915 l 625 274 q 546 57 625 131 q 322 -17 467 -17 q 116 43 196 -17 q 24 226 36 103 l 199 226 q 240 84 201 142 q 333 26 279 26 q 461 229 461 26 l 461 878 q 428 924 461 915 l 339 953 l 339 972 l 747 972 z "},"K":{"ha":1040,"x_min":40,"x_max":1019,"o":"m 1019 19 l 1019 0 l 607 0 l 607 21 l 665 39 q 693 68 693 47 q 685 92 693 79 l 425 443 q 375 468 408 468 l 326 468 l 326 94 q 360 49 326 57 l 449 19 l 449 0 l 40 0 l 40 19 l 128 49 q 163 94 163 57 l 163 878 q 128 924 163 915 l 40 953 l 40 972 l 449 972 l 449 953 l 360 924 q 326 878 326 915 l 326 515 l 364 515 q 414 539 393 515 l 726 889 q 736 908 736 899 q 726 925 736 918 q 701 935 717 932 l 626 953 l 626 972 l 947 972 l 947 953 l 847 925 q 801 900 821 919 l 519 592 l 893 79 q 936 44 913 51 l 1019 19 z "},"L":{"ha":833,"x_min":40,"x_max":801,"o":"m 801 232 l 758 0 l 40 0 l 40 19 l 128 49 q 163 94 163 57 l 163 878 q 128 924 163 915 l 40 953 l 40 972 l 449 972 l 449 953 l 360 924 q 326 878 326 915 l 326 94 q 340 60 326 72 q 376 47 353 47 l 625 47 q 651 55 640 47 q 672 78 661 63 l 781 232 l 801 232 z "},"M":{"ha":1382,"x_min":18,"x_max":1357,"o":"m 18 19 l 110 49 q 146 93 142 57 l 250 871 q 218 918 254 907 l 126 953 l 126 972 l 407 972 l 689 336 l 985 972 l 1256 972 l 1256 953 l 1164 919 q 1132 871 1128 906 l 1229 93 q 1265 49 1233 58 l 1357 19 l 1357 0 l 950 0 l 950 19 l 1033 47 q 1065 96 1071 61 l 972 811 l 663 142 l 603 142 l 300 811 l 204 96 q 236 47 199 58 l 338 19 l 338 0 l 18 0 l 18 19 z "},"N":{"ha":1007,"x_min":40,"x_max":967,"o":"m 967 972 l 967 953 l 885 924 q 850 876 850 911 l 850 0 l 794 0 l 222 797 l 222 103 q 257 54 222 67 l 365 19 l 365 0 l 51 0 l 51 19 l 136 53 q 168 101 168 65 l 168 871 q 71 940 126 919 l 40 953 l 40 972 l 301 972 l 797 269 l 797 876 q 763 922 797 913 l 653 953 l 653 972 l 967 972 z "},"O":{"ha":1001,"x_min":47,"x_max":953,"o":"m 506 989 q 747 924 646 989 q 901 748 849 858 q 953 507 953 638 q 892 233 953 353 q 728 49 832 114 q 499 -17 625 -17 q 255 49 357 -17 q 100 225 153 115 q 47 465 47 335 q 108 739 47 619 q 273 924 168 858 q 506 989 378 989 m 479 939 q 285 825 354 939 q 217 528 217 711 q 218 469 217 489 q 264 256 226 356 q 367 96 301 157 q 524 35 433 35 q 717 147 649 35 q 785 438 785 258 q 782 503 785 458 q 738 717 774 618 q 635 878 701 817 q 479 939 569 939 z "},"P":{"ha":828,"x_min":40,"x_max":803,"o":"m 326 444 l 326 94 q 335 64 326 76 q 360 49 343 51 l 488 19 l 488 0 l 40 0 l 40 19 l 128 49 q 163 94 163 57 l 163 878 q 128 924 163 915 l 40 953 l 40 972 l 453 972 q 713 910 622 972 q 803 711 803 849 q 710 512 803 579 q 453 444 618 444 l 326 444 m 326 925 l 326 492 l 418 492 q 576 551 522 492 q 631 711 631 610 q 578 870 631 815 q 418 925 525 925 l 326 925 z "},"Q":{"ha":1001,"x_min":47,"x_max":1015,"o":"m 1015 -44 q 831 -131 915 -131 q 722 -96 772 -131 q 618 0 672 -61 q 499 -17 563 -17 q 255 49 357 -17 q 100 225 153 115 q 47 465 47 335 q 108 739 47 619 q 273 924 168 858 q 506 989 378 989 q 747 924 646 989 q 901 748 849 858 q 953 507 953 638 q 894 235 953 354 q 733 51 835 117 q 823 -26 781 1 q 911 -53 865 -53 q 1004 -24 957 -53 l 1015 -44 m 479 939 q 285 825 354 939 q 217 528 217 711 q 218 469 217 489 q 283 211 226 324 q 433 272 363 272 q 554 230 499 272 q 685 104 610 188 q 759 242 733 157 q 785 435 785 328 q 782 503 785 456 q 738 717 774 618 q 635 878 701 817 q 479 939 569 939 m 542 35 q 582 42 569 38 q 466 166 513 126 q 365 206 419 206 q 296 186 331 206 q 401 70 339 111 q 542 35 463 29 z "},"R":{"ha":992,"x_min":40,"x_max":974,"o":"m 858 86 q 903 37 874 53 q 974 19 933 21 l 974 0 l 717 0 l 529 358 q 460 433 504 408 q 367 458 417 458 l 326 458 l 326 94 q 360 49 326 57 l 472 19 l 472 0 l 40 0 l 40 19 l 128 49 q 163 94 163 57 l 163 878 q 128 924 163 915 l 40 953 l 40 972 l 446 972 q 706 913 615 972 q 796 718 796 853 q 722 537 796 601 q 511 461 647 472 q 633 442 579 461 q 714 364 686 424 l 858 86 m 411 506 q 569 563 515 506 q 624 718 624 619 q 571 872 624 818 q 411 925 518 925 l 326 925 l 326 506 l 411 506 z "},"S":{"ha":733,"x_min":47,"x_max":693,"o":"m 69 258 q 136 134 90 186 q 240 56 182 82 q 354 29 297 29 q 491 80 443 29 q 539 208 539 131 q 484 351 539 297 q 318 449 429 406 q 118 567 189 499 q 47 740 47 635 q 85 868 47 811 q 195 957 122 925 q 368 989 268 989 q 629 921 518 989 l 629 746 l 608 746 q 517 893 581 840 q 371 946 454 946 q 238 902 288 946 q 189 794 189 858 q 240 675 189 721 q 404 588 292 629 q 623 458 553 533 q 693 274 693 383 q 649 120 693 186 q 526 19 604 54 q 349 -17 447 -17 q 49 56 175 -17 l 49 258 l 69 258 z "},"T":{"ha":954,"x_min":28,"x_max":926,"o":"m 272 19 l 361 49 q 394 94 394 60 l 394 925 l 204 925 q 178 917 189 925 q 157 894 168 910 l 49 740 l 28 740 l 71 972 l 883 972 l 926 740 l 906 740 l 797 894 q 776 917 786 910 q 749 925 765 925 l 558 925 l 558 94 q 593 49 558 60 l 681 19 l 681 0 l 272 0 l 272 19 z "},"U":{"ha":1044,"x_min":40,"x_max":1006,"o":"m 1006 972 l 1006 953 l 913 924 q 879 876 879 914 l 879 349 q 792 78 879 174 q 544 -18 706 -18 q 260 74 358 -18 q 163 340 163 167 l 163 878 q 128 924 163 915 l 40 953 l 40 972 l 449 972 l 449 953 l 360 924 q 331 876 331 917 l 331 344 q 393 126 331 206 q 578 47 456 47 q 760 124 694 47 q 825 350 825 201 l 825 876 q 796 921 825 910 l 694 953 l 694 972 l 1006 972 z "},"V":{"ha":1024,"x_min":18,"x_max":1006,"o":"m 118 882 q 82 925 106 914 l 18 953 l 18 972 l 422 972 l 422 953 l 319 922 q 290 888 290 914 q 294 869 290 881 l 564 176 l 831 869 q 835 888 835 881 q 804 922 835 914 l 697 953 l 697 972 l 1006 972 l 1006 953 l 932 924 q 894 882 907 913 l 546 -8 l 465 -8 l 118 882 z "},"W":{"ha":1413,"x_min":18,"x_max":1396,"o":"m 1026 197 l 1233 867 q 1236 882 1236 878 q 1206 919 1236 908 l 1100 953 l 1100 972 l 1396 972 l 1396 953 l 1332 925 q 1296 876 1308 914 l 1017 -8 l 928 -8 l 713 640 l 492 -8 l 399 -8 l 107 878 q 72 926 94 917 l 18 953 l 18 972 l 417 972 l 417 953 l 315 919 q 286 883 286 910 q 289 868 286 879 l 497 182 l 725 861 l 814 861 l 1026 197 z "},"X":{"ha":964,"x_min":17,"x_max":947,"o":"m 947 19 l 947 0 l 576 0 l 576 19 l 622 39 q 647 71 647 50 q 639 96 647 83 l 435 428 l 221 99 q 213 75 213 86 q 240 44 213 53 l 310 19 l 310 0 l 17 0 l 17 19 l 104 50 q 146 82 129 58 l 404 478 l 151 889 q 111 924 139 913 l 39 953 l 39 972 l 411 972 l 411 953 l 367 932 q 342 899 342 919 q 349 876 342 890 l 524 590 l 703 874 q 711 897 711 886 q 682 928 711 917 l 604 953 l 604 972 l 904 972 l 904 953 l 824 922 q 799 910 808 917 q 781 890 789 903 l 553 542 l 833 83 q 875 49 849 58 l 947 19 z "},"Y":{"ha":908,"x_min":14,"x_max":893,"o":"m 893 953 l 829 924 q 789 886 801 911 l 538 410 l 538 94 q 572 49 538 58 l 661 19 l 661 0 l 251 0 l 251 19 l 339 49 q 374 94 374 58 l 374 390 l 110 889 q 71 926 93 917 l 14 953 l 14 972 l 382 972 l 382 953 l 310 928 q 279 894 279 917 q 285 874 279 883 l 501 453 l 719 872 q 726 893 726 886 q 697 925 726 914 l 631 953 l 631 972 l 893 972 l 893 953 z "},"Z":{"ha":844,"x_min":39,"x_max":814,"o":"m 814 232 l 771 0 l 39 0 l 39 32 l 610 925 l 232 925 q 183 894 201 925 l 90 740 l 69 740 l 113 972 l 804 972 l 804 940 l 233 47 l 651 47 q 700 78 682 47 l 793 232 l 814 232 z "},"[":{"ha":375,"x_min":81,"x_max":354,"o":"m 81 1051 l 354 1051 l 354 1019 l 214 1019 l 214 -228 l 354 -228 l 354 -260 l 81 -260 l 81 1051 z "},"\\":{"ha":551,"x_min":81,"x_max":497,"o":"m 447 0 l 81 972 l 131 972 l 497 0 l 447 0 z "},"]":{"ha":375,"x_min":21,"x_max":294,"o":"m 21 -260 l 21 -228 l 161 -228 l 161 1019 l 21 1019 l 21 1051 l 294 1051 l 294 -260 l 21 -260 z "},"^":{"ha":671,"x_min":65,"x_max":606,"o":"m 311 965 l 360 965 l 606 603 l 546 603 l 335 922 l 125 603 l 65 603 l 311 965 z "},"_":{"ha":550,"x_min":39,"x_max":511,"o":"m 511 -58 l 39 -58 l 39 -11 l 511 -11 l 511 -58 z "},"`":{"ha":374,"x_min":69,"x_max":304,"o":"m 69 988 l 206 988 l 304 785 l 258 785 l 69 988 z "},"a":{"ha":732,"x_min":42,"x_max":704,"o":"m 704 50 l 704 31 l 483 -17 l 450 -17 l 450 115 q 239 -17 372 -17 q 98 36 154 -17 q 42 171 42 89 q 117 328 42 267 q 347 407 193 390 l 450 418 l 450 472 q 418 623 450 568 q 325 678 386 678 q 228 628 261 678 q 199 499 196 578 l 46 499 q 144 663 57 606 q 351 719 232 719 q 542 649 478 719 q 606 451 606 578 l 606 115 q 639 68 606 79 l 704 50 m 319 82 q 450 168 403 82 l 450 379 l 363 364 q 204 200 204 338 q 237 115 204 149 q 319 82 269 82 z "},"b":{"ha":828,"x_min":32,"x_max":783,"o":"m 493 719 q 648 673 582 719 q 749 548 714 626 q 783 375 783 469 q 737 167 783 256 q 611 31 690 78 q 436 -17 532 -17 q 326 8 374 -17 q 249 76 279 32 l 172 -17 l 132 -17 l 132 857 q 97 904 132 894 l 32 922 l 32 942 l 253 989 l 286 989 l 286 611 q 375 688 321 656 q 493 719 429 719 m 446 25 q 538 64 497 25 q 600 171 578 103 q 622 322 622 239 q 602 474 622 401 q 540 592 582 546 q 438 639 499 639 q 354 622 393 639 q 286 575 315 604 l 286 249 q 326 91 286 157 q 446 25 367 25 z "},"c":{"ha":686,"x_min":43,"x_max":660,"o":"m 576 482 q 505 625 560 572 q 378 678 450 678 q 241 601 289 678 q 193 410 193 525 q 222 242 193 315 q 302 126 250 168 q 424 85 354 85 q 638 206 565 85 l 660 196 q 549 38 622 93 q 368 -17 475 -17 q 195 31 269 -17 q 82 160 121 79 q 43 340 43 242 q 84 531 43 444 q 203 668 125 617 q 389 719 282 719 q 506 705 446 719 q 597 668 565 690 l 597 482 l 576 482 z "},"d":{"ha":826,"x_min":40,"x_max":792,"o":"m 792 50 l 792 31 l 571 -17 l 538 -17 l 538 92 q 449 15 503 47 q 331 -17 394 -17 q 176 30 242 -17 q 75 155 110 76 q 40 328 40 233 q 87 536 40 447 q 213 672 133 625 q 388 719 292 719 q 538 668 478 719 l 538 857 q 503 904 538 894 l 438 922 l 438 942 l 658 989 l 692 989 l 692 115 q 726 68 692 78 l 792 50 m 388 64 q 470 81 431 64 q 538 128 510 99 l 538 453 q 497 611 538 544 q 378 678 457 678 q 287 638 326 678 q 225 531 247 599 q 203 379 203 463 q 223 228 203 300 q 285 110 243 156 q 388 64 326 64 z "},"e":{"ha":713,"x_min":43,"x_max":667,"o":"m 447 101 q 560 132 508 101 q 642 211 611 163 l 663 201 q 556 45 633 107 q 365 -17 478 -17 q 192 31 265 -17 q 81 159 119 79 q 43 333 43 239 q 86 539 43 451 q 207 673 129 626 q 385 719 285 719 q 594 635 524 719 q 667 403 665 550 l 194 403 q 230 240 196 308 q 321 137 264 172 q 447 101 378 101 m 363 676 q 245 615 289 676 q 196 444 201 553 l 507 444 q 467 617 501 557 q 363 676 433 676 z "},"f":{"ha":528,"x_min":21,"x_max":500,"o":"m 500 914 q 319 951 378 951 q 269 939 283 951 q 254 903 254 926 q 272 822 254 876 q 287 768 281 796 q 293 718 293 740 l 293 703 l 493 703 l 493 661 l 293 661 l 293 88 q 326 40 293 49 l 417 19 l 417 0 l 47 0 l 47 19 l 104 39 q 138 85 138 50 l 138 661 l 21 661 l 21 703 l 138 703 l 138 726 q 182 890 138 815 q 309 1013 226 965 q 500 1068 392 1061 l 500 914 z "},"g":{"ha":718,"x_min":33,"x_max":685,"o":"m 446 135 q 620 82 556 121 q 685 -42 685 43 q 637 -158 685 -107 q 507 -239 589 -210 q 324 -268 425 -268 q 111 -222 189 -268 q 33 -99 33 -176 q 77 -6 33 -43 q 183 51 121 32 q 118 99 140 68 q 96 168 96 129 q 163 290 96 242 q 80 369 110 321 q 50 481 50 417 q 86 603 50 549 q 189 689 122 658 q 344 719 256 719 q 513 681 442 719 l 622 803 l 661 767 l 551 656 q 635 481 635 588 q 599 359 635 413 q 498 275 564 306 q 344 244 432 244 q 189 276 260 244 q 168 219 168 250 q 251 157 168 167 l 446 135 m 332 682 q 245 632 279 682 q 211 504 211 582 q 253 343 211 406 q 358 281 296 281 q 444 332 411 281 q 476 463 476 383 q 457 576 476 526 q 405 654 438 626 q 332 682 372 682 m 346 -225 q 492 -185 436 -225 q 547 -85 547 -144 q 515 -17 547 -40 q 417 15 483 6 l 246 36 q 210 43 231 38 q 171 -68 171 -4 q 221 -181 171 -136 q 346 -225 271 -225 z "},"h":{"ha":860,"x_min":35,"x_max":825,"o":"m 825 19 l 825 0 l 482 0 l 482 19 l 542 39 q 575 85 575 50 l 575 536 q 557 602 575 579 q 504 625 539 625 q 413 606 457 625 q 289 542 368 588 l 289 85 q 324 39 289 49 l 383 19 l 383 0 l 40 0 l 40 19 l 100 39 q 133 85 133 49 l 133 857 q 100 904 133 894 l 35 922 l 35 942 l 256 989 l 289 989 l 289 585 q 472 689 400 657 q 600 721 544 721 q 697 676 663 721 q 731 544 731 631 l 731 85 q 765 39 731 49 l 825 19 z "},"i":{"ha":418,"x_min":35,"x_max":383,"o":"m 383 19 l 383 0 l 40 0 l 40 19 l 100 39 q 133 85 133 49 l 133 588 q 100 633 133 625 l 35 651 l 35 672 l 256 719 l 289 719 l 289 85 q 324 39 289 49 l 383 19 m 210 806 q 135 834 165 806 q 104 906 104 863 q 135 975 104 947 q 210 1003 165 1003 q 284 975 254 1003 q 314 906 314 947 q 284 834 314 863 q 210 806 254 806 z "},"j":{"ha":389,"x_min":-1,"x_max":299,"o":"m 282 721 l 282 42 q 258 -96 282 -39 q 175 -195 235 -153 q 8 -264 115 -237 l -1 -243 q 83 -194 60 -212 q 116 -131 106 -176 q 126 17 126 -86 l 126 589 q 93 635 126 626 l 28 653 l 28 674 l 249 721 l 282 721 m 194 807 q 119 835 150 807 q 89 907 89 864 q 119 976 89 949 q 194 1004 150 1004 q 269 976 239 1004 q 299 907 299 949 q 269 835 299 864 q 194 807 239 807 z "},"k":{"ha":824,"x_min":35,"x_max":803,"o":"m 803 21 l 803 0 l 565 0 l 347 349 q 297 376 332 376 l 289 376 l 289 85 q 324 39 289 49 l 383 19 l 383 0 l 40 0 l 40 19 l 100 39 q 133 85 133 49 l 133 851 q 100 899 133 889 l 35 917 l 35 936 l 256 983 l 289 983 l 289 418 l 313 418 q 363 439 343 418 l 550 624 q 567 647 567 640 q 540 663 567 657 l 479 678 l 479 703 l 761 703 l 761 678 l 676 658 q 629 632 647 650 l 447 460 l 690 76 q 733 43 704 53 l 803 21 z "},"l":{"ha":418,"x_min":35,"x_max":383,"o":"m 383 19 l 383 0 l 40 0 l 40 19 l 100 39 q 133 85 133 49 l 133 851 q 100 899 133 889 l 35 917 l 35 936 l 256 983 l 289 983 l 289 85 q 324 39 289 49 l 383 19 z "},"m":{"ha":1274,"x_min":35,"x_max":1239,"o":"m 1239 19 l 1239 0 l 896 0 l 896 19 l 956 39 q 989 85 989 50 l 989 517 q 973 600 989 578 q 911 622 957 622 q 831 606 867 622 q 717 543 794 589 l 717 85 q 751 39 717 49 l 811 19 l 811 0 l 468 0 l 468 19 l 528 39 q 561 85 561 50 l 561 490 q 556 572 561 544 q 533 610 550 599 q 479 622 515 622 q 408 608 442 622 q 321 565 374 594 l 289 547 l 289 85 q 324 39 289 49 l 383 19 l 383 0 l 40 0 l 40 19 l 100 39 q 133 85 133 49 l 133 588 q 100 633 133 625 l 35 651 l 35 672 l 256 719 l 289 719 l 289 588 q 328 611 311 600 q 357 631 344 622 q 471 698 425 676 q 571 719 517 719 q 669 687 638 719 q 713 586 701 654 l 743 607 q 885 692 831 665 q 999 719 939 719 q 1084 701 1053 719 q 1130 636 1115 682 q 1144 508 1144 590 l 1144 85 q 1178 39 1144 50 l 1239 19 z "},"n":{"ha":860,"x_min":35,"x_max":825,"o":"m 825 19 l 825 0 l 482 0 l 482 19 l 542 39 q 575 85 575 50 l 575 536 q 557 602 575 579 q 504 625 539 625 q 413 606 457 625 q 289 542 368 588 l 289 85 q 324 39 289 49 l 383 19 l 383 0 l 40 0 l 40 19 l 100 39 q 133 85 133 49 l 133 588 q 100 633 133 625 l 35 651 l 35 672 l 256 719 l 289 719 l 289 585 q 472 689 400 657 q 600 721 544 721 q 697 676 663 721 q 731 544 731 631 l 731 85 q 765 39 731 49 l 825 19 z "},"o":{"ha":776,"x_min":43,"x_max":733,"o":"m 382 -17 q 205 28 282 -17 q 85 155 128 74 q 43 342 43 236 q 91 539 43 453 q 219 672 139 625 q 392 719 299 719 q 569 674 492 719 q 690 546 647 628 q 733 357 733 464 q 685 163 733 247 q 557 31 638 78 q 382 -17 476 -17 m 403 29 q 490 65 451 29 q 549 165 528 101 q 571 311 571 229 q 550 475 571 392 q 485 616 529 558 q 374 674 440 674 q 287 638 325 674 q 227 538 249 601 q 206 392 206 474 q 226 228 206 313 q 292 87 247 144 q 403 29 336 29 z "},"p":{"ha":831,"x_min":35,"x_max":786,"o":"m 496 719 q 651 673 585 719 q 751 548 717 626 q 786 375 786 469 q 740 167 786 256 q 614 31 693 78 q 439 -17 535 -17 q 289 33 347 -17 l 289 -176 q 324 -222 289 -212 l 383 -242 l 383 -261 l 40 -261 l 40 -242 l 100 -222 q 133 -176 133 -212 l 133 588 q 100 635 133 625 l 35 653 l 35 672 l 256 719 l 289 719 l 289 611 q 378 688 324 656 q 496 719 432 719 m 449 25 q 540 64 500 25 q 601 171 579 103 q 624 322 624 239 q 603 474 624 401 q 542 592 583 546 q 439 639 500 639 q 357 622 396 639 q 289 575 318 604 l 289 249 q 329 91 289 157 q 449 25 369 25 z "},"q":{"ha":822,"x_min":40,"x_max":783,"o":"m 783 -233 l 783 -254 l 440 -254 l 440 -233 l 500 -215 q 535 -169 535 -206 l 535 60 q 349 -17 458 -17 q 183 31 253 -17 q 77 158 114 78 q 40 336 40 239 q 83 535 40 449 q 205 671 126 622 q 383 719 283 719 q 575 638 506 719 l 651 719 l 690 719 l 690 -169 q 724 -215 690 -206 l 783 -233 m 414 61 q 535 115 478 61 l 535 504 q 478 631 522 581 q 364 682 435 682 q 276 647 315 682 q 215 549 238 613 q 193 401 193 485 q 219 233 193 311 q 294 108 244 156 q 414 61 344 61 z "},"r":{"ha":611,"x_min":35,"x_max":569,"o":"m 518 722 q 569 715 538 722 l 569 565 q 471 585 525 585 q 362 551 410 585 q 289 458 314 518 l 289 92 q 324 46 289 56 l 418 19 l 418 0 l 40 0 l 40 19 l 103 43 q 133 90 133 56 l 133 588 q 100 633 133 625 l 35 651 l 35 672 l 256 719 l 289 719 l 289 513 q 376 666 322 615 q 500 721 431 717 l 518 722 z "},"s":{"ha":604,"x_min":53,"x_max":569,"o":"m 293 -17 q 166 -1 228 -17 q 61 38 104 14 l 61 204 l 82 204 q 167 74 108 124 q 300 25 226 25 q 406 61 367 25 q 444 147 444 97 q 401 239 444 207 q 258 300 357 271 q 159 341 201 319 q 85 408 117 363 q 53 524 53 453 q 120 666 53 613 q 300 719 188 719 q 413 709 360 719 q 504 681 465 699 l 504 521 l 483 521 q 410 634 460 590 q 296 678 361 678 q 203 649 235 678 q 172 578 172 619 q 213 495 172 526 q 329 440 253 464 q 501 357 433 407 q 569 211 569 307 q 535 97 569 149 q 438 14 501 44 q 293 -17 375 -17 z "},"t":{"ha":550,"x_min":42,"x_max":508,"o":"m 353 703 l 508 703 l 508 661 l 353 661 l 353 0 l 197 0 l 197 661 l 42 661 l 42 703 l 203 703 l 203 890 l 332 972 l 353 972 l 353 703 z "},"u":{"ha":865,"x_min":35,"x_max":829,"o":"m 829 51 l 829 32 l 610 -15 l 575 -15 l 575 119 q 392 15 463 47 q 265 -17 321 -17 q 167 28 201 -17 q 133 158 133 74 l 133 588 q 100 633 133 625 l 35 651 l 35 672 l 256 719 l 289 719 l 289 168 q 308 102 289 126 q 361 78 326 78 q 450 96 408 78 q 575 161 492 114 l 575 588 q 542 633 575 625 l 476 651 l 476 672 l 697 719 l 731 719 l 731 117 q 765 69 731 79 l 829 51 z "},"v":{"ha":815,"x_min":21,"x_max":794,"o":"m 794 703 l 794 682 l 732 658 q 693 619 706 649 l 443 -8 l 369 -8 l 113 619 q 74 660 99 649 l 21 682 l 21 703 l 368 703 l 368 682 l 303 661 q 275 628 275 650 q 279 608 275 619 l 457 154 l 638 607 q 643 628 643 621 q 614 660 643 651 l 532 682 l 532 703 l 794 703 z "},"w":{"ha":1207,"x_min":21,"x_max":1186,"o":"m 875 164 l 1035 604 q 1038 622 1038 618 q 1008 658 1038 647 l 931 682 l 931 703 l 1186 703 l 1186 682 l 1128 657 q 1090 617 1103 646 l 861 -8 l 786 -8 l 600 482 l 417 -8 l 344 -8 l 107 619 q 68 658 97 646 l 21 682 l 21 703 l 360 703 l 360 682 l 301 660 q 274 625 274 647 q 276 607 274 614 l 432 164 l 606 640 l 701 640 l 875 164 z "},"x":{"ha":803,"x_min":22,"x_max":782,"o":"m 782 19 l 782 0 l 443 0 l 443 19 l 485 33 q 507 57 507 40 q 490 93 507 69 l 354 292 l 217 101 q 201 64 201 79 q 225 38 201 46 l 286 19 l 286 0 l 22 0 l 22 19 l 90 42 q 123 60 111 49 q 153 96 135 71 l 326 331 l 129 617 q 81 664 107 654 l 22 682 l 22 703 l 363 703 l 363 682 l 319 668 q 299 646 299 663 q 317 606 299 632 l 436 435 l 558 601 q 574 639 574 621 q 550 667 574 661 l 492 682 l 492 703 l 738 703 l 738 682 l 692 669 q 658 652 671 663 q 631 622 646 642 l 464 394 l 679 85 q 705 53 693 64 q 731 38 717 42 l 782 19 z "},"y":{"ha":815,"x_min":21,"x_max":794,"o":"m 794 703 l 794 682 l 732 658 q 693 619 706 649 l 413 -78 q 326 -224 371 -178 q 204 -271 282 -271 q 150 -267 175 -271 l 150 -133 q 239 -144 190 -144 q 322 -125 289 -144 q 375 -60 356 -106 l 390 -21 l 115 619 q 74 660 103 647 l 21 682 l 21 703 l 368 703 l 368 682 l 303 661 q 276 629 276 650 q 282 608 276 625 l 463 171 l 638 607 q 643 628 643 621 q 614 660 643 651 l 532 682 l 532 703 l 794 703 z "},"z":{"ha":686,"x_min":32,"x_max":631,"o":"m 631 651 l 210 42 l 450 42 q 510 58 483 42 q 549 104 536 74 l 610 240 l 631 240 l 601 0 l 32 0 l 32 53 l 456 661 l 233 661 q 180 649 201 661 q 143 607 158 638 l 76 485 l 57 485 l 89 703 l 631 703 l 631 651 z "},"{":{"ha":468,"x_min":40,"x_max":447,"o":"m 40 406 q 128 454 104 418 q 153 563 153 490 l 153 871 q 235 1013 153 960 q 447 1067 317 1065 l 447 1038 q 339 990 378 1028 q 300 883 300 951 l 300 569 q 261 456 300 492 q 125 396 222 419 q 227 360 190 379 q 282 309 264 342 q 300 222 300 276 l 300 -92 q 339 -198 300 -160 q 447 -246 378 -236 l 447 -275 q 235 -221 317 -274 q 153 -79 153 -168 l 153 229 q 128 338 153 301 q 40 386 104 374 l 40 406 z "},"|":{"ha":371,"x_min":163,"x_max":208,"o":"m 163 1094 l 208 1094 l 208 -294 l 163 -294 l 163 1094 z "},"}":{"ha":468,"x_min":21,"x_max":428,"o":"m 428 386 q 340 338 364 374 q 315 229 315 301 l 315 -79 q 233 -221 315 -168 q 21 -275 151 -274 l 21 -246 q 129 -198 90 -236 q 168 -92 168 -160 l 168 222 q 186 309 168 276 q 241 360 204 342 q 343 396 278 379 q 207 456 246 419 q 168 569 168 492 l 168 883 q 129 990 168 951 q 21 1038 90 1028 l 21 1067 q 233 1013 151 1065 q 315 871 315 960 l 315 563 q 340 454 315 490 q 428 406 364 418 l 428 386 z "},"~":{"ha":644,"x_min":74,"x_max":582,"o":"m 74 375 q 122 513 78 458 q 226 568 165 568 q 286 556 254 568 q 363 524 318 544 q 428 495 403 504 q 474 486 453 486 q 518 507 501 486 q 547 576 535 528 l 582 567 q 533 426 576 482 q 432 371 490 371 q 365 382 397 371 q 290 415 333 393 q 226 442 250 433 q 179 451 203 451 q 135 432 151 451 q 108 367 118 413 l 74 375 z "}," ":{"ha":300,"x_min":0,"x_max":0,"o":""},"¡":{"ha":431,"x_min":115,"x_max":315,"o":"m 215 708 q 286 680 257 708 q 315 608 315 651 q 288 538 315 567 q 215 510 260 510 q 144 539 174 510 q 115 608 115 568 q 144 680 115 651 q 215 708 174 708 m 118 -283 l 197 404 l 233 404 l 313 -283 l 118 -283 z "},"¢":{"ha":686,"x_min":43,"x_max":660,"o":"m 660 196 q 555 43 624 97 q 386 -17 486 -11 l 386 -207 l 339 -207 l 339 -15 q 181 40 249 -8 q 78 168 114 89 q 43 340 43 247 q 78 517 43 436 q 179 651 113 599 q 339 717 246 704 l 339 911 l 386 911 l 386 719 l 389 719 q 506 705 446 719 q 597 668 565 690 l 597 482 l 576 482 q 505 625 560 572 q 378 678 450 678 q 241 601 289 678 q 193 410 193 525 q 222 242 193 315 q 302 126 250 168 q 424 85 354 85 q 638 206 565 85 l 660 196 z "},"£":{"ha":814,"x_min":28,"x_max":776,"o":"m 776 215 q 699 44 763 106 q 540 -18 635 -18 q 444 -5 486 -18 q 353 33 401 8 q 285 62 311 53 q 229 71 258 71 q 49 -12 150 71 l 28 13 q 167 194 126 115 q 208 344 208 274 q 182 476 208 401 l 33 476 l 33 522 l 167 522 q 141 613 150 571 q 132 700 132 654 q 172 853 132 788 q 283 953 213 918 q 443 989 353 989 q 566 973 510 989 q 681 922 622 957 l 681 740 l 660 740 q 443 947 610 947 q 319 899 365 947 q 279 767 274 850 q 290 708 281 738 q 318 638 300 678 q 342 580 331 610 q 358 522 353 550 l 642 522 l 642 476 l 365 476 q 332 317 371 401 q 190 129 293 232 q 361 185 281 185 q 428 175 399 185 q 500 147 458 165 q 558 124 536 132 q 604 117 581 117 q 690 142 651 117 q 749 218 729 167 l 776 215 z "},"¤":{"ha":753,"x_min":6,"x_max":724,"o":"m 694 146 l 576 267 q 479 205 533 226 q 365 183 425 183 q 249 205 304 183 q 151 267 194 226 l 32 147 l 7 174 l 125 292 q 46 506 46 385 q 66 620 46 567 q 124 717 86 674 l 6 836 l 35 865 l 153 747 q 251 807 196 786 q 365 828 306 828 q 480 806 425 828 q 578 744 535 783 l 697 864 l 722 838 l 603 718 q 661 620 640 675 q 682 506 682 565 q 662 392 682 446 q 606 294 642 338 l 724 175 l 694 146 m 365 225 q 501 263 438 225 q 601 364 564 300 q 638 506 638 428 q 601 647 638 582 q 501 749 564 711 q 365 786 439 786 q 227 749 290 786 q 127 647 164 711 q 90 506 90 582 q 127 365 90 429 q 227 263 164 300 q 365 225 290 225 z "},"¥":{"ha":908,"x_min":14,"x_max":893,"o":"m 893 972 l 893 953 l 829 924 q 789 886 801 911 l 543 421 l 776 421 l 776 374 l 538 374 l 538 94 q 572 49 538 58 l 661 19 l 661 0 l 251 0 l 251 19 l 339 49 q 374 94 374 58 l 374 374 l 143 374 l 143 421 l 357 421 l 110 889 q 71 926 93 917 l 14 953 l 14 972 l 382 972 l 382 953 l 310 928 q 279 894 279 917 q 285 874 279 883 l 501 453 l 719 872 q 726 893 726 886 q 697 925 726 914 l 631 953 l 631 972 l 893 972 z "},"¦":{"ha":371,"x_min":163,"x_max":208,"o":"m 163 1094 l 208 1094 l 208 553 l 163 553 l 163 1094 m 208 -294 l 163 -294 l 163 247 l 208 247 l 208 -294 z "},"§":{"ha":765,"x_min":81,"x_max":686,"o":"m 532 190 q 675 -15 675 115 q 594 -176 675 -115 q 368 -237 513 -237 q 224 -219 292 -237 q 90 -167 157 -201 l 90 -4 l 114 -4 q 211 -148 144 -96 q 374 -200 278 -200 q 496 -159 449 -200 q 543 -57 543 -118 q 503 41 546 1 q 360 114 461 81 q 147 225 213 164 q 81 371 81 286 q 124 493 81 442 q 246 571 168 544 q 97 781 97 654 q 173 932 97 875 q 388 989 249 989 q 631 931 518 989 l 631 783 l 613 783 q 526 907 586 863 q 389 951 465 951 q 267 915 311 951 q 222 822 222 878 q 267 718 222 760 q 414 640 313 676 q 623 532 560 592 q 686 385 686 472 q 644 268 686 319 q 532 190 601 217 m 213 428 q 265 317 213 358 q 438 231 317 275 q 478 215 456 225 q 538 264 515 233 q 560 335 560 294 q 516 438 560 399 q 360 518 472 478 q 297 544 321 533 q 235 497 258 528 q 213 428 213 467 z "},"¨":{"ha":576,"x_min":61,"x_max":518,"o":"m 163 810 q 90 836 119 810 q 61 904 61 863 q 90 971 61 944 q 163 997 119 997 q 233 971 204 997 q 263 904 263 944 q 233 836 263 863 q 163 810 204 810 m 418 810 q 347 836 376 810 q 318 904 318 863 q 347 971 318 944 q 418 997 376 997 q 489 971 460 997 q 518 904 518 944 q 489 836 518 863 q 418 810 460 810 z "},"©":{"ha":1063,"x_min":47,"x_max":1014,"o":"m 529 -19 q 288 46 399 -19 q 113 222 178 111 q 47 464 47 333 q 113 706 47 594 q 288 882 178 817 q 529 947 399 947 q 772 882 660 947 q 949 706 883 817 q 1014 464 1014 594 q 949 222 1014 333 q 772 46 883 111 q 529 -19 660 -19 m 531 26 q 749 85 649 26 q 909 244 850 144 q 968 463 968 344 q 909 683 968 582 q 749 842 850 783 q 531 901 649 901 q 313 842 413 901 q 153 682 213 783 q 94 463 94 581 q 153 244 94 344 q 313 85 213 144 q 531 26 413 26 m 532 200 q 397 234 456 200 q 306 331 339 268 q 274 474 274 393 q 306 617 274 554 q 397 714 339 679 q 532 749 456 749 q 674 705 615 749 q 753 585 733 661 l 703 574 q 644 670 689 636 q 532 704 600 704 q 381 642 436 704 q 325 474 325 581 q 381 306 325 368 q 532 244 436 244 q 642 277 599 244 q 703 372 686 310 l 751 363 q 671 243 729 286 q 532 200 613 200 z "},"ª":{"ha":463,"x_min":22,"x_max":449,"o":"m 449 582 l 449 569 l 296 544 l 271 544 l 271 626 q 143 544 222 544 q 56 576 89 544 q 22 658 22 608 q 73 756 22 719 q 218 803 124 793 l 271 808 l 271 851 q 255 934 271 904 q 208 964 239 964 q 153 931 171 964 q 139 851 136 897 l 25 851 q 86 953 29 917 q 221 989 143 989 q 347 945 304 989 q 390 824 390 901 l 390 626 q 411 593 390 600 l 449 582 m 204 613 q 271 656 244 613 l 271 783 l 229 776 q 144 682 144 760 q 162 632 144 651 q 204 613 179 613 z "},"«":{"ha":767,"x_min":54,"x_max":728,"o":"m 54 388 l 379 644 l 400 624 l 183 361 l 400 94 l 379 75 l 54 332 l 54 388 m 381 388 l 706 644 l 728 624 l 511 361 l 728 94 l 706 75 l 381 332 l 381 388 z "},"¬":{"ha":719,"x_min":60,"x_max":660,"o":"m 660 29 l 613 29 l 613 411 l 60 411 l 60 457 l 660 457 l 660 29 z "},"®":{"ha":676,"x_min":47,"x_max":628,"o":"m 336 471 q 192 510 258 471 q 86 615 125 549 q 47 760 47 682 q 86 906 47 839 q 192 1011 125 972 q 336 1050 258 1050 q 482 1011 415 1050 q 588 906 549 972 q 628 760 628 839 q 588 615 628 682 q 482 510 549 549 q 336 471 415 471 m 338 507 q 464 541 406 507 q 556 633 522 575 q 590 760 590 692 q 556 888 590 829 q 465 980 522 946 q 338 1014 407 1014 q 210 980 268 1014 q 119 888 153 946 q 85 760 85 829 q 119 633 85 692 q 211 541 153 575 q 338 507 269 507 m 435 615 l 347 758 l 274 758 l 274 615 l 238 615 l 238 929 l 346 929 q 417 906 390 929 q 444 844 444 882 q 428 794 444 815 q 385 763 413 772 l 478 615 l 435 615 m 272 794 l 344 794 q 407 844 407 794 q 344 894 407 894 l 272 894 l 272 794 z "},"¯":{"ha":528,"x_min":69,"x_max":458,"o":"m 69 883 l 458 883 l 458 836 l 69 836 l 69 883 z "},"°":{"ha":479,"x_min":69,"x_max":379,"o":"m 225 638 q 115 683 161 638 q 69 793 69 729 q 115 902 69 857 q 225 947 160 947 q 334 902 289 947 q 379 793 379 857 q 333 684 379 731 q 225 638 288 638 m 222 686 q 299 717 268 686 q 329 793 329 747 q 299 868 329 838 q 222 899 268 899 q 149 868 178 899 q 119 793 119 838 q 149 717 119 747 q 222 686 178 686 z "},"±":{"ha":738,"x_min":69,"x_max":668,"o":"m 668 468 l 392 468 l 392 190 l 347 190 l 347 468 l 69 468 l 69 513 l 347 513 l 347 790 l 392 790 l 392 513 l 668 513 l 668 468 m 69 44 l 668 44 l 668 0 l 69 0 l 69 44 z "},"´":{"ha":374,"x_min":69,"x_max":304,"o":"m 69 785 l 167 988 l 304 988 l 115 785 l 69 785 z "},"µ":{"ha":810,"x_min":35,"x_max":829,"o":"m 829 51 l 829 32 l 610 -15 l 575 -15 l 575 119 q 408 23 476 56 q 289 -15 340 -10 l 289 -131 q 324 -178 289 -168 l 388 -196 l 388 -215 l 168 -262 l 133 -262 l 133 588 q 100 633 133 625 l 35 651 l 35 672 l 256 719 l 289 719 l 289 168 q 308 102 289 126 q 361 78 326 78 q 450 96 408 78 q 575 161 492 114 l 575 588 q 542 633 575 625 l 476 651 l 476 672 l 697 719 l 731 719 l 731 117 q 765 69 731 79 l 829 51 z "},"¶":{"ha":768,"x_min":81,"x_max":729,"o":"m 304 519 q 192 547 243 519 q 110 621 140 574 q 81 724 81 668 q 110 826 81 779 q 192 901 140 874 q 304 928 243 928 l 729 928 l 729 882 l 635 882 l 635 -294 l 581 -294 l 581 882 l 358 882 l 358 -294 l 304 -294 l 304 519 z "},"·":{"ha":338,"x_min":69,"x_max":268,"o":"m 168 396 q 98 424 126 396 q 69 496 69 453 q 98 565 69 536 q 168 594 126 594 q 240 566 213 594 q 268 496 268 538 q 239 424 268 453 q 168 396 210 396 z "},"¸":{"ha":367,"x_min":69,"x_max":297,"o":"m 71 -274 q 165 -260 131 -278 q 199 -206 199 -243 q 174 -162 199 -181 q 104 -135 150 -143 l 188 0 l 224 0 l 182 -75 q 262 -112 226 -85 q 297 -181 297 -140 q 255 -268 297 -237 q 138 -299 213 -299 q 69 -293 101 -299 l 71 -274 z "},"º":{"ha":485,"x_min":22,"x_max":461,"o":"m 238 544 q 82 606 142 544 q 22 764 22 667 q 53 881 22 829 q 134 960 83 932 q 244 989 185 989 q 401 928 342 989 q 461 768 461 867 q 431 652 461 703 q 349 573 400 601 q 238 544 297 544 m 253 571 q 313 618 289 571 q 336 739 336 665 q 309 892 336 819 q 232 964 282 964 q 172 917 196 964 q 147 796 147 869 q 174 642 147 714 q 253 571 201 571 z "},"»":{"ha":765,"x_min":39,"x_max":713,"o":"m 388 75 l 365 94 l 583 361 l 365 624 l 388 644 l 713 388 l 713 332 l 388 75 m 61 75 l 39 94 l 257 361 l 39 624 l 61 644 l 386 388 l 386 332 l 61 75 z "},"¼":{"ha":1049,"x_min":21,"x_max":1028,"o":"m 226 0 l 763 972 l 817 972 l 281 0 l 226 0 z "},"½":{"ha":1082,"x_min":21,"x_max":1061,"o":"m 226 0 l 763 972 l 817 972 l 281 0 l 226 0 z "},"¾":{"ha":1096,"x_min":11,"x_max":1074,"o":"m 274 0 l 810 972 l 864 972 l 328 0 l 274 0 z "},"¿":{"ha":721,"x_min":81,"x_max":665,"o":"m 379 721 q 450 692 421 721 q 479 621 479 664 q 450 551 479 579 q 379 522 421 522 q 307 550 335 522 q 279 621 279 578 q 308 692 279 664 q 379 721 338 721 m 407 417 q 442 271 442 336 q 414 170 442 210 q 331 82 386 131 q 255 4 282 39 q 222 -79 228 -31 q 221 -108 221 -89 q 258 -210 221 -174 q 353 -246 294 -246 q 465 -185 425 -246 q 503 -28 504 -125 l 665 -28 q 569 -224 653 -161 q 356 -287 485 -287 q 156 -223 232 -287 q 81 -53 81 -158 q 102 48 81 6 q 155 119 124 90 q 238 183 186 147 q 339 270 306 231 q 372 371 372 310 q 368 417 372 392 l 407 417 z "},"À":{"ha":1036,"x_min":24,"x_max":1013,"o":"m 1013 19 l 1013 0 l 607 0 l 607 19 l 710 50 q 739 83 739 58 q 735 103 739 93 l 657 306 l 276 306 l 199 103 q 194 85 194 93 q 225 50 194 58 l 332 19 l 332 0 l 24 0 l 24 19 l 97 49 q 135 90 124 60 l 483 981 l 565 981 l 913 90 q 949 47 922 60 l 1013 19 m 638 353 l 467 796 l 296 353 l 638 353 m 338 1257 l 474 1257 l 572 1054 l 526 1054 l 338 1257 z "},"Á":{"ha":1036,"x_min":24,"x_max":1013,"o":"m 1013 19 l 1013 0 l 607 0 l 607 19 l 710 50 q 739 83 739 58 q 735 103 739 93 l 657 306 l 276 306 l 199 103 q 194 85 194 93 q 225 50 194 58 l 332 19 l 332 0 l 24 0 l 24 19 l 97 49 q 135 90 124 60 l 483 981 l 565 981 l 913 90 q 949 47 922 60 l 1013 19 m 638 353 l 467 796 l 296 353 l 638 353 m 485 1054 l 582 1257 l 719 1257 l 531 1054 l 485 1054 z "},"Â":{"ha":1036,"x_min":24,"x_max":1013,"o":"m 1013 19 l 1013 0 l 607 0 l 607 19 l 710 50 q 739 83 739 58 q 735 103 739 93 l 657 306 l 276 306 l 199 103 q 194 85 194 93 q 225 50 194 58 l 332 19 l 332 0 l 24 0 l 24 19 l 97 49 q 135 90 124 60 l 483 981 l 565 981 l 913 90 q 949 47 922 60 l 1013 19 m 638 353 l 467 796 l 296 353 l 638 353 m 678 1054 l 522 1192 l 368 1054 l 318 1054 l 447 1257 l 596 1257 l 733 1054 l 678 1054 z "},"Ã":{"ha":1036,"x_min":24,"x_max":1013,"o":"m 1013 19 l 1013 0 l 607 0 l 607 19 l 710 50 q 739 83 739 58 q 735 103 739 93 l 657 306 l 276 306 l 199 103 q 194 85 194 93 q 225 50 194 58 l 332 19 l 332 0 l 24 0 l 24 19 l 97 49 q 135 90 124 60 l 483 981 l 565 981 l 913 90 q 949 47 922 60 l 1013 19 m 638 353 l 467 796 l 296 353 l 638 353 m 307 1076 q 349 1194 311 1147 q 438 1242 386 1242 q 554 1203 476 1242 q 609 1179 588 1188 q 647 1171 631 1171 q 685 1189 671 1171 q 711 1247 700 1207 l 740 1240 q 699 1121 735 1168 q 613 1074 663 1074 q 557 1083 583 1074 q 492 1111 531 1093 q 436 1135 456 1128 q 397 1142 417 1142 q 360 1125 374 1142 q 336 1069 346 1108 l 307 1076 z "},"Ä":{"ha":1036,"x_min":24,"x_max":1013,"o":"m 1013 19 l 1013 0 l 607 0 l 607 19 l 710 50 q 739 83 739 58 q 735 103 739 93 l 657 306 l 276 306 l 199 103 q 194 85 194 93 q 225 50 194 58 l 332 19 l 332 0 l 24 0 l 24 19 l 97 49 q 135 90 124 60 l 483 981 l 565 981 l 913 90 q 949 47 922 60 l 1013 19 m 638 353 l 467 796 l 296 353 l 638 353 m 399 1079 q 326 1106 356 1079 q 297 1174 297 1132 q 326 1240 297 1214 q 399 1267 356 1267 q 469 1240 440 1267 q 499 1174 499 1214 q 469 1106 499 1132 q 399 1079 440 1079 m 654 1079 q 583 1106 613 1079 q 554 1174 554 1132 q 583 1240 554 1214 q 654 1267 613 1267 q 725 1240 696 1267 q 754 1174 754 1214 q 725 1106 754 1132 q 654 1079 696 1079 z "},"Å":{"ha":1036,"x_min":24,"x_max":1013,"o":"m 1013 19 l 1013 0 l 607 0 l 607 19 l 710 50 q 739 83 739 58 q 735 103 739 93 l 657 306 l 276 306 l 199 103 q 194 85 194 93 q 225 50 194 58 l 332 19 l 332 0 l 24 0 l 24 19 l 97 49 q 135 90 124 60 l 483 981 l 565 981 l 913 90 q 949 47 922 60 l 1013 19 m 638 353 l 467 796 l 296 353 l 638 353 m 525 1040 q 421 1079 463 1040 q 379 1176 379 1118 q 421 1273 379 1235 q 525 1311 463 1311 q 628 1273 586 1311 q 669 1176 669 1235 q 628 1079 669 1118 q 525 1040 586 1040 m 525 1082 q 591 1108 565 1082 q 617 1176 617 1135 q 591 1244 617 1218 q 525 1271 565 1271 q 460 1244 486 1271 q 435 1176 435 1218 q 460 1108 435 1135 q 525 1082 486 1082 z "},"Æ":{"ha":1399,"x_min":0,"x_max":1368,"o":"m 1368 232 l 1325 0 l 576 0 l 576 19 l 664 49 q 699 94 699 57 l 699 306 l 332 306 l 196 103 q 189 82 189 93 q 221 50 189 60 l 329 19 l 329 0 l 0 0 l 0 19 l 79 51 q 128 90 110 63 l 676 919 l 664 924 l 576 953 l 576 972 l 1301 972 l 1344 740 l 1324 740 l 1215 894 q 1194 917 1204 910 q 1168 925 1183 925 l 863 925 l 863 556 l 1051 556 q 1099 589 1086 556 l 1142 693 l 1163 693 l 1163 371 l 1142 371 l 1099 475 q 1051 508 1086 508 l 863 508 l 863 94 q 876 60 863 72 q 913 47 889 47 l 1190 47 q 1217 54 1207 47 q 1239 78 1226 61 l 1347 232 l 1368 232 m 699 353 l 699 853 l 364 353 l 699 353 z "},"Ç":{"ha":922,"x_min":44,"x_max":874,"o":"m 874 249 q 746 63 831 142 q 510 -17 661 -15 l 478 -75 q 558 -112 522 -85 q 593 -181 593 -140 q 551 -268 593 -237 q 433 -299 508 -299 q 365 -293 397 -299 l 367 -274 q 460 -260 426 -278 q 494 -206 494 -243 q 470 -162 494 -181 q 400 -135 446 -143 l 475 -15 q 249 58 347 -8 q 98 236 151 125 q 44 482 44 347 q 110 740 44 624 q 290 922 175 856 q 544 989 404 989 q 712 971 629 989 q 846 922 794 953 l 846 729 l 825 729 q 717 884 797 825 q 531 943 636 943 q 299 831 379 943 q 218 522 218 719 q 259 292 218 392 q 374 137 300 192 q 544 82 449 82 q 735 132 657 82 q 853 260 814 182 l 874 249 z "},"È":{"ha":863,"x_min":40,"x_max":831,"o":"m 831 232 l 788 0 l 40 0 l 40 19 l 128 49 q 163 94 163 57 l 163 878 q 128 924 163 915 l 40 953 l 40 972 l 765 972 l 808 740 l 788 740 l 679 894 q 658 917 668 910 q 632 925 647 925 l 326 925 l 326 556 l 515 556 q 563 589 549 556 l 606 693 l 626 693 l 626 371 l 606 371 l 563 475 q 515 508 549 508 l 326 508 l 326 94 q 340 60 326 72 q 376 47 353 47 l 654 47 q 680 55 669 47 q 703 78 690 63 l 810 232 l 831 232 m 250 1257 l 386 1257 l 485 1054 l 439 1054 l 250 1257 z "},"É":{"ha":863,"x_min":40,"x_max":831,"o":"m 831 232 l 788 0 l 40 0 l 40 19 l 128 49 q 163 94 163 57 l 163 878 q 128 924 163 915 l 40 953 l 40 972 l 765 972 l 808 740 l 788 740 l 679 894 q 658 917 668 910 q 632 925 647 925 l 326 925 l 326 556 l 515 556 q 563 589 549 556 l 606 693 l 626 693 l 626 371 l 606 371 l 563 475 q 515 508 549 508 l 326 508 l 326 94 q 340 60 326 72 q 376 47 353 47 l 654 47 q 680 55 669 47 q 703 78 690 63 l 810 232 l 831 232 m 397 1054 l 494 1257 l 632 1257 l 443 1054 l 397 1054 z "},"Ê":{"ha":863,"x_min":40,"x_max":831,"o":"m 831 232 l 788 0 l 40 0 l 40 19 l 128 49 q 163 94 163 57 l 163 878 q 128 924 163 915 l 40 953 l 40 972 l 765 972 l 808 740 l 788 740 l 679 894 q 658 917 668 910 q 632 925 647 925 l 326 925 l 326 556 l 515 556 q 563 589 549 556 l 606 693 l 626 693 l 626 371 l 606 371 l 563 475 q 515 508 549 508 l 326 508 l 326 94 q 340 60 326 72 q 376 47 353 47 l 654 47 q 680 55 669 47 q 703 78 690 63 l 810 232 l 831 232 m 590 1054 l 435 1192 l 281 1054 l 231 1054 l 360 1257 l 508 1257 l 646 1054 l 590 1054 z "},"Ë":{"ha":863,"x_min":40,"x_max":831,"o":"m 831 232 l 788 0 l 40 0 l 40 19 l 128 49 q 163 94 163 57 l 163 878 q 128 924 163 915 l 40 953 l 40 972 l 765 972 l 808 740 l 788 740 l 679 894 q 658 917 668 910 q 632 925 647 925 l 326 925 l 326 556 l 515 556 q 563 589 549 556 l 606 693 l 626 693 l 626 371 l 606 371 l 563 475 q 515 508 549 508 l 326 508 l 326 94 q 340 60 326 72 q 376 47 353 47 l 654 47 q 680 55 669 47 q 703 78 690 63 l 810 232 l 831 232 m 313 1079 q 240 1106 269 1079 q 211 1174 211 1132 q 240 1240 211 1214 q 313 1267 269 1267 q 383 1240 354 1267 q 413 1174 413 1214 q 383 1106 413 1132 q 313 1079 354 1079 m 568 1079 q 497 1106 526 1079 q 468 1174 468 1132 q 497 1240 468 1214 q 568 1267 526 1267 q 639 1240 610 1267 q 668 1174 668 1214 q 639 1106 668 1132 q 568 1079 610 1079 z "},"Ì":{"ha":489,"x_min":40,"x_max":449,"o":"m 40 19 l 128 49 q 163 94 163 57 l 163 878 q 128 924 163 915 l 40 953 l 40 972 l 449 972 l 449 953 l 360 924 q 326 878 326 915 l 326 94 q 360 49 326 57 l 449 19 l 449 0 l 40 0 l 40 19 m 57 1257 l 193 1257 l 292 1054 l 246 1054 l 57 1257 z "},"Í":{"ha":489,"x_min":40,"x_max":449,"o":"m 40 19 l 128 49 q 163 94 163 57 l 163 878 q 128 924 163 915 l 40 953 l 40 972 l 449 972 l 449 953 l 360 924 q 326 878 326 915 l 326 94 q 360 49 326 57 l 449 19 l 449 0 l 40 0 l 40 19 m 204 1054 l 301 1257 l 439 1257 l 250 1054 l 204 1054 z "},"Î":{"ha":489,"x_min":38,"x_max":453,"o":"m 40 19 l 128 49 q 163 94 163 57 l 163 878 q 128 924 163 915 l 40 953 l 40 972 l 449 972 l 449 953 l 360 924 q 326 878 326 915 l 326 94 q 360 49 326 57 l 449 19 l 449 0 l 40 0 l 40 19 m 397 1054 l 242 1192 l 88 1054 l 38 1054 l 167 1257 l 315 1257 l 453 1054 l 397 1054 z "},"Ï":{"ha":489,"x_min":17,"x_max":474,"o":"m 40 19 l 128 49 q 163 94 163 57 l 163 878 q 128 924 163 915 l 40 953 l 40 972 l 449 972 l 449 953 l 360 924 q 326 878 326 915 l 326 94 q 360 49 326 57 l 449 19 l 449 0 l 40 0 l 40 19 m 118 1079 q 46 1106 75 1079 q 17 1174 17 1132 q 46 1240 17 1214 q 118 1267 75 1267 q 189 1240 160 1267 q 218 1174 218 1214 q 189 1106 218 1132 q 118 1079 160 1079 m 374 1079 q 303 1106 332 1079 q 274 1174 274 1132 q 303 1240 274 1214 q 374 1267 332 1267 q 444 1240 415 1267 q 474 1174 474 1214 q 444 1106 474 1132 q 374 1079 415 1079 z "},"Ð":{"ha":1001,"x_min":32,"x_max":963,"o":"m 450 972 q 739 911 624 972 q 908 747 854 850 q 963 519 963 644 q 894 242 963 360 q 713 62 826 124 q 471 0 600 0 l 40 0 l 40 19 l 131 54 q 163 103 163 67 l 163 465 l 32 465 l 32 507 l 163 507 l 163 869 q 131 917 163 904 l 40 953 l 40 972 l 450 972 m 471 47 q 704 163 621 47 q 788 486 788 278 q 746 701 788 600 q 622 863 704 801 q 426 925 540 925 l 325 925 l 325 507 l 482 507 l 482 465 l 325 465 l 325 136 q 358 68 325 89 q 471 47 390 47 z "},"Ñ":{"ha":1007,"x_min":40,"x_max":967,"o":"m 967 972 l 967 953 l 885 924 q 850 876 850 911 l 850 0 l 794 0 l 222 797 l 222 103 q 257 54 222 67 l 365 19 l 365 0 l 51 0 l 51 19 l 136 53 q 168 101 168 65 l 168 871 q 71 940 126 919 l 40 953 l 40 972 l 301 972 l 797 269 l 797 876 q 763 922 797 913 l 653 953 l 653 972 l 967 972 m 286 1076 q 328 1194 290 1147 q 417 1242 365 1242 q 533 1203 456 1242 q 588 1179 567 1188 q 626 1171 610 1171 q 665 1189 650 1171 q 690 1247 679 1207 l 719 1240 q 678 1121 714 1168 q 592 1074 642 1074 q 536 1083 563 1074 q 471 1111 510 1093 q 415 1135 435 1128 q 376 1142 396 1142 q 339 1125 353 1142 q 315 1069 325 1108 l 286 1076 z "},"Ò":{"ha":1001,"x_min":47,"x_max":953,"o":"m 506 989 q 747 924 646 989 q 901 748 849 858 q 953 507 953 638 q 892 233 953 353 q 728 49 832 114 q 499 -17 625 -17 q 255 49 357 -17 q 100 225 153 115 q 47 465 47 335 q 108 739 47 619 q 273 924 168 858 q 506 989 378 989 m 479 939 q 285 825 354 939 q 217 528 217 711 q 218 469 217 489 q 264 256 226 356 q 367 96 301 157 q 524 35 433 35 q 717 147 649 35 q 785 438 785 258 q 782 503 785 458 q 738 717 774 618 q 635 878 701 817 q 479 939 569 939 m 313 1257 l 449 1257 l 547 1054 l 501 1054 l 313 1257 z "},"Ó":{"ha":1001,"x_min":47,"x_max":953,"o":"m 506 989 q 747 924 646 989 q 901 748 849 858 q 953 507 953 638 q 892 233 953 353 q 728 49 832 114 q 499 -17 625 -17 q 255 49 357 -17 q 100 225 153 115 q 47 465 47 335 q 108 739 47 619 q 273 924 168 858 q 506 989 378 989 m 479 939 q 285 825 354 939 q 217 528 217 711 q 218 469 217 489 q 264 256 226 356 q 367 96 301 157 q 524 35 433 35 q 717 147 649 35 q 785 438 785 258 q 782 503 785 458 q 738 717 774 618 q 635 878 701 817 q 479 939 569 939 m 460 1054 l 557 1257 l 694 1257 l 506 1054 l 460 1054 z "},"Ô":{"ha":1001,"x_min":47,"x_max":953,"o":"m 506 989 q 747 924 646 989 q 901 748 849 858 q 953 507 953 638 q 892 233 953 353 q 728 49 832 114 q 499 -17 625 -17 q 255 49 357 -17 q 100 225 153 115 q 47 465 47 335 q 108 739 47 619 q 273 924 168 858 q 506 989 378 989 m 479 939 q 285 825 354 939 q 217 528 217 711 q 218 469 217 489 q 264 256 226 356 q 367 96 301 157 q 524 35 433 35 q 717 147 649 35 q 785 438 785 258 q 782 503 785 458 q 738 717 774 618 q 635 878 701 817 q 479 939 569 939 m 653 1054 l 497 1192 l 343 1054 l 293 1054 l 422 1257 l 571 1257 l 708 1054 l 653 1054 z "},"Õ":{"ha":1001,"x_min":47,"x_max":953,"o":"m 506 989 q 747 924 646 989 q 901 748 849 858 q 953 507 953 638 q 892 233 953 353 q 728 49 832 114 q 499 -17 625 -17 q 255 49 357 -17 q 100 225 153 115 q 47 465 47 335 q 108 739 47 619 q 273 924 168 858 q 506 989 378 989 m 479 939 q 285 825 354 939 q 217 528 217 711 q 218 469 217 489 q 264 256 226 356 q 367 96 301 157 q 524 35 433 35 q 717 147 649 35 q 785 438 785 258 q 782 503 785 458 q 738 717 774 618 q 635 878 701 817 q 479 939 569 939 m 282 1076 q 324 1194 286 1147 q 413 1242 361 1242 q 529 1203 451 1242 q 584 1179 563 1188 q 622 1171 606 1171 q 660 1189 646 1171 q 686 1247 675 1207 l 715 1240 q 674 1121 710 1168 q 588 1074 638 1074 q 532 1083 558 1074 q 467 1111 506 1093 q 411 1135 431 1128 q 372 1142 392 1142 q 335 1125 349 1142 q 311 1069 321 1108 l 282 1076 z "},"Ö":{"ha":1001,"x_min":47,"x_max":953,"o":"m 506 989 q 747 924 646 989 q 901 748 849 858 q 953 507 953 638 q 892 233 953 353 q 728 49 832 114 q 499 -17 625 -17 q 255 49 357 -17 q 100 225 153 115 q 47 465 47 335 q 108 739 47 619 q 273 924 168 858 q 506 989 378 989 m 479 939 q 285 825 354 939 q 217 528 217 711 q 218 469 217 489 q 264 256 226 356 q 367 96 301 157 q 524 35 433 35 q 717 147 649 35 q 785 438 785 258 q 782 503 785 458 q 738 717 774 618 q 635 878 701 817 q 479 939 569 939 m 375 1079 q 303 1106 332 1079 q 274 1174 274 1132 q 303 1240 274 1214 q 375 1267 332 1267 q 446 1240 417 1267 q 475 1174 475 1214 q 446 1106 475 1132 q 375 1079 417 1079 m 631 1079 q 560 1106 589 1079 q 531 1174 531 1132 q 560 1240 531 1214 q 631 1267 589 1267 q 701 1240 672 1267 q 731 1174 731 1214 q 701 1106 731 1132 q 631 1079 672 1079 z "},"×":{"ha":607,"x_min":69,"x_max":538,"o":"m 335 465 l 536 264 l 503 231 l 301 432 l 103 233 l 69 267 l 268 465 l 69 665 l 103 699 l 303 499 l 504 700 l 538 667 l 335 465 z "},"Ø":{"ha":1001,"x_min":47,"x_max":953,"o":"m 799 885 q 913 719 874 818 q 953 507 953 621 q 892 233 953 353 q 728 49 832 114 q 499 -17 625 -17 q 240 58 350 -17 l 150 -75 l 113 -49 l 204 88 q 88 252 128 153 q 47 465 47 351 q 108 739 47 619 q 273 924 168 858 q 506 989 378 989 q 763 913 656 989 l 858 1054 l 896 1028 l 799 885 m 218 469 q 285 207 229 319 l 693 808 q 601 904 654 869 q 481 939 547 939 q 285 825 354 939 q 217 526 217 711 q 218 469 217 489 m 524 35 q 717 146 649 35 q 785 436 785 257 q 782 503 785 458 q 718 764 771 654 l 311 163 q 524 35 393 35 z "},"Ù":{"ha":1044,"x_min":40,"x_max":1006,"o":"m 1006 972 l 1006 953 l 913 924 q 879 876 879 914 l 879 349 q 792 78 879 174 q 544 -18 706 -18 q 260 74 358 -18 q 163 340 163 167 l 163 878 q 128 924 163 915 l 40 953 l 40 972 l 449 972 l 449 953 l 360 924 q 331 876 331 917 l 331 344 q 393 126 331 206 q 578 47 456 47 q 760 124 694 47 q 825 350 825 201 l 825 876 q 796 921 825 910 l 694 953 l 694 972 l 1006 972 m 371 1257 l 507 1257 l 606 1054 l 560 1054 l 371 1257 z "},"Ú":{"ha":1044,"x_min":40,"x_max":1006,"o":"m 1006 972 l 1006 953 l 913 924 q 879 876 879 914 l 879 349 q 792 78 879 174 q 544 -18 706 -18 q 260 74 358 -18 q 163 340 163 167 l 163 878 q 128 924 163 915 l 40 953 l 40 972 l 449 972 l 449 953 l 360 924 q 331 876 331 917 l 331 344 q 393 126 331 206 q 578 47 456 47 q 760 124 694 47 q 825 350 825 201 l 825 876 q 796 921 825 910 l 694 953 l 694 972 l 1006 972 m 518 1054 l 615 1257 l 753 1257 l 564 1054 l 518 1054 z "},"Û":{"ha":1044,"x_min":40,"x_max":1006,"o":"m 1006 972 l 1006 953 l 913 924 q 879 876 879 914 l 879 349 q 792 78 879 174 q 544 -18 706 -18 q 260 74 358 -18 q 163 340 163 167 l 163 878 q 128 924 163 915 l 40 953 l 40 972 l 449 972 l 449 953 l 360 924 q 331 876 331 917 l 331 344 q 393 126 331 206 q 578 47 456 47 q 760 124 694 47 q 825 350 825 201 l 825 876 q 796 921 825 910 l 694 953 l 694 972 l 1006 972 m 711 1054 l 556 1192 l 401 1054 l 351 1054 l 481 1257 l 629 1257 l 767 1054 l 711 1054 z "},"Ü":{"ha":1044,"x_min":40,"x_max":1006,"o":"m 1006 972 l 1006 953 l 913 924 q 879 876 879 914 l 879 349 q 792 78 879 174 q 544 -18 706 -18 q 260 74 358 -18 q 163 340 163 167 l 163 878 q 128 924 163 915 l 40 953 l 40 972 l 449 972 l 449 953 l 360 924 q 331 876 331 917 l 331 344 q 393 126 331 206 q 578 47 456 47 q 760 124 694 47 q 825 350 825 201 l 825 876 q 796 921 825 910 l 694 953 l 694 972 l 1006 972 m 432 1079 q 360 1106 389 1079 q 331 1174 331 1132 q 360 1240 331 1214 q 432 1267 389 1267 q 503 1240 474 1267 q 532 1174 532 1214 q 503 1106 532 1132 q 432 1079 474 1079 m 688 1079 q 617 1106 646 1079 q 588 1174 588 1132 q 617 1240 588 1214 q 688 1267 646 1267 q 758 1240 729 1267 q 788 1174 788 1214 q 758 1106 788 1132 q 688 1079 729 1079 z "},"Ý":{"ha":908,"x_min":14,"x_max":893,"o":"m 893 953 l 829 924 q 789 886 801 911 l 538 410 l 538 94 q 572 49 538 58 l 661 19 l 661 0 l 251 0 l 251 19 l 339 49 q 374 94 374 58 l 374 390 l 110 889 q 71 926 93 917 l 14 953 l 14 972 l 382 972 l 382 953 l 310 928 q 279 894 279 917 q 285 874 279 883 l 501 453 l 719 872 q 726 893 726 886 q 697 925 726 914 l 631 953 l 631 972 l 893 972 l 893 953 m 443 1054 l 540 1257 l 678 1257 l 489 1054 l 443 1054 z "},"Þ":{"ha":828,"x_min":40,"x_max":789,"o":"m 326 239 l 326 94 q 360 49 326 57 l 449 19 l 449 0 l 40 0 l 40 19 l 128 49 q 163 94 163 57 l 163 878 q 128 924 163 915 l 40 953 l 40 972 l 449 972 l 449 953 l 360 924 q 326 878 326 915 l 326 774 l 439 774 q 697 710 606 774 q 789 508 789 646 q 697 306 789 374 q 439 239 604 239 l 326 239 m 326 726 l 326 286 l 404 286 q 562 347 507 286 q 617 508 617 408 q 563 669 617 611 q 404 726 510 726 l 326 726 z "},"ß":{"ha":906,"x_min":28,"x_max":860,"o":"m 860 193 q 792 42 860 100 q 615 -17 725 -17 q 442 33 519 -17 q 344 178 364 82 l 486 178 q 530 65 494 104 q 622 25 565 25 q 709 56 675 25 q 742 139 743 88 q 720 206 742 179 q 668 250 699 233 q 582 289 638 267 q 483 335 521 314 q 418 394 444 357 q 392 489 392 432 q 409 561 392 532 q 452 608 426 590 q 521 649 478 626 q 592 690 565 671 q 637 739 618 708 q 656 817 656 769 q 608 932 656 888 q 481 976 560 976 q 383 950 428 976 q 310 872 338 924 q 283 747 283 819 l 283 0 l 33 0 l 33 19 l 93 39 q 128 85 128 49 l 128 661 l 28 661 l 28 703 l 128 703 l 128 713 q 180 888 128 818 q 313 988 232 957 q 481 1019 393 1019 q 719 965 629 1019 q 808 817 808 911 q 783 722 808 758 q 723 667 758 686 q 632 631 688 649 q 538 588 568 608 q 507 524 507 567 q 540 460 507 482 q 644 415 574 439 q 756 369 714 392 q 829 305 799 347 q 860 193 860 263 z "},"à":{"ha":732,"x_min":42,"x_max":704,"o":"m 704 50 l 704 31 l 483 -17 l 450 -17 l 450 115 q 239 -17 372 -17 q 98 36 154 -17 q 42 171 42 89 q 117 328 42 267 q 347 407 193 390 l 450 418 l 450 472 q 418 623 450 568 q 325 678 386 678 q 228 628 261 678 q 199 499 196 578 l 46 499 q 144 663 57 606 q 351 719 232 719 q 542 649 478 719 q 606 451 606 578 l 606 115 q 639 68 606 79 l 704 50 m 319 82 q 450 168 403 82 l 450 379 l 363 364 q 204 200 204 338 q 237 115 204 149 q 319 82 269 82 m 158 988 l 294 988 l 393 785 l 347 785 l 158 988 z "},"á":{"ha":732,"x_min":42,"x_max":704,"o":"m 704 50 l 704 31 l 483 -17 l 450 -17 l 450 115 q 239 -17 372 -17 q 98 36 154 -17 q 42 171 42 89 q 117 328 42 267 q 347 407 193 390 l 450 418 l 450 472 q 418 623 450 568 q 325 678 386 678 q 228 628 261 678 q 199 499 196 578 l 46 499 q 144 663 57 606 q 351 719 232 719 q 542 649 478 719 q 606 451 606 578 l 606 115 q 639 68 606 79 l 704 50 m 319 82 q 450 168 403 82 l 450 379 l 363 364 q 204 200 204 338 q 237 115 204 149 q 319 82 269 82 m 306 785 l 403 988 l 540 988 l 351 785 l 306 785 z "},"â":{"ha":732,"x_min":42,"x_max":704,"o":"m 704 50 l 704 31 l 483 -17 l 450 -17 l 450 115 q 239 -17 372 -17 q 98 36 154 -17 q 42 171 42 89 q 117 328 42 267 q 347 407 193 390 l 450 418 l 450 472 q 418 623 450 568 q 325 678 386 678 q 228 628 261 678 q 199 499 196 578 l 46 499 q 144 663 57 606 q 351 719 232 719 q 542 649 478 719 q 606 451 606 578 l 606 115 q 639 68 606 79 l 704 50 m 319 82 q 450 168 403 82 l 450 379 l 363 364 q 204 200 204 338 q 237 115 204 149 q 319 82 269 82 m 499 785 l 343 922 l 189 785 l 139 785 l 268 988 l 417 988 l 554 785 l 499 785 z "},"ã":{"ha":732,"x_min":42,"x_max":704,"o":"m 704 50 l 704 31 l 483 -17 l 450 -17 l 450 115 q 239 -17 372 -17 q 98 36 154 -17 q 42 171 42 89 q 117 328 42 267 q 347 407 193 390 l 450 418 l 450 472 q 418 623 450 568 q 325 678 386 678 q 228 628 261 678 q 199 499 196 578 l 46 499 q 144 663 57 606 q 351 719 232 719 q 542 649 478 719 q 606 451 606 578 l 606 115 q 639 68 606 79 l 704 50 m 319 82 q 450 168 403 82 l 450 379 l 363 364 q 204 200 204 338 q 237 115 204 149 q 319 82 269 82 m 128 807 q 169 925 132 878 q 258 972 207 972 q 375 933 297 972 q 430 910 408 918 q 468 901 451 901 q 506 919 492 901 q 532 978 521 938 l 561 971 q 519 851 556 899 q 433 804 483 804 q 378 814 404 804 q 313 842 351 824 q 257 865 276 858 q 218 872 238 872 q 181 856 194 872 q 157 800 167 839 l 128 807 z "},"ä":{"ha":732,"x_min":42,"x_max":704,"o":"m 704 50 l 704 31 l 483 -17 l 450 -17 l 450 115 q 239 -17 372 -17 q 98 36 154 -17 q 42 171 42 89 q 117 328 42 267 q 347 407 193 390 l 450 418 l 450 472 q 418 623 450 568 q 325 678 386 678 q 228 628 261 678 q 199 499 196 578 l 46 499 q 144 663 57 606 q 351 719 232 719 q 542 649 478 719 q 606 451 606 578 l 606 115 q 639 68 606 79 l 704 50 m 319 82 q 450 168 403 82 l 450 379 l 363 364 q 204 200 204 338 q 237 115 204 149 q 319 82 269 82 m 221 810 q 149 836 178 810 q 119 904 119 863 q 149 971 119 944 q 221 997 178 997 q 292 971 263 997 q 321 904 321 944 q 292 836 321 863 q 221 810 263 810 m 476 810 q 406 836 435 810 q 376 904 376 863 q 406 971 376 944 q 476 997 435 997 q 547 971 518 997 q 576 904 576 944 q 547 836 576 863 q 476 810 518 810 z "},"å":{"ha":732,"x_min":42,"x_max":704,"o":"m 704 50 l 704 31 l 483 -17 l 450 -17 l 450 115 q 239 -17 372 -17 q 98 36 154 -17 q 42 171 42 89 q 117 328 42 267 q 347 407 193 390 l 450 418 l 450 472 q 418 623 450 568 q 325 678 386 678 q 228 628 261 678 q 199 499 196 578 l 46 499 q 144 663 57 606 q 351 719 232 719 q 542 649 478 719 q 606 451 606 578 l 606 115 q 639 68 606 79 l 704 50 m 319 82 q 450 168 403 82 l 450 379 l 363 364 q 204 200 204 338 q 237 115 204 149 q 319 82 269 82 m 347 771 q 243 810 285 771 q 201 907 201 849 q 243 1003 201 965 q 347 1042 285 1042 q 450 1003 408 1042 q 492 907 492 965 q 450 810 492 849 q 347 771 408 771 m 347 813 q 413 839 388 813 q 439 907 439 865 q 413 975 439 949 q 347 1001 388 1001 q 283 975 308 1001 q 257 907 257 949 q 283 839 257 865 q 347 813 308 813 z "},"æ":{"ha":1122,"x_min":42,"x_max":1076,"o":"m 857 101 q 969 132 918 101 q 1051 211 1021 163 l 1072 201 q 965 45 1043 107 q 775 -17 888 -17 q 602 32 675 -17 q 490 163 529 81 q 385 36 456 89 q 233 -17 314 -17 q 96 36 150 -17 q 42 171 42 89 q 117 328 42 267 q 347 407 193 390 l 451 418 l 451 472 q 419 623 451 568 q 325 678 386 678 q 228 628 261 678 q 199 499 196 578 l 46 499 q 144 663 57 606 q 351 719 232 719 q 557 625 496 719 q 663 695 601 671 q 794 719 724 719 q 1004 635 933 719 q 1076 403 1075 550 l 604 403 q 640 240 606 308 q 731 137 674 172 q 857 101 788 101 m 772 676 q 655 615 699 676 q 606 444 611 553 l 917 444 q 877 617 911 557 q 772 676 843 676 m 317 82 q 407 112 365 82 q 478 193 449 142 q 454 333 454 260 q 456 363 454 353 l 451 363 l 451 378 l 363 364 q 204 200 204 339 q 237 115 204 149 q 317 82 269 82 z "},"ç":{"ha":686,"x_min":43,"x_max":660,"o":"m 660 196 q 552 40 624 94 q 378 -17 481 -14 l 346 -75 q 426 -112 390 -85 q 461 -181 461 -140 q 419 -268 461 -237 q 301 -299 376 -299 q 233 -293 265 -299 l 235 -274 q 328 -260 294 -278 q 363 -206 363 -243 q 338 -162 363 -181 q 268 -135 314 -143 l 342 -15 q 183 40 250 -10 q 79 167 115 89 q 43 340 43 246 q 84 531 43 444 q 203 668 125 617 q 389 719 282 719 q 506 705 446 719 q 597 668 565 690 l 597 482 l 576 482 q 505 625 560 572 q 378 678 450 678 q 241 601 289 678 q 193 410 193 525 q 222 242 193 315 q 302 126 250 168 q 424 85 354 85 q 638 206 565 85 l 660 196 z "},"è":{"ha":713,"x_min":43,"x_max":667,"o":"m 447 101 q 560 132 508 101 q 642 211 611 163 l 663 201 q 556 45 633 107 q 365 -17 478 -17 q 192 31 265 -17 q 81 159 119 79 q 43 333 43 239 q 86 539 43 451 q 207 673 129 626 q 385 719 285 719 q 594 635 524 719 q 667 403 665 550 l 194 403 q 230 240 196 308 q 321 137 264 172 q 447 101 378 101 m 363 676 q 245 615 289 676 q 196 444 201 553 l 507 444 q 467 617 501 557 q 363 676 433 676 m 186 988 l 322 988 l 421 785 l 375 785 l 186 988 z "},"é":{"ha":713,"x_min":43,"x_max":667,"o":"m 447 101 q 560 132 508 101 q 642 211 611 163 l 663 201 q 556 45 633 107 q 365 -17 478 -17 q 192 31 265 -17 q 81 159 119 79 q 43 333 43 239 q 86 539 43 451 q 207 673 129 626 q 385 719 285 719 q 594 635 524 719 q 667 403 665 550 l 194 403 q 230 240 196 308 q 321 137 264 172 q 447 101 378 101 m 363 676 q 245 615 289 676 q 196 444 201 553 l 507 444 q 467 617 501 557 q 363 676 433 676 m 335 785 l 432 988 l 569 988 l 381 785 l 335 785 z "},"ê":{"ha":713,"x_min":43,"x_max":667,"o":"m 447 101 q 560 132 508 101 q 642 211 611 163 l 663 201 q 556 45 633 107 q 365 -17 478 -17 q 192 31 265 -17 q 81 159 119 79 q 43 333 43 239 q 86 539 43 451 q 207 673 129 626 q 385 719 285 719 q 594 635 524 719 q 667 403 665 550 l 194 403 q 230 240 196 308 q 321 137 264 172 q 447 101 378 101 m 363 676 q 245 615 289 676 q 196 444 201 553 l 507 444 q 467 617 501 557 q 363 676 433 676 m 526 785 l 371 922 l 217 785 l 167 785 l 296 988 l 444 988 l 582 785 l 526 785 z "},"ë":{"ha":713,"x_min":43,"x_max":667,"o":"m 447 101 q 560 132 508 101 q 642 211 611 163 l 663 201 q 556 45 633 107 q 365 -17 478 -17 q 192 31 265 -17 q 81 159 119 79 q 43 333 43 239 q 86 539 43 451 q 207 673 129 626 q 385 719 285 719 q 594 635 524 719 q 667 403 665 550 l 194 403 q 230 240 196 308 q 321 137 264 172 q 447 101 378 101 m 363 676 q 245 615 289 676 q 196 444 201 553 l 507 444 q 467 617 501 557 q 363 676 433 676 m 249 810 q 176 836 206 810 q 147 904 147 863 q 176 971 147 944 q 249 997 206 997 q 319 971 290 997 q 349 904 349 944 q 319 836 349 863 q 249 810 290 810 m 504 810 q 433 836 463 810 q 404 904 404 863 q 433 971 404 944 q 504 997 463 997 q 575 971 546 997 q 604 904 604 944 q 575 836 604 863 q 504 810 546 810 z "},"ì":{"ha":418,"x_min":-4,"x_max":383,"o":"m 383 19 l 383 0 l 40 0 l 40 19 l 100 39 q 133 85 133 49 l 133 588 q 100 633 133 625 l 35 651 l 35 672 l 256 719 l 289 719 l 289 85 q 324 39 289 49 l 383 19 m -4 989 l 132 989 l 231 786 l 185 786 l -4 989 z "},"í":{"ha":418,"x_min":35,"x_max":383,"o":"m 383 19 l 383 0 l 40 0 l 40 19 l 100 39 q 133 85 133 49 l 133 588 q 100 633 133 625 l 35 651 l 35 672 l 256 719 l 289 719 l 289 85 q 324 39 289 49 l 383 19 m 144 786 l 242 989 l 379 989 l 190 786 l 144 786 z "},"î":{"ha":418,"x_min":-19,"x_max":396,"o":"m 383 19 l 383 0 l 40 0 l 40 19 l 100 39 q 133 85 133 49 l 133 588 q 100 633 133 625 l 35 651 l 35 672 l 256 719 l 289 719 l 289 85 q 324 39 289 49 l 383 19 m 340 786 l 185 924 l 31 786 l -19 786 l 110 989 l 258 989 l 396 786 l 340 786 z "},"ï":{"ha":418,"x_min":-37,"x_max":419,"o":"m 383 19 l 383 0 l 40 0 l 40 19 l 100 39 q 133 85 133 49 l 133 588 q 100 633 133 625 l 35 651 l 35 672 l 256 719 l 289 719 l 289 85 q 324 39 289 49 l 383 19 m 64 806 q -8 832 21 806 q -37 900 -37 858 q -8 967 -37 940 q 64 993 21 993 q 135 967 106 993 q 164 900 164 940 q 135 832 164 858 q 64 806 106 806 m 319 806 q 249 832 278 806 q 219 900 219 858 q 249 967 219 940 q 319 993 278 993 q 390 967 361 993 q 419 900 419 940 q 390 832 419 858 q 319 806 361 806 z "},"ð":{"ha":776,"x_min":43,"x_max":733,"o":"m 731 408 q 733 357 733 375 q 685 163 733 247 q 557 31 638 78 q 382 -17 476 -17 q 205 28 282 -17 q 85 155 128 74 q 43 342 43 236 q 91 539 43 453 q 219 672 139 625 q 392 719 299 719 q 506 703 454 719 q 383 878 468 801 l 188 771 l 167 811 l 346 908 q 183 993 271 963 l 194 1028 q 404 940 301 1001 l 572 1032 l 593 992 l 447 913 q 645 695 569 825 q 731 408 721 565 m 403 29 q 490 65 451 29 q 549 165 528 101 q 571 311 571 229 q 550 475 571 392 q 485 616 529 558 q 374 674 440 674 q 287 638 325 674 q 227 538 249 601 q 206 392 206 474 q 226 228 206 313 q 292 87 247 144 q 403 29 336 29 z "},"ñ":{"ha":860,"x_min":35,"x_max":825,"o":"m 825 19 l 825 0 l 482 0 l 482 19 l 542 39 q 575 85 575 50 l 575 536 q 557 602 575 579 q 504 625 539 625 q 413 606 457 625 q 289 542 368 588 l 289 85 q 324 39 289 49 l 383 19 l 383 0 l 40 0 l 40 19 l 100 39 q 133 85 133 49 l 133 588 q 100 633 133 625 l 35 651 l 35 672 l 256 719 l 289 719 l 289 585 q 472 689 400 657 q 600 721 544 721 q 697 676 663 721 q 731 544 731 631 l 731 85 q 765 39 731 49 l 825 19 m 208 808 q 250 926 213 879 q 339 974 288 974 q 456 935 378 974 q 510 911 489 919 q 549 903 532 903 q 587 921 572 903 q 613 979 601 939 l 642 972 q 600 853 636 900 q 514 806 564 806 q 458 815 485 806 q 393 843 432 825 q 338 867 357 860 q 299 874 318 874 q 261 857 275 874 q 238 801 247 840 l 208 808 z "},"ò":{"ha":776,"x_min":43,"x_max":733,"o":"m 382 -17 q 205 28 282 -17 q 85 155 128 74 q 43 342 43 236 q 91 539 43 453 q 219 672 139 625 q 392 719 299 719 q 569 674 492 719 q 690 546 647 628 q 733 357 733 464 q 685 163 733 247 q 557 31 638 78 q 382 -17 476 -17 m 403 29 q 490 65 451 29 q 549 165 528 101 q 571 311 571 229 q 550 475 571 392 q 485 616 529 558 q 374 674 440 674 q 287 638 325 674 q 227 538 249 601 q 206 392 206 474 q 226 228 206 313 q 292 87 247 144 q 403 29 336 29 m 199 988 l 335 988 l 433 785 l 388 785 l 199 988 z "},"ó":{"ha":776,"x_min":43,"x_max":733,"o":"m 382 -17 q 205 28 282 -17 q 85 155 128 74 q 43 342 43 236 q 91 539 43 453 q 219 672 139 625 q 392 719 299 719 q 569 674 492 719 q 690 546 647 628 q 733 357 733 464 q 685 163 733 247 q 557 31 638 78 q 382 -17 476 -17 m 403 29 q 490 65 451 29 q 549 165 528 101 q 571 311 571 229 q 550 475 571 392 q 485 616 529 558 q 374 674 440 674 q 287 638 325 674 q 227 538 249 601 q 206 392 206 474 q 226 228 206 313 q 292 87 247 144 q 403 29 336 29 m 346 785 l 443 988 l 581 988 l 392 785 l 346 785 z "},"ô":{"ha":776,"x_min":43,"x_max":733,"o":"m 382 -17 q 205 28 282 -17 q 85 155 128 74 q 43 342 43 236 q 91 539 43 453 q 219 672 139 625 q 392 719 299 719 q 569 674 492 719 q 690 546 647 628 q 733 357 733 464 q 685 163 733 247 q 557 31 638 78 q 382 -17 476 -17 m 403 29 q 490 65 451 29 q 549 165 528 101 q 571 311 571 229 q 550 475 571 392 q 485 616 529 558 q 374 674 440 674 q 287 638 325 674 q 227 538 249 601 q 206 392 206 474 q 226 228 206 313 q 292 87 247 144 q 403 29 336 29 m 539 785 l 383 922 l 229 785 l 179 785 l 308 988 l 457 988 l 594 785 l 539 785 z "},"õ":{"ha":776,"x_min":43,"x_max":733,"o":"m 382 -17 q 205 28 282 -17 q 85 155 128 74 q 43 342 43 236 q 91 539 43 453 q 219 672 139 625 q 392 719 299 719 q 569 674 492 719 q 690 546 647 628 q 733 357 733 464 q 685 163 733 247 q 557 31 638 78 q 382 -17 476 -17 m 403 29 q 490 65 451 29 q 549 165 528 101 q 571 311 571 229 q 550 475 571 392 q 485 616 529 558 q 374 674 440 674 q 287 638 325 674 q 227 538 249 601 q 206 392 206 474 q 226 228 206 313 q 292 87 247 144 q 403 29 336 29 m 168 807 q 210 925 172 878 q 299 972 247 972 q 415 933 338 972 q 470 910 449 918 q 508 901 492 901 q 547 919 532 901 q 572 978 561 938 l 601 971 q 560 851 596 899 q 474 804 524 804 q 418 814 444 804 q 353 842 392 824 q 297 865 317 858 q 258 872 278 872 q 221 856 235 872 q 197 800 207 839 l 168 807 z "},"ö":{"ha":776,"x_min":43,"x_max":733,"o":"m 382 -17 q 205 28 282 -17 q 85 155 128 74 q 43 342 43 236 q 91 539 43 453 q 219 672 139 625 q 392 719 299 719 q 569 674 492 719 q 690 546 647 628 q 733 357 733 464 q 685 163 733 247 q 557 31 638 78 q 382 -17 476 -17 m 403 29 q 490 65 451 29 q 549 165 528 101 q 571 311 571 229 q 550 475 571 392 q 485 616 529 558 q 374 674 440 674 q 287 638 325 674 q 227 538 249 601 q 206 392 206 474 q 226 228 206 313 q 292 87 247 144 q 403 29 336 29 m 261 810 q 189 836 218 810 q 160 904 160 863 q 189 971 160 944 q 261 997 218 997 q 332 971 303 997 q 361 904 361 944 q 332 836 361 863 q 261 810 303 810 m 517 810 q 446 836 475 810 q 417 904 417 863 q 446 971 417 944 q 517 997 475 997 q 588 971 558 997 q 617 904 617 944 q 588 836 617 863 q 517 810 558 810 z "},"÷":{"ha":738,"x_min":69,"x_max":668,"o":"m 369 604 q 310 628 335 604 q 286 686 286 651 q 310 745 286 721 q 369 769 335 769 q 428 745 406 769 q 451 686 451 721 q 428 628 451 651 q 369 604 404 604 m 69 482 l 668 482 l 668 438 l 69 438 l 69 482 m 369 149 q 310 173 335 149 q 286 232 286 197 q 310 290 286 265 q 369 314 335 314 q 428 290 406 314 q 451 232 451 267 q 428 173 451 197 q 369 149 404 149 z "},"ø":{"ha":776,"x_min":43,"x_max":733,"o":"m 553 682 q 685 555 638 640 q 733 357 733 469 q 685 163 733 247 q 557 31 638 78 q 382 -17 476 -17 q 263 3 318 -17 l 207 -128 l 164 -110 l 219 21 q 90 147 136 63 q 43 342 43 231 q 91 539 43 453 q 219 672 139 625 q 392 719 299 719 q 511 700 456 719 l 567 829 l 608 811 l 553 682 m 206 392 q 221 253 206 325 q 265 126 236 181 l 478 624 q 374 674 435 674 q 287 638 325 674 q 227 538 249 601 q 206 392 206 474 m 403 29 q 490 65 451 29 q 549 165 528 101 q 571 311 571 229 q 556 452 571 379 q 510 579 540 525 l 296 82 q 403 29 342 29 z "},"ù":{"ha":865,"x_min":35,"x_max":829,"o":"m 829 51 l 829 32 l 610 -15 l 575 -15 l 575 119 q 392 15 463 47 q 265 -17 321 -17 q 167 28 201 -17 q 133 158 133 74 l 133 588 q 100 633 133 625 l 35 651 l 35 672 l 256 719 l 289 719 l 289 168 q 308 102 289 126 q 361 78 326 78 q 450 96 408 78 q 575 161 492 114 l 575 588 q 542 633 575 625 l 476 651 l 476 672 l 697 719 l 731 719 l 731 117 q 765 69 731 79 l 829 51 m 239 988 l 375 988 l 474 785 l 428 785 l 239 988 z "},"ú":{"ha":865,"x_min":35,"x_max":829,"o":"m 829 51 l 829 32 l 610 -15 l 575 -15 l 575 119 q 392 15 463 47 q 265 -17 321 -17 q 167 28 201 -17 q 133 158 133 74 l 133 588 q 100 633 133 625 l 35 651 l 35 672 l 256 719 l 289 719 l 289 168 q 308 102 289 126 q 361 78 326 78 q 450 96 408 78 q 575 161 492 114 l 575 588 q 542 633 575 625 l 476 651 l 476 672 l 697 719 l 731 719 l 731 117 q 765 69 731 79 l 829 51 m 385 785 l 482 988 l 619 988 l 431 785 l 385 785 z "},"û":{"ha":865,"x_min":35,"x_max":829,"o":"m 829 51 l 829 32 l 610 -15 l 575 -15 l 575 119 q 392 15 463 47 q 265 -17 321 -17 q 167 28 201 -17 q 133 158 133 74 l 133 588 q 100 633 133 625 l 35 651 l 35 672 l 256 719 l 289 719 l 289 168 q 308 102 289 126 q 361 78 326 78 q 450 96 408 78 q 575 161 492 114 l 575 588 q 542 633 575 625 l 476 651 l 476 672 l 697 719 l 731 719 l 731 117 q 765 69 731 79 l 829 51 m 576 785 l 421 922 l 267 785 l 217 785 l 346 988 l 494 988 l 632 785 l 576 785 z "},"ü":{"ha":865,"x_min":35,"x_max":829,"o":"m 829 51 l 829 32 l 610 -15 l 575 -15 l 575 119 q 392 15 463 47 q 265 -17 321 -17 q 167 28 201 -17 q 133 158 133 74 l 133 588 q 100 633 133 625 l 35 651 l 35 672 l 256 719 l 289 719 l 289 168 q 308 102 289 126 q 361 78 326 78 q 450 96 408 78 q 575 161 492 114 l 575 588 q 542 633 575 625 l 476 651 l 476 672 l 697 719 l 731 719 l 731 117 q 765 69 731 79 l 829 51 m 301 810 q 229 836 258 810 q 200 904 200 863 q 229 971 200 944 q 301 997 258 997 q 372 971 343 997 q 401 904 401 944 q 372 836 401 863 q 301 810 343 810 m 557 810 q 486 836 515 810 q 457 904 457 863 q 486 971 457 944 q 557 997 515 997 q 628 971 599 997 q 657 904 657 944 q 628 836 657 863 q 557 810 599 810 z "},"ý":{"ha":815,"x_min":21,"x_max":794,"o":"m 794 703 l 794 682 l 732 658 q 693 619 706 649 l 413 -78 q 326 -224 371 -178 q 204 -271 282 -271 q 150 -267 175 -271 l 150 -133 q 239 -144 190 -144 q 322 -125 289 -144 q 375 -60 356 -106 l 390 -21 l 115 619 q 74 660 103 647 l 21 682 l 21 703 l 368 703 l 368 682 l 303 661 q 276 629 276 650 q 282 608 276 625 l 463 171 l 638 607 q 643 628 643 621 q 614 660 643 651 l 532 682 l 532 703 l 794 703 m 383 785 l 481 988 l 618 988 l 429 785 l 383 785 z "},"þ":{"ha":826,"x_min":32,"x_max":783,"o":"m 493 719 q 648 673 582 719 q 749 548 714 626 q 783 375 783 469 q 737 167 783 256 q 610 31 690 78 q 435 -17 531 -17 q 286 33 344 -17 l 286 -176 q 319 -222 286 -212 l 379 -242 l 379 -261 l 36 -261 l 36 -242 l 97 -222 q 131 -176 131 -212 l 131 853 q 96 899 131 889 l 32 917 l 32 938 l 251 985 l 286 985 l 286 611 q 375 688 321 656 q 493 719 429 719 m 444 25 q 536 64 496 25 q 599 171 576 103 q 621 322 621 239 q 601 474 621 401 q 539 592 581 546 q 436 639 497 639 q 353 622 392 639 q 286 575 314 604 l 286 249 q 326 91 286 157 q 444 25 365 25 z "},"ÿ":{"ha":815,"x_min":21,"x_max":794,"o":"m 794 703 l 794 682 l 732 658 q 693 619 706 649 l 413 -78 q 326 -224 371 -178 q 204 -271 282 -271 q 150 -267 175 -271 l 150 -133 q 239 -144 190 -144 q 322 -125 289 -144 q 375 -60 356 -106 l 390 -21 l 115 619 q 74 660 103 647 l 21 682 l 21 703 l 368 703 l 368 682 l 303 661 q 276 629 276 650 q 282 608 276 625 l 463 171 l 638 607 q 643 628 643 621 q 614 660 643 651 l 532 682 l 532 703 l 794 703 m 297 810 q 225 836 254 810 q 196 904 196 863 q 225 971 196 944 q 297 997 254 997 q 368 971 339 997 q 397 904 397 944 q 368 836 397 863 q 297 810 339 810 m 553 810 q 482 836 511 810 q 453 904 453 863 q 482 971 453 944 q 553 997 511 997 q 624 971 594 997 q 653 904 653 944 q 624 836 653 863 q 553 810 594 810 z "},"Ā":{"ha":1036,"x_min":24,"x_max":1013,"o":"m 1013 19 l 1013 0 l 607 0 l 607 19 l 710 50 q 739 83 739 58 q 735 103 739 93 l 657 306 l 276 306 l 199 103 q 194 85 194 93 q 225 50 194 58 l 332 19 l 332 0 l 24 0 l 24 19 l 97 49 q 135 90 124 60 l 483 981 l 565 981 l 913 90 q 949 47 922 60 l 1013 19 m 638 353 l 467 796 l 296 353 l 638 353 m 329 1153 l 718 1153 l 718 1106 l 329 1106 l 329 1153 z "},"ā":{"ha":732,"x_min":42,"x_max":704,"o":"m 704 50 l 704 31 l 483 -17 l 450 -17 l 450 115 q 239 -17 372 -17 q 98 36 154 -17 q 42 171 42 89 q 117 328 42 267 q 347 407 193 390 l 450 418 l 450 472 q 418 623 450 568 q 325 678 386 678 q 228 628 261 678 q 199 499 196 578 l 46 499 q 144 663 57 606 q 351 719 232 719 q 542 649 478 719 q 606 451 606 578 l 606 115 q 639 68 606 79 l 704 50 m 319 82 q 450 168 403 82 l 450 379 l 363 364 q 204 200 204 338 q 237 115 204 149 q 319 82 269 82 m 151 883 l 540 883 l 540 836 l 151 836 l 151 883 z "},"Ă":{"ha":1036,"x_min":24,"x_max":1013,"o":"m 1013 19 l 1013 0 l 607 0 l 607 19 l 710 50 q 739 83 739 58 q 735 103 739 93 l 657 306 l 276 306 l 199 103 q 194 85 194 93 q 225 50 194 58 l 332 19 l 332 0 l 24 0 l 24 19 l 97 49 q 135 90 124 60 l 483 981 l 565 981 l 913 90 q 949 47 922 60 l 1013 19 m 638 353 l 467 796 l 296 353 l 638 353 m 524 1043 q 394 1099 440 1043 q 343 1249 347 1154 l 382 1249 q 428 1163 390 1193 q 524 1132 467 1132 q 622 1163 582 1132 q 668 1249 661 1194 l 706 1249 q 654 1099 701 1154 q 524 1043 607 1043 z "},"ă":{"ha":732,"x_min":42,"x_max":704,"o":"m 704 50 l 704 31 l 483 -17 l 450 -17 l 450 115 q 239 -17 372 -17 q 98 36 154 -17 q 42 171 42 89 q 117 328 42 267 q 347 407 193 390 l 450 418 l 450 472 q 418 623 450 568 q 325 678 386 678 q 228 628 261 678 q 199 499 196 578 l 46 499 q 144 663 57 606 q 351 719 232 719 q 542 649 478 719 q 606 451 606 578 l 606 115 q 639 68 606 79 l 704 50 m 319 82 q 450 168 403 82 l 450 379 l 363 364 q 204 200 204 338 q 237 115 204 149 q 319 82 269 82 m 344 774 q 215 829 261 774 q 164 979 168 885 l 203 979 q 249 893 211 924 q 344 863 288 863 q 442 894 403 863 q 489 979 482 925 l 526 979 q 475 829 522 885 q 344 774 428 774 z "},"Ą":{"ha":1036,"x_min":24,"x_max":1013,"o":"m 906 0 q 838 -86 857 -51 q 818 -164 818 -121 q 838 -221 818 -200 q 893 -242 858 -242 q 967 -224 926 -242 l 976 -246 q 904 -287 947 -272 q 824 -303 861 -303 q 722 -276 760 -303 q 685 -204 685 -250 q 727 -103 685 -149 q 858 0 769 -57 l 607 0 l 607 19 l 710 50 q 739 83 739 58 q 735 103 739 93 l 657 306 l 276 306 l 199 103 q 194 85 194 93 q 225 50 194 58 l 332 19 l 332 0 l 24 0 l 24 19 l 97 49 q 135 90 124 60 l 483 981 l 565 981 l 913 90 q 949 47 922 60 l 1013 19 l 1013 0 l 906 0 m 638 353 l 467 796 l 296 353 l 638 353 z "},"ą":{"ha":732,"x_min":42,"x_max":704,"o":"m 517 -10 q 463 -84 479 -51 q 447 -154 447 -117 q 467 -211 447 -190 q 522 -232 488 -232 q 596 -214 556 -232 l 606 -236 q 533 -278 576 -262 q 453 -293 490 -293 q 351 -267 389 -293 q 314 -194 314 -240 q 348 -103 314 -144 q 450 -15 382 -62 l 450 115 q 239 -17 372 -17 q 98 36 154 -17 q 42 171 42 89 q 117 328 42 267 q 347 407 193 390 l 450 418 l 450 472 q 418 623 450 568 q 325 678 386 678 q 228 628 261 678 q 199 499 196 578 l 46 499 q 144 663 57 606 q 351 719 232 719 q 542 649 478 719 q 606 451 606 578 l 606 115 q 639 68 606 79 l 704 50 l 704 31 l 517 -10 m 319 82 q 450 168 403 82 l 450 379 l 363 364 q 204 200 204 338 q 237 115 204 149 q 319 82 269 82 z "},"Ć":{"ha":922,"x_min":44,"x_max":874,"o":"m 44 482 q 110 740 44 624 q 290 922 175 856 q 544 989 404 989 q 712 971 629 989 q 846 922 794 953 l 846 729 l 825 729 q 717 884 797 825 q 531 943 636 943 q 299 831 379 943 q 218 522 218 719 q 259 292 218 392 q 374 137 300 192 q 544 82 449 82 q 735 132 657 82 q 853 260 814 182 l 874 249 q 744 63 832 142 q 503 -17 657 -17 q 264 49 368 -17 q 102 228 160 114 q 44 482 44 342 m 488 1054 l 585 1257 l 722 1257 l 533 1054 l 488 1054 z "},"ć":{"ha":686,"x_min":43,"x_max":660,"o":"m 576 482 q 505 625 560 572 q 378 678 450 678 q 241 601 289 678 q 193 410 193 525 q 222 242 193 315 q 302 126 250 168 q 424 85 354 85 q 638 206 565 85 l 660 196 q 549 38 622 93 q 368 -17 475 -17 q 195 31 269 -17 q 82 160 121 79 q 43 340 43 242 q 84 531 43 444 q 203 668 125 617 q 389 719 282 719 q 506 705 446 719 q 597 668 565 690 l 597 482 l 576 482 m 328 785 l 425 988 l 563 988 l 374 785 l 328 785 z "},"Ĉ":{"ha":922,"x_min":44,"x_max":874,"o":"m 44 482 q 110 740 44 624 q 290 922 175 856 q 544 989 404 989 q 712 971 629 989 q 846 922 794 953 l 846 729 l 825 729 q 717 884 797 825 q 531 943 636 943 q 299 831 379 943 q 218 522 218 719 q 259 292 218 392 q 374 137 300 192 q 544 82 449 82 q 735 132 657 82 q 853 260 814 182 l 874 249 q 744 63 832 142 q 503 -17 657 -17 q 264 49 368 -17 q 102 228 160 114 q 44 482 44 342 m 679 1054 l 524 1192 l 369 1054 l 319 1054 l 449 1257 l 597 1257 l 735 1054 l 679 1054 z "},"ĉ":{"ha":686,"x_min":43,"x_max":660,"o":"m 576 482 q 505 625 560 572 q 378 678 450 678 q 241 601 289 678 q 193 410 193 525 q 222 242 193 315 q 302 126 250 168 q 424 85 354 85 q 638 206 565 85 l 660 196 q 549 38 622 93 q 368 -17 475 -17 q 195 31 269 -17 q 82 160 121 79 q 43 340 43 242 q 84 531 43 444 q 203 668 125 617 q 389 719 282 719 q 506 705 446 719 q 597 668 565 690 l 597 482 l 576 482 m 521 785 l 365 922 l 211 785 l 161 785 l 290 988 l 439 988 l 576 785 l 521 785 z "},"Ċ":{"ha":922,"x_min":44,"x_max":874,"o":"m 44 482 q 110 740 44 624 q 290 922 175 856 q 544 989 404 989 q 712 971 629 989 q 846 922 794 953 l 846 729 l 825 729 q 717 884 797 825 q 531 943 636 943 q 299 831 379 943 q 218 522 218 719 q 259 292 218 392 q 374 137 300 192 q 544 82 449 82 q 735 132 657 82 q 853 260 814 182 l 874 249 q 744 63 832 142 q 503 -17 657 -17 q 264 49 368 -17 q 102 228 160 114 q 44 482 44 342 m 528 1075 q 453 1103 483 1075 q 422 1175 422 1132 q 453 1244 422 1217 q 528 1272 483 1272 q 602 1244 572 1272 q 632 1175 632 1217 q 602 1103 632 1132 q 528 1075 572 1075 z "},"ċ":{"ha":686,"x_min":43,"x_max":660,"o":"m 576 482 q 505 625 560 572 q 378 678 450 678 q 241 601 289 678 q 193 410 193 525 q 222 242 193 315 q 302 126 250 168 q 424 85 354 85 q 638 206 565 85 l 660 196 q 549 38 622 93 q 368 -17 475 -17 q 195 31 269 -17 q 82 160 121 79 q 43 340 43 242 q 84 531 43 444 q 203 668 125 617 q 389 719 282 719 q 506 705 446 719 q 597 668 565 690 l 597 482 l 576 482 m 368 806 q 293 834 324 806 q 263 906 263 863 q 293 975 263 947 q 368 1003 324 1003 q 442 975 413 1003 q 472 906 472 947 q 442 834 472 863 q 368 806 413 806 z "},"Č":{"ha":922,"x_min":44,"x_max":874,"o":"m 44 482 q 110 740 44 624 q 290 922 175 856 q 544 989 404 989 q 712 971 629 989 q 846 922 794 953 l 846 729 l 825 729 q 717 884 797 825 q 531 943 636 943 q 299 831 379 943 q 218 522 218 719 q 259 292 218 392 q 374 137 300 192 q 544 82 449 82 q 735 132 657 82 q 853 260 814 182 l 874 249 q 744 63 832 142 q 503 -17 657 -17 q 264 49 368 -17 q 102 228 160 114 q 44 482 44 342 m 735 1257 l 597 1054 l 449 1054 l 319 1257 l 369 1257 l 524 1119 l 679 1257 l 735 1257 z "},"č":{"ha":686,"x_min":43,"x_max":660,"o":"m 576 482 q 505 625 560 572 q 378 678 450 678 q 241 601 289 678 q 193 410 193 525 q 222 242 193 315 q 302 126 250 168 q 424 85 354 85 q 638 206 565 85 l 660 196 q 549 38 622 93 q 368 -17 475 -17 q 195 31 269 -17 q 82 160 121 79 q 43 340 43 242 q 84 531 43 444 q 203 668 125 617 q 389 719 282 719 q 506 705 446 719 q 597 668 565 690 l 597 482 l 576 482 m 575 988 l 438 785 l 289 785 l 160 988 l 210 988 l 364 850 l 519 988 l 575 988 z "},"Ď":{"ha":1001,"x_min":40,"x_max":963,"o":"m 450 972 q 739 911 624 972 q 908 747 854 850 q 963 519 963 644 q 894 242 963 360 q 713 62 826 124 q 471 0 600 0 l 40 0 l 40 19 l 131 54 q 163 103 163 67 l 163 869 q 131 917 163 904 l 40 953 l 40 972 l 450 972 m 471 47 q 704 163 621 47 q 788 486 788 278 q 746 701 788 600 q 622 863 704 801 q 426 925 540 925 l 325 925 l 325 136 q 358 68 325 89 q 471 47 390 47 m 675 1257 l 538 1054 l 389 1054 l 260 1257 l 310 1257 l 464 1119 l 619 1257 l 675 1257 z "},"ď":{"ha":856,"x_min":40,"x_max":890,"o":"m 792 50 l 792 31 l 571 -17 l 538 -17 l 538 92 q 449 15 503 47 q 331 -17 394 -17 q 176 30 242 -17 q 75 155 110 76 q 40 328 40 233 q 87 536 40 447 q 213 672 133 625 q 388 719 292 719 q 538 668 478 719 l 538 857 q 503 904 538 894 l 438 922 l 438 942 l 658 989 l 692 989 l 692 115 q 726 68 692 78 l 792 50 m 388 64 q 470 81 431 64 q 538 128 510 99 l 538 453 q 497 611 538 544 q 378 678 457 678 q 287 638 326 678 q 225 531 247 599 q 203 379 203 463 q 223 228 203 300 q 285 110 243 156 q 388 64 326 64 m 756 785 l 783 1039 l 890 1039 l 793 785 l 756 785 z "},"Đ":{"ha":1001,"x_min":32,"x_max":963,"o":"m 450 972 q 739 911 624 972 q 908 747 854 850 q 963 519 963 644 q 894 242 963 360 q 713 62 826 124 q 471 0 600 0 l 40 0 l 40 19 l 131 54 q 163 103 163 67 l 163 465 l 32 465 l 32 507 l 163 507 l 163 869 q 131 917 163 904 l 40 953 l 40 972 l 450 972 m 471 47 q 704 163 621 47 q 788 486 788 278 q 746 701 788 600 q 622 863 704 801 q 426 925 540 925 l 325 925 l 325 507 l 482 507 l 482 465 l 325 465 l 325 136 q 358 68 325 89 q 471 47 390 47 z "},"đ":{"ha":826,"x_min":40,"x_max":794,"o":"m 692 115 q 726 68 692 78 l 792 50 l 792 31 l 571 -17 l 538 -17 l 538 92 q 449 15 503 47 q 331 -17 394 -17 q 176 30 242 -17 q 75 155 110 76 q 40 328 40 233 q 87 536 40 447 q 213 672 133 625 q 388 719 292 719 q 538 668 478 719 l 538 796 l 344 796 l 344 838 l 538 838 l 538 857 q 503 904 538 894 l 438 922 l 438 942 l 658 989 l 692 989 l 692 838 l 794 838 l 794 796 l 692 796 l 692 115 m 538 453 q 497 611 538 544 q 378 678 457 678 q 287 638 326 678 q 225 531 247 599 q 203 379 203 463 q 223 228 203 300 q 285 110 243 156 q 388 64 326 64 q 470 81 431 64 q 538 128 510 99 l 538 453 z "},"Ē":{"ha":863,"x_min":40,"x_max":831,"o":"m 831 232 l 788 0 l 40 0 l 40 19 l 128 49 q 163 94 163 57 l 163 878 q 128 924 163 915 l 40 953 l 40 972 l 765 972 l 808 740 l 788 740 l 679 894 q 658 917 668 910 q 632 925 647 925 l 326 925 l 326 556 l 515 556 q 563 589 549 556 l 606 693 l 626 693 l 626 371 l 606 371 l 563 475 q 515 508 549 508 l 326 508 l 326 94 q 340 60 326 72 q 376 47 353 47 l 654 47 q 680 55 669 47 q 703 78 690 63 l 810 232 l 831 232 m 243 1153 l 632 1153 l 632 1106 l 243 1106 l 243 1153 z "},"ē":{"ha":713,"x_min":43,"x_max":667,"o":"m 447 101 q 560 132 508 101 q 642 211 611 163 l 663 201 q 556 45 633 107 q 365 -17 478 -17 q 192 31 265 -17 q 81 159 119 79 q 43 333 43 239 q 86 539 43 451 q 207 673 129 626 q 385 719 285 719 q 594 635 524 719 q 667 403 665 550 l 194 403 q 230 240 196 308 q 321 137 264 172 q 447 101 378 101 m 363 676 q 245 615 289 676 q 196 444 201 553 l 507 444 q 467 617 501 557 q 363 676 433 676 m 179 883 l 568 883 l 568 836 l 179 836 l 179 883 z "},"Ĕ":{"ha":863,"x_min":40,"x_max":831,"o":"m 831 232 l 788 0 l 40 0 l 40 19 l 128 49 q 163 94 163 57 l 163 878 q 128 924 163 915 l 40 953 l 40 972 l 765 972 l 808 740 l 788 740 l 679 894 q 658 917 668 910 q 632 925 647 925 l 326 925 l 326 556 l 515 556 q 563 589 549 556 l 606 693 l 626 693 l 626 371 l 606 371 l 563 475 q 515 508 549 508 l 326 508 l 326 94 q 340 60 326 72 q 376 47 353 47 l 654 47 q 680 55 669 47 q 703 78 690 63 l 810 232 l 831 232 m 438 1043 q 308 1099 354 1043 q 257 1249 261 1154 l 296 1249 q 342 1163 304 1193 q 438 1132 381 1132 q 535 1163 496 1132 q 582 1249 575 1194 l 619 1249 q 568 1099 615 1154 q 438 1043 521 1043 z "},"ĕ":{"ha":713,"x_min":43,"x_max":667,"o":"m 447 101 q 560 132 508 101 q 642 211 611 163 l 663 201 q 556 45 633 107 q 365 -17 478 -17 q 192 31 265 -17 q 81 159 119 79 q 43 333 43 239 q 86 539 43 451 q 207 673 129 626 q 385 719 285 719 q 594 635 524 719 q 667 403 665 550 l 194 403 q 230 240 196 308 q 321 137 264 172 q 447 101 378 101 m 363 676 q 245 615 289 676 q 196 444 201 553 l 507 444 q 467 617 501 557 q 363 676 433 676 m 374 774 q 244 829 290 774 q 193 979 197 885 l 232 979 q 278 893 240 924 q 374 863 317 863 q 472 894 432 863 q 518 979 511 925 l 556 979 q 504 829 551 885 q 374 774 457 774 z "},"Ė":{"ha":863,"x_min":40,"x_max":831,"o":"m 831 232 l 788 0 l 40 0 l 40 19 l 128 49 q 163 94 163 57 l 163 878 q 128 924 163 915 l 40 953 l 40 972 l 765 972 l 808 740 l 788 740 l 679 894 q 658 917 668 910 q 632 925 647 925 l 326 925 l 326 556 l 515 556 q 563 589 549 556 l 606 693 l 626 693 l 626 371 l 606 371 l 563 475 q 515 508 549 508 l 326 508 l 326 94 q 340 60 326 72 q 376 47 353 47 l 654 47 q 680 55 669 47 q 703 78 690 63 l 810 232 l 831 232 m 438 1075 q 363 1103 393 1075 q 332 1175 332 1132 q 363 1244 332 1217 q 438 1272 393 1272 q 512 1244 482 1272 q 542 1175 542 1217 q 512 1103 542 1132 q 438 1075 482 1075 z "},"ė":{"ha":713,"x_min":43,"x_max":667,"o":"m 447 101 q 560 132 508 101 q 642 211 611 163 l 663 201 q 556 45 633 107 q 365 -17 478 -17 q 192 31 265 -17 q 81 159 119 79 q 43 333 43 239 q 86 539 43 451 q 207 673 129 626 q 385 719 285 719 q 594 635 524 719 q 667 403 665 550 l 194 403 q 230 240 196 308 q 321 137 264 172 q 447 101 378 101 m 363 676 q 245 615 289 676 q 196 444 201 553 l 507 444 q 467 617 501 557 q 363 676 433 676 m 375 806 q 300 834 331 806 q 269 906 269 863 q 300 975 269 947 q 375 1003 331 1003 q 449 975 419 1003 q 479 906 479 947 q 449 834 479 863 q 375 806 419 806 z "},"Ę":{"ha":863,"x_min":40,"x_max":831,"o":"m 692 0 q 630 -83 649 -49 q 611 -157 611 -117 q 631 -214 611 -193 q 686 -235 651 -235 q 760 -217 719 -235 l 769 -239 q 697 -280 740 -265 q 618 -294 654 -294 q 516 -269 553 -294 q 479 -197 479 -243 q 518 -99 479 -143 q 640 0 557 -54 l 40 0 l 40 19 l 128 49 q 163 94 163 57 l 163 878 q 128 924 163 915 l 40 953 l 40 972 l 765 972 l 808 740 l 788 740 l 679 894 q 658 917 668 910 q 632 925 647 925 l 326 925 l 326 556 l 515 556 q 563 589 549 556 l 606 693 l 626 693 l 626 371 l 606 371 l 563 475 q 515 508 549 508 l 326 508 l 326 94 q 340 60 326 72 q 376 47 353 47 l 654 47 q 680 55 669 47 q 703 78 690 63 l 810 232 l 831 232 l 788 0 l 692 0 z "},"ę":{"ha":713,"x_min":43,"x_max":667,"o":"m 663 201 q 618 111 647 153 q 549 40 589 69 q 460 -67 485 -28 q 435 -153 435 -106 q 455 -210 435 -189 q 510 -231 475 -231 q 582 -212 542 -231 l 593 -235 q 521 -276 564 -261 q 440 -292 478 -292 q 339 -265 376 -292 q 301 -193 301 -239 q 337 -100 301 -142 q 447 -7 372 -58 q 365 -17 413 -17 q 192 31 265 -17 q 81 159 119 79 q 43 333 43 239 q 86 539 43 451 q 207 673 129 626 q 385 719 285 719 q 594 635 524 719 q 667 403 665 550 l 194 403 q 230 240 196 308 q 321 137 264 172 q 447 101 378 101 q 560 132 508 101 q 642 211 611 163 l 663 201 m 363 676 q 245 615 289 676 q 196 444 201 553 l 507 444 q 467 617 501 557 q 363 676 433 676 z "},"Ě":{"ha":863,"x_min":40,"x_max":831,"o":"m 831 232 l 788 0 l 40 0 l 40 19 l 128 49 q 163 94 163 57 l 163 878 q 128 924 163 915 l 40 953 l 40 972 l 765 972 l 808 740 l 788 740 l 679 894 q 658 917 668 910 q 632 925 647 925 l 326 925 l 326 556 l 515 556 q 563 589 549 556 l 606 693 l 626 693 l 626 371 l 606 371 l 563 475 q 515 508 549 508 l 326 508 l 326 94 q 340 60 326 72 q 376 47 353 47 l 654 47 q 680 55 669 47 q 703 78 690 63 l 810 232 l 831 232 m 646 1257 l 508 1054 l 360 1054 l 231 1257 l 281 1257 l 435 1119 l 590 1257 l 646 1257 z "},"ě":{"ha":713,"x_min":43,"x_max":667,"o":"m 447 101 q 560 132 508 101 q 642 211 611 163 l 663 201 q 556 45 633 107 q 365 -17 478 -17 q 192 31 265 -17 q 81 159 119 79 q 43 333 43 239 q 86 539 43 451 q 207 673 129 626 q 385 719 285 719 q 594 635 524 719 q 667 403 665 550 l 194 403 q 230 240 196 308 q 321 137 264 172 q 447 101 378 101 m 363 676 q 245 615 289 676 q 196 444 201 553 l 507 444 q 467 617 501 557 q 363 676 433 676 m 582 988 l 444 785 l 296 785 l 167 988 l 217 988 l 371 850 l 526 988 l 582 988 z "},"Ĝ":{"ha":1014,"x_min":44,"x_max":988,"o":"m 819 729 q 707 885 785 828 q 532 943 629 943 q 371 899 442 943 q 259 765 300 856 q 218 543 218 675 q 261 294 218 410 q 381 108 304 178 q 554 38 458 38 q 693 78 643 38 q 743 178 743 118 l 743 403 q 713 451 743 442 l 613 478 l 613 499 l 988 499 l 988 478 l 921 451 q 889 403 889 438 l 889 226 q 900 196 889 207 q 931 185 911 185 l 972 185 l 972 164 q 738 29 847 72 q 507 -14 628 -14 q 267 49 372 -14 q 103 220 161 111 q 44 465 44 329 q 109 737 44 618 q 286 922 174 856 q 540 989 399 989 q 701 972 622 989 q 840 922 781 954 l 840 729 l 819 729 m 688 1054 l 532 1192 l 378 1054 l 328 1054 l 457 1257 l 606 1257 l 743 1054 l 688 1054 z "},"ĝ":{"ha":718,"x_min":33,"x_max":685,"o":"m 446 135 q 620 82 556 121 q 685 -42 685 43 q 637 -158 685 -107 q 507 -239 589 -210 q 324 -268 425 -268 q 111 -222 189 -268 q 33 -99 33 -176 q 77 -6 33 -43 q 183 51 121 32 q 118 99 140 68 q 96 168 96 129 q 163 290 96 242 q 80 369 110 321 q 50 481 50 417 q 86 603 50 549 q 189 689 122 658 q 344 719 256 719 q 513 681 442 719 l 622 803 l 661 767 l 551 656 q 635 481 635 588 q 599 359 635 413 q 498 275 564 306 q 344 244 432 244 q 189 276 260 244 q 168 219 168 250 q 251 157 168 167 l 446 135 m 332 682 q 245 632 279 682 q 211 504 211 582 q 253 343 211 406 q 358 281 296 281 q 444 332 411 281 q 476 463 476 383 q 457 576 476 526 q 405 654 438 626 q 332 682 372 682 m 346 -225 q 492 -185 436 -225 q 547 -85 547 -144 q 515 -17 547 -40 q 417 15 483 6 l 246 36 q 210 43 231 38 q 171 -68 171 -4 q 221 -181 171 -136 q 346 -225 271 -225 m 506 785 l 350 922 l 196 785 l 146 785 l 275 988 l 424 988 l 561 785 l 506 785 z "},"Ğ":{"ha":1014,"x_min":44,"x_max":988,"o":"m 819 729 q 707 885 785 828 q 532 943 629 943 q 371 899 442 943 q 259 765 300 856 q 218 543 218 675 q 261 294 218 410 q 381 108 304 178 q 554 38 458 38 q 693 78 643 38 q 743 178 743 118 l 743 403 q 713 451 743 442 l 613 478 l 613 499 l 988 499 l 988 478 l 921 451 q 889 403 889 438 l 889 226 q 900 196 889 207 q 931 185 911 185 l 972 185 l 972 164 q 738 29 847 72 q 507 -14 628 -14 q 267 49 372 -14 q 103 220 161 111 q 44 465 44 329 q 109 737 44 618 q 286 922 174 856 q 540 989 399 989 q 701 972 622 989 q 840 922 781 954 l 840 729 l 819 729 m 533 1043 q 403 1099 450 1043 q 353 1249 357 1154 l 392 1249 q 438 1163 400 1193 q 533 1132 476 1132 q 631 1163 592 1132 q 678 1249 671 1194 l 715 1249 q 664 1099 711 1154 q 533 1043 617 1043 z "},"ğ":{"ha":718,"x_min":33,"x_max":685,"o":"m 446 135 q 620 82 556 121 q 685 -42 685 43 q 637 -158 685 -107 q 507 -239 589 -210 q 324 -268 425 -268 q 111 -222 189 -268 q 33 -99 33 -176 q 77 -6 33 -43 q 183 51 121 32 q 118 99 140 68 q 96 168 96 129 q 163 290 96 242 q 80 369 110 321 q 50 481 50 417 q 86 603 50 549 q 189 689 122 658 q 344 719 256 719 q 513 681 442 719 l 622 803 l 661 767 l 551 656 q 635 481 635 588 q 599 359 635 413 q 498 275 564 306 q 344 244 432 244 q 189 276 260 244 q 168 219 168 250 q 251 157 168 167 l 446 135 m 332 682 q 245 632 279 682 q 211 504 211 582 q 253 343 211 406 q 358 281 296 281 q 444 332 411 281 q 476 463 476 383 q 457 576 476 526 q 405 654 438 626 q 332 682 372 682 m 346 -225 q 492 -185 436 -225 q 547 -85 547 -144 q 515 -17 547 -40 q 417 15 483 6 l 246 36 q 210 43 231 38 q 171 -68 171 -4 q 221 -181 171 -136 q 346 -225 271 -225 m 351 774 q 222 829 268 774 q 171 979 175 885 l 210 979 q 256 893 218 924 q 351 863 294 863 q 449 894 410 863 q 496 979 489 925 l 533 979 q 482 829 529 885 q 351 774 435 774 z "},"Ġ":{"ha":1014,"x_min":44,"x_max":988,"o":"m 819 729 q 707 885 785 828 q 532 943 629 943 q 371 899 442 943 q 259 765 300 856 q 218 543 218 675 q 261 294 218 410 q 381 108 304 178 q 554 38 458 38 q 693 78 643 38 q 743 178 743 118 l 743 403 q 713 451 743 442 l 613 478 l 613 499 l 988 499 l 988 478 l 921 451 q 889 403 889 438 l 889 226 q 900 196 889 207 q 931 185 911 185 l 972 185 l 972 164 q 738 29 847 72 q 507 -14 628 -14 q 267 49 372 -14 q 103 220 161 111 q 44 465 44 329 q 109 737 44 618 q 286 922 174 856 q 540 989 399 989 q 701 972 622 989 q 840 922 781 954 l 840 729 l 819 729 m 535 1075 q 460 1103 490 1075 q 429 1175 429 1132 q 460 1244 429 1217 q 535 1272 490 1272 q 609 1244 579 1272 q 639 1175 639 1217 q 609 1103 639 1132 q 535 1075 579 1075 z "},"ġ":{"ha":718,"x_min":33,"x_max":685,"o":"m 446 135 q 620 82 556 121 q 685 -42 685 43 q 637 -158 685 -107 q 507 -239 589 -210 q 324 -268 425 -268 q 111 -222 189 -268 q 33 -99 33 -176 q 77 -6 33 -43 q 183 51 121 32 q 118 99 140 68 q 96 168 96 129 q 163 290 96 242 q 80 369 110 321 q 50 481 50 417 q 86 603 50 549 q 189 689 122 658 q 344 719 256 719 q 513 681 442 719 l 622 803 l 661 767 l 551 656 q 635 481 635 588 q 599 359 635 413 q 498 275 564 306 q 344 244 432 244 q 189 276 260 244 q 168 219 168 250 q 251 157 168 167 l 446 135 m 332 682 q 245 632 279 682 q 211 504 211 582 q 253 343 211 406 q 358 281 296 281 q 444 332 411 281 q 476 463 476 383 q 457 576 476 526 q 405 654 438 626 q 332 682 372 682 m 346 -225 q 492 -185 436 -225 q 547 -85 547 -144 q 515 -17 547 -40 q 417 15 483 6 l 246 36 q 210 43 231 38 q 171 -68 171 -4 q 221 -181 171 -136 q 346 -225 271 -225 m 353 806 q 278 834 308 806 q 247 906 247 863 q 278 975 247 947 q 353 1003 308 1003 q 427 975 397 1003 q 457 906 457 947 q 427 834 457 863 q 353 806 397 806 z "},"Ģ":{"ha":1014,"x_min":44,"x_max":988,"o":"m 819 729 q 707 885 785 828 q 532 943 629 943 q 371 899 442 943 q 259 765 300 856 q 218 543 218 675 q 261 294 218 410 q 381 108 304 178 q 554 38 458 38 q 693 78 643 38 q 743 178 743 118 l 743 403 q 713 451 743 442 l 613 478 l 613 499 l 988 499 l 988 478 l 921 451 q 889 403 889 438 l 889 226 q 900 196 889 207 q 931 185 911 185 l 972 185 l 972 164 q 738 29 847 72 q 507 -14 628 -14 q 267 49 372 -14 q 103 220 161 111 q 44 465 44 329 q 109 737 44 618 q 286 922 174 856 q 540 989 399 989 q 701 972 622 989 q 840 922 781 954 l 840 729 l 819 729 m 600 -75 q 449 -311 600 -204 l 428 -294 q 460 -230 449 -267 q 471 -156 471 -193 q 451 -65 471 -104 l 599 -54 l 600 -75 z "},"ģ":{"ha":718,"x_min":33,"x_max":685,"o":"m 446 135 q 620 82 556 121 q 685 -42 685 43 q 637 -158 685 -107 q 507 -239 589 -210 q 324 -268 425 -268 q 111 -222 189 -268 q 33 -99 33 -176 q 77 -6 33 -43 q 183 51 121 32 q 118 99 140 68 q 96 168 96 129 q 163 290 96 242 q 80 369 110 321 q 50 481 50 417 q 86 603 50 549 q 189 689 122 658 q 344 719 256 719 q 513 681 442 719 l 622 803 l 661 767 l 551 656 q 635 481 635 588 q 599 359 635 413 q 498 275 564 306 q 344 244 432 244 q 189 276 260 244 q 168 219 168 250 q 251 157 168 167 l 446 135 m 332 682 q 245 632 279 682 q 211 504 211 582 q 253 343 211 406 q 358 281 296 281 q 444 332 411 281 q 476 463 476 383 q 457 576 476 526 q 405 654 438 626 q 332 682 372 682 m 346 -225 q 492 -185 436 -225 q 547 -85 547 -144 q 515 -17 547 -40 q 417 15 483 6 l 246 36 q 210 43 231 38 q 171 -68 171 -4 q 221 -181 171 -136 q 346 -225 271 -225 m 288 831 q 440 1067 288 960 l 461 1050 q 429 985 440 1022 q 418 911 418 949 q 438 821 418 856 l 289 810 l 288 831 z "},"Ĥ":{"ha":1099,"x_min":40,"x_max":1060,"o":"m 971 924 q 938 878 938 915 l 938 94 q 971 49 938 57 l 1060 19 l 1060 0 l 651 0 l 651 19 l 739 49 q 774 94 774 57 l 774 468 l 326 468 l 326 94 q 360 49 326 57 l 449 19 l 449 0 l 40 0 l 40 19 l 128 49 q 163 94 163 57 l 163 878 q 128 924 163 915 l 40 953 l 40 972 l 449 972 l 449 953 l 360 924 q 326 878 326 915 l 326 515 l 774 515 l 774 878 q 739 924 774 915 l 651 953 l 651 972 l 1060 972 l 1060 953 l 971 924 m 703 1054 l 547 1192 l 393 1054 l 343 1054 l 472 1257 l 621 1257 l 758 1054 l 703 1054 z "},"ĥ":{"ha":860,"x_min":4,"x_max":825,"o":"m 825 19 l 825 0 l 482 0 l 482 19 l 542 39 q 575 85 575 50 l 575 536 q 557 602 575 579 q 504 625 539 625 q 413 606 457 625 q 289 542 368 588 l 289 85 q 324 39 289 49 l 383 19 l 383 0 l 40 0 l 40 19 l 100 39 q 133 85 133 49 l 133 857 q 100 904 133 894 l 35 922 l 35 942 l 256 989 l 289 989 l 289 585 q 472 689 400 657 q 600 721 544 721 q 697 676 663 721 q 731 544 731 631 l 731 85 q 765 39 731 49 l 825 19 m 364 1011 l 208 1149 l 54 1011 l 4 1011 l 133 1214 l 282 1214 l 419 1011 l 364 1011 z "},"Ħ":{"ha":1099,"x_min":33,"x_max":1065,"o":"m 938 700 l 938 94 q 971 49 938 57 l 1060 19 l 1060 0 l 651 0 l 651 19 l 739 49 q 774 94 774 57 l 774 468 l 326 468 l 326 94 q 360 49 326 57 l 449 19 l 449 0 l 40 0 l 40 19 l 128 49 q 163 94 163 57 l 163 700 l 33 700 l 33 744 l 163 744 l 163 878 q 128 924 163 915 l 40 953 l 40 972 l 449 972 l 449 953 l 360 924 q 326 878 326 915 l 326 744 l 774 744 l 774 878 q 739 924 774 915 l 651 953 l 651 972 l 1060 972 l 1060 953 l 971 924 q 938 878 938 915 l 938 744 l 1065 744 l 1065 700 l 938 700 m 774 700 l 326 700 l 326 515 l 774 515 l 774 700 z "},"ħ":{"ha":860,"x_min":6,"x_max":825,"o":"m 825 19 l 825 0 l 482 0 l 482 19 l 542 39 q 575 85 575 50 l 575 536 q 557 602 575 579 q 504 625 539 625 q 413 606 457 625 q 289 542 368 588 l 289 85 q 324 39 289 49 l 383 19 l 383 0 l 40 0 l 40 19 l 100 39 q 133 85 133 49 l 133 796 l 6 796 l 6 838 l 133 838 l 133 857 q 100 904 133 894 l 35 922 l 35 942 l 256 989 l 289 989 l 289 838 l 456 838 l 456 796 l 289 796 l 289 585 q 472 689 400 657 q 600 721 544 721 q 697 676 663 721 q 731 544 731 631 l 731 85 q 765 39 731 49 l 825 19 z "},"Ĩ":{"ha":489,"x_min":26,"x_max":460,"o":"m 40 19 l 128 49 q 163 94 163 57 l 163 878 q 128 924 163 915 l 40 953 l 40 972 l 449 972 l 449 953 l 360 924 q 326 878 326 915 l 326 94 q 360 49 326 57 l 449 19 l 449 0 l 40 0 l 40 19 m 26 1076 q 68 1194 31 1147 q 157 1242 106 1242 q 274 1203 196 1242 q 328 1179 307 1188 q 367 1171 350 1171 q 405 1189 390 1171 q 431 1247 419 1207 l 460 1240 q 418 1121 454 1168 q 332 1074 382 1074 q 276 1083 303 1074 q 211 1111 250 1093 q 156 1135 175 1128 q 117 1142 136 1142 q 79 1125 93 1142 q 56 1069 65 1108 l 26 1076 z "},"ĩ":{"ha":418,"x_min":-29,"x_max":404,"o":"m 383 19 l 383 0 l 40 0 l 40 19 l 100 39 q 133 85 133 49 l 133 588 q 100 633 133 625 l 35 651 l 35 672 l 256 719 l 289 719 l 289 85 q 324 39 289 49 l 383 19 m -29 808 q 13 926 -25 879 q 101 974 50 974 q 218 935 140 974 q 273 911 251 919 q 311 903 294 903 q 349 921 335 903 q 375 979 364 939 l 404 972 q 363 853 399 900 q 276 806 326 806 q 221 815 247 806 q 156 843 194 825 q 100 867 119 860 q 61 874 81 874 q 24 857 38 874 q 0 801 10 840 l -29 808 z "},"Ī":{"ha":489,"x_min":40,"x_max":449,"o":"m 40 19 l 128 49 q 163 94 163 57 l 163 878 q 128 924 163 915 l 40 953 l 40 972 l 449 972 l 449 953 l 360 924 q 326 878 326 915 l 326 94 q 360 49 326 57 l 449 19 l 449 0 l 40 0 l 40 19 m 50 1153 l 439 1153 l 439 1106 l 50 1106 l 50 1153 z "},"ī":{"ha":418,"x_min":-7,"x_max":383,"o":"m 383 19 l 383 0 l 40 0 l 40 19 l 100 39 q 133 85 133 49 l 133 588 q 100 633 133 625 l 35 651 l 35 672 l 256 719 l 289 719 l 289 85 q 324 39 289 49 l 383 19 m -7 885 l 382 885 l 382 838 l -7 838 l -7 885 z "},"Ĭ":{"ha":489,"x_min":40,"x_max":449,"o":"m 40 19 l 128 49 q 163 94 163 57 l 163 878 q 128 924 163 915 l 40 953 l 40 972 l 449 972 l 449 953 l 360 924 q 326 878 326 915 l 326 94 q 360 49 326 57 l 449 19 l 449 0 l 40 0 l 40 19 m 243 1043 q 113 1099 160 1043 q 63 1249 67 1154 l 101 1249 q 148 1163 110 1193 q 243 1132 186 1132 q 341 1163 301 1132 q 388 1249 381 1194 l 425 1249 q 374 1099 421 1154 q 243 1043 326 1043 z "},"ĭ":{"ha":418,"x_min":7,"x_max":383,"o":"m 383 19 l 383 0 l 40 0 l 40 19 l 100 39 q 133 85 133 49 l 133 588 q 100 633 133 625 l 35 651 l 35 672 l 256 719 l 289 719 l 289 85 q 324 39 289 49 l 383 19 m 188 775 q 58 831 104 775 q 7 981 11 886 l 46 981 q 92 894 54 925 q 188 864 131 864 q 285 895 246 864 q 332 981 325 926 l 369 981 q 318 831 365 886 q 188 775 271 775 z "},"Į":{"ha":489,"x_min":40,"x_max":449,"o":"m 360 924 q 326 878 326 915 l 326 94 q 360 49 326 57 l 449 19 l 449 0 l 303 0 q 240 -83 258 -49 q 221 -157 221 -117 q 241 -214 221 -193 q 296 -235 261 -235 q 369 -217 329 -235 l 381 -239 q 308 -280 351 -265 q 228 -294 265 -294 q 126 -269 163 -294 q 89 -197 89 -243 q 128 -99 89 -143 q 250 0 167 -54 l 40 0 l 40 19 l 128 49 q 163 94 163 57 l 163 878 q 128 924 163 915 l 40 953 l 40 972 l 449 972 l 449 953 l 360 924 z "},"į":{"ha":418,"x_min":35,"x_max":422,"o":"m 189 807 q 114 835 144 807 q 83 907 83 864 q 114 976 83 949 q 189 1004 144 1004 q 264 976 233 1004 q 294 907 294 949 q 264 835 294 864 q 189 807 233 807 m 422 -240 q 353 -281 394 -265 q 275 -296 311 -296 q 172 -266 211 -296 q 133 -187 133 -236 q 190 -82 133 -126 q 338 0 246 -37 l 40 0 l 40 19 l 100 39 q 133 85 133 49 l 133 588 q 100 633 133 625 l 35 651 l 35 672 l 256 719 l 289 719 l 289 85 q 324 39 289 49 l 383 19 l 383 -1 q 296 -74 324 -39 q 268 -151 268 -108 q 286 -212 268 -190 q 340 -233 304 -233 q 411 -217 369 -233 l 422 -240 z "},"İ":{"ha":489,"x_min":40,"x_max":449,"o":"m 40 19 l 128 49 q 163 94 163 57 l 163 878 q 128 924 163 915 l 40 953 l 40 972 l 449 972 l 449 953 l 360 924 q 326 878 326 915 l 326 94 q 360 49 326 57 l 449 19 l 449 0 l 40 0 l 40 19 m 244 1075 q 169 1103 200 1075 q 139 1175 139 1132 q 169 1244 139 1217 q 244 1272 200 1272 q 319 1244 289 1272 q 349 1175 349 1217 q 319 1103 349 1132 q 244 1075 289 1075 z "},"ı":{"ha":418,"x_min":35,"x_max":383,"o":"m 383 19 l 383 0 l 40 0 l 40 19 l 100 39 q 133 85 133 49 l 133 588 q 100 633 133 625 l 35 651 l 35 672 l 256 719 l 289 719 l 289 85 q 324 39 289 49 l 383 19 z "},"Ĳ":{"ha":1269,"x_min":40,"x_max":1229,"o":"m 40 19 l 128 49 q 163 94 163 57 l 163 878 q 128 924 163 915 l 40 953 l 40 972 l 449 972 l 449 953 l 360 924 q 326 878 326 915 l 326 94 q 360 49 326 57 l 449 19 l 449 0 l 40 0 l 40 19 m 1229 972 l 1229 953 l 1142 924 q 1107 878 1107 915 l 1107 274 q 1028 57 1107 131 q 804 -17 949 -17 q 598 43 678 -17 q 506 226 518 103 l 681 226 q 722 84 683 142 q 815 26 761 26 q 943 229 943 26 l 943 878 q 910 924 943 915 l 821 953 l 821 972 l 1229 972 z "},"ĳ":{"ha":792,"x_min":35,"x_max":701,"o":"m 383 19 l 383 0 l 40 0 l 40 19 l 100 39 q 133 85 133 49 l 133 588 q 100 633 133 625 l 35 651 l 35 672 l 256 719 l 289 719 l 289 85 q 324 39 289 49 l 383 19 m 210 806 q 135 834 165 806 q 104 906 104 863 q 135 975 104 947 q 210 1003 165 1003 q 284 975 254 1003 q 314 906 314 947 q 284 834 314 863 q 210 806 254 806 m 685 721 l 685 42 q 661 -96 685 -39 q 578 -195 638 -153 q 411 -264 518 -237 l 401 -243 q 485 -194 463 -212 q 519 -131 508 -176 q 529 17 529 -86 l 529 589 q 496 635 529 626 l 431 653 l 431 674 l 651 721 l 685 721 m 597 807 q 522 835 553 807 q 492 907 492 864 q 522 976 492 949 q 597 1004 553 1004 q 672 976 642 1004 q 701 907 701 949 q 672 835 701 864 q 597 807 642 807 z "},"Ĵ":{"ha":788,"x_min":24,"x_max":750,"o":"m 747 972 l 747 953 l 660 924 q 625 878 625 915 l 625 274 q 546 57 625 131 q 322 -17 467 -17 q 116 43 196 -17 q 24 226 36 103 l 199 226 q 240 84 201 142 q 333 26 279 26 q 461 229 461 26 l 461 878 q 428 924 461 915 l 339 953 l 339 972 l 747 972 m 694 1054 l 539 1192 l 385 1054 l 335 1054 l 464 1257 l 613 1257 l 750 1054 l 694 1054 z "},"ĵ":{"ha":389,"x_min":-12,"x_max":403,"o":"m 282 721 l 282 42 q 258 -96 282 -39 q 175 -195 235 -153 q 8 -264 115 -237 l -1 -243 q 83 -194 60 -212 q 116 -131 106 -176 q 126 17 126 -86 l 126 589 q 93 635 126 626 l 28 653 l 28 674 l 249 721 l 282 721 m 347 785 l 192 922 l 38 785 l -12 785 l 117 988 l 265 988 l 403 785 l 347 785 z "},"Ķ":{"ha":1040,"x_min":40,"x_max":1019,"o":"m 1019 19 l 1019 0 l 607 0 l 607 21 l 665 39 q 693 68 693 47 q 685 92 693 79 l 425 443 q 375 468 408 468 l 326 468 l 326 94 q 360 49 326 57 l 449 19 l 449 0 l 40 0 l 40 19 l 128 49 q 163 94 163 57 l 163 878 q 128 924 163 915 l 40 953 l 40 972 l 449 972 l 449 953 l 360 924 q 326 878 326 915 l 326 515 l 364 515 q 414 539 393 515 l 726 889 q 736 908 736 899 q 726 925 736 918 q 701 935 717 932 l 626 953 l 626 972 l 947 972 l 947 953 l 847 925 q 801 900 821 919 l 519 592 l 893 79 q 936 44 913 51 l 1019 19 m 560 -75 q 408 -311 560 -204 l 388 -294 q 419 -230 408 -267 q 431 -156 431 -193 q 411 -65 431 -104 l 558 -54 l 560 -75 z "},"ķ":{"ha":824,"x_min":35,"x_max":803,"o":"m 803 21 l 803 0 l 565 0 l 347 349 q 297 376 332 376 l 289 376 l 289 85 q 324 39 289 49 l 383 19 l 383 0 l 40 0 l 40 19 l 100 39 q 133 85 133 49 l 133 851 q 100 899 133 889 l 35 917 l 35 936 l 256 983 l 289 983 l 289 418 l 313 418 q 363 439 343 418 l 550 624 q 567 647 567 640 q 540 663 567 657 l 479 678 l 479 703 l 761 703 l 761 678 l 676 658 q 629 632 647 650 l 447 460 l 690 76 q 733 43 704 53 l 803 21 m 531 -75 q 379 -311 531 -204 l 358 -294 q 390 -230 379 -267 q 401 -156 401 -193 q 382 -65 401 -104 l 529 -54 l 531 -75 z "},"ĸ":{"ha":831,"x_min":35,"x_max":810,"o":"m 810 21 l 810 0 l 572 0 l 354 350 q 304 376 339 376 l 285 376 l 285 86 q 318 39 285 50 l 378 21 l 378 0 l 35 0 l 35 21 l 94 39 q 129 86 129 49 l 129 617 q 94 664 129 651 l 35 682 l 35 703 l 285 703 l 285 418 l 319 418 q 369 439 350 418 l 557 625 q 574 649 574 642 q 549 664 574 658 l 486 681 l 486 703 l 768 703 l 768 681 l 683 660 q 636 633 657 654 l 456 460 l 699 78 q 715 57 706 64 q 740 44 724 50 l 810 21 z "},"Ĺ":{"ha":833,"x_min":40,"x_max":801,"o":"m 801 232 l 758 0 l 40 0 l 40 19 l 128 49 q 163 94 163 57 l 163 878 q 128 924 163 915 l 40 953 l 40 972 l 449 972 l 449 953 l 360 924 q 326 878 326 915 l 326 94 q 340 60 326 72 q 376 47 353 47 l 625 47 q 651 55 640 47 q 672 78 661 63 l 781 232 l 801 232 m 200 1054 l 297 1257 l 435 1257 l 246 1054 l 200 1054 z "},"ĺ":{"ha":418,"x_min":35,"x_max":383,"o":"m 383 19 l 383 0 l 40 0 l 40 19 l 100 39 q 133 85 133 49 l 133 851 q 100 899 133 889 l 35 917 l 35 936 l 256 983 l 289 983 l 289 85 q 324 39 289 49 l 383 19 m 136 1011 l 233 1214 l 371 1214 l 182 1011 l 136 1011 z "},"Ļ":{"ha":833,"x_min":40,"x_max":801,"o":"m 801 232 l 758 0 l 40 0 l 40 19 l 128 49 q 163 94 163 57 l 163 878 q 128 924 163 915 l 40 953 l 40 972 l 449 972 l 449 953 l 360 924 q 326 878 326 915 l 326 94 q 340 60 326 72 q 376 47 353 47 l 625 47 q 651 55 640 47 q 672 78 661 63 l 781 232 l 801 232 m 478 -75 q 326 -311 478 -204 l 306 -294 q 338 -230 326 -267 q 349 -156 349 -193 q 329 -65 349 -104 l 476 -54 l 478 -75 z "},"ļ":{"ha":418,"x_min":35,"x_max":383,"o":"m 383 19 l 383 0 l 40 0 l 40 19 l 100 39 q 133 85 133 49 l 133 851 q 100 899 133 889 l 35 917 l 35 936 l 256 983 l 289 983 l 289 85 q 324 39 289 49 l 383 19 m 275 -75 q 124 -311 275 -204 l 103 -294 q 135 -230 124 -267 q 146 -156 146 -193 q 126 -65 146 -104 l 274 -54 l 275 -75 z "},"Ľ":{"ha":833,"x_min":40,"x_max":801,"o":"m 801 232 l 758 0 l 40 0 l 40 19 l 128 49 q 163 94 163 57 l 163 878 q 128 924 163 915 l 40 953 l 40 972 l 449 972 l 449 953 l 360 924 q 326 878 326 915 l 326 94 q 340 60 326 72 q 376 47 353 47 l 625 47 q 651 55 640 47 q 672 78 661 63 l 781 232 l 801 232 m 514 818 l 542 1072 l 649 1072 l 551 818 l 514 818 z "},"ľ":{"ha":453,"x_min":35,"x_max":481,"o":"m 383 19 l 383 0 l 40 0 l 40 19 l 100 39 q 133 85 133 49 l 133 851 q 100 899 133 889 l 35 917 l 35 936 l 256 983 l 289 983 l 289 85 q 324 39 289 49 l 383 19 m 346 786 l 374 1040 l 481 1040 l 383 786 l 346 786 z "},"Ŀ":{"ha":833,"x_min":40,"x_max":801,"o":"m 801 232 l 758 0 l 40 0 l 40 19 l 128 49 q 163 94 163 57 l 163 878 q 128 924 163 915 l 40 953 l 40 972 l 449 972 l 449 953 l 360 924 q 326 878 326 915 l 326 94 q 340 60 326 72 q 376 47 353 47 l 625 47 q 651 55 640 47 q 672 78 661 63 l 781 232 l 801 232 m 592 396 q 522 424 550 396 q 493 496 493 453 q 522 565 493 536 q 592 594 550 594 q 664 566 636 594 q 692 496 692 538 q 663 424 692 453 q 592 396 633 396 z "},"ŀ":{"ha":625,"x_min":35,"x_max":558,"o":"m 383 19 l 383 0 l 40 0 l 40 19 l 100 39 q 133 85 133 49 l 133 851 q 100 899 133 889 l 35 917 l 35 936 l 256 983 l 289 983 l 289 85 q 324 39 289 49 l 383 19 m 458 396 q 388 424 417 396 q 360 496 360 453 q 388 565 360 536 q 458 594 417 594 q 531 566 503 594 q 558 496 558 538 q 529 424 558 453 q 458 396 500 396 z "},"Ł":{"ha":833,"x_min":-14,"x_max":801,"o":"m 801 232 l 758 0 l 40 0 l 40 19 l 128 49 q 163 94 163 57 l 163 397 l 7 321 l -14 360 l 163 446 l 163 878 q 128 924 163 915 l 40 953 l 40 972 l 449 972 l 449 953 l 360 924 q 326 878 326 915 l 326 526 l 578 650 l 599 611 l 326 478 l 326 94 q 340 60 326 72 q 376 47 353 47 l 625 47 q 651 55 640 47 q 672 78 661 63 l 781 232 l 801 232 z "},"ł":{"ha":418,"x_min":-1,"x_max":417,"o":"m 289 85 q 324 39 289 49 l 383 19 l 383 0 l 40 0 l 40 19 l 100 39 q 133 85 133 49 l 133 394 l 18 338 l -1 378 l 133 444 l 133 851 q 100 899 133 889 l 35 917 l 35 936 l 256 983 l 289 983 l 289 521 l 397 574 l 417 533 l 289 471 l 289 85 z "},"Ń":{"ha":1007,"x_min":40,"x_max":967,"o":"m 967 972 l 967 953 l 885 924 q 850 876 850 911 l 850 0 l 794 0 l 222 797 l 222 103 q 257 54 222 67 l 365 19 l 365 0 l 51 0 l 51 19 l 136 53 q 168 101 168 65 l 168 871 q 71 940 126 919 l 40 953 l 40 972 l 301 972 l 797 269 l 797 876 q 763 922 797 913 l 653 953 l 653 972 l 967 972 m 464 1054 l 561 1257 l 699 1257 l 510 1054 l 464 1054 z "},"ń":{"ha":860,"x_min":35,"x_max":825,"o":"m 825 19 l 825 0 l 482 0 l 482 19 l 542 39 q 575 85 575 50 l 575 536 q 557 602 575 579 q 504 625 539 625 q 413 606 457 625 q 289 542 368 588 l 289 85 q 324 39 289 49 l 383 19 l 383 0 l 40 0 l 40 19 l 100 39 q 133 85 133 49 l 133 588 q 100 633 133 625 l 35 651 l 35 672 l 256 719 l 289 719 l 289 585 q 472 689 400 657 q 600 721 544 721 q 697 676 663 721 q 731 544 731 631 l 731 85 q 765 39 731 49 l 825 19 m 379 786 l 476 989 l 614 989 l 425 786 l 379 786 z "},"Ņ":{"ha":1007,"x_min":40,"x_max":967,"o":"m 967 972 l 967 953 l 885 924 q 850 876 850 911 l 850 0 l 794 0 l 222 797 l 222 103 q 257 54 222 67 l 365 19 l 365 0 l 51 0 l 51 19 l 136 53 q 168 101 168 65 l 168 871 q 71 940 126 919 l 40 953 l 40 972 l 301 972 l 797 269 l 797 876 q 763 922 797 913 l 653 953 l 653 972 l 967 972 m 581 -75 q 429 -311 581 -204 l 408 -294 q 440 -230 429 -267 q 451 -156 451 -193 q 432 -65 451 -104 l 579 -54 l 581 -75 z "},"ņ":{"ha":860,"x_min":35,"x_max":825,"o":"m 825 19 l 825 0 l 482 0 l 482 19 l 542 39 q 575 85 575 50 l 575 536 q 557 602 575 579 q 504 625 539 625 q 413 606 457 625 q 289 542 368 588 l 289 85 q 324 39 289 49 l 383 19 l 383 0 l 40 0 l 40 19 l 100 39 q 133 85 133 49 l 133 588 q 100 633 133 625 l 35 651 l 35 672 l 256 719 l 289 719 l 289 585 q 472 689 400 657 q 600 721 544 721 q 697 676 663 721 q 731 544 731 631 l 731 85 q 765 39 731 49 l 825 19 m 504 -75 q 353 -311 504 -204 l 332 -294 q 364 -230 353 -267 q 375 -156 375 -193 q 356 -65 375 -104 l 503 -54 l 504 -75 z "},"Ň":{"ha":1007,"x_min":40,"x_max":967,"o":"m 967 972 l 967 953 l 885 924 q 850 876 850 911 l 850 0 l 794 0 l 222 797 l 222 103 q 257 54 222 67 l 365 19 l 365 0 l 51 0 l 51 19 l 136 53 q 168 101 168 65 l 168 871 q 71 940 126 919 l 40 953 l 40 972 l 301 972 l 797 269 l 797 876 q 763 922 797 913 l 653 953 l 653 972 l 967 972 m 713 1257 l 575 1054 l 426 1054 l 297 1257 l 347 1257 l 501 1119 l 657 1257 l 713 1257 z "},"ň":{"ha":860,"x_min":35,"x_max":825,"o":"m 825 19 l 825 0 l 482 0 l 482 19 l 542 39 q 575 85 575 50 l 575 536 q 557 602 575 579 q 504 625 539 625 q 413 606 457 625 q 289 542 368 588 l 289 85 q 324 39 289 49 l 383 19 l 383 0 l 40 0 l 40 19 l 100 39 q 133 85 133 49 l 133 588 q 100 633 133 625 l 35 651 l 35 672 l 256 719 l 289 719 l 289 585 q 472 689 400 657 q 600 721 544 721 q 697 676 663 721 q 731 544 731 631 l 731 85 q 765 39 731 49 l 825 19 m 633 989 l 496 786 l 347 786 l 218 989 l 268 989 l 422 851 l 578 989 l 633 989 z "},"ŉ":{"ha":860,"x_min":35,"x_max":825,"o":"m 825 19 l 825 0 l 482 0 l 482 19 l 542 39 q 575 85 575 50 l 575 536 q 557 602 575 579 q 504 625 539 625 q 413 606 457 625 q 289 542 368 588 l 289 85 q 324 39 289 49 l 383 19 l 383 0 l 40 0 l 40 19 l 100 39 q 133 85 133 49 l 133 588 q 100 633 133 625 l 35 651 l 35 672 l 256 719 l 289 719 l 289 585 q 472 689 400 657 q 600 721 544 721 q 697 676 663 721 q 731 544 731 631 l 731 85 q 765 39 731 49 l 825 19 z "},"Ŋ":{"ha":1007,"x_min":40,"x_max":967,"o":"m 967 972 l 967 953 l 885 924 q 850 876 850 911 l 850 -21 q 787 -235 850 -161 q 604 -308 724 -308 q 335 -104 374 -308 l 486 -104 q 531 -212 492 -169 q 635 -256 571 -256 q 743 -209 701 -256 q 785 -79 785 -162 q 770 9 785 -28 q 721 89 756 46 l 736 82 l 222 797 l 222 103 q 257 54 222 67 l 365 19 l 365 0 l 51 0 l 51 19 l 136 53 q 168 101 168 65 l 168 871 q 71 940 126 919 l 40 953 l 40 972 l 301 972 l 797 269 l 797 876 q 763 922 797 913 l 653 953 l 653 972 l 967 972 z "},"ŋ":{"ha":767,"x_min":35,"x_max":731,"o":"m 600 721 q 697 676 663 721 q 731 544 731 631 l 731 86 q 671 -133 731 -42 q 458 -269 611 -224 l 447 -249 q 527 -185 501 -217 q 564 -99 553 -154 q 575 61 575 -43 l 575 536 q 557 602 575 579 q 504 625 539 625 q 413 606 457 625 q 289 542 368 588 l 289 85 q 324 39 289 49 l 383 19 l 383 0 l 40 0 l 40 19 l 100 39 q 133 85 133 49 l 133 589 q 100 635 133 625 l 35 653 l 35 674 l 256 721 l 289 721 l 289 585 q 472 689 400 657 q 600 721 544 721 z "},"Ō":{"ha":1001,"x_min":47,"x_max":953,"o":"m 506 989 q 747 924 646 989 q 901 748 849 858 q 953 507 953 638 q 892 233 953 353 q 728 49 832 114 q 499 -17 625 -17 q 255 49 357 -17 q 100 225 153 115 q 47 465 47 335 q 108 739 47 619 q 273 924 168 858 q 506 989 378 989 m 479 939 q 285 825 354 939 q 217 528 217 711 q 218 469 217 489 q 264 256 226 356 q 367 96 301 157 q 524 35 433 35 q 717 147 649 35 q 785 438 785 258 q 782 503 785 458 q 738 717 774 618 q 635 878 701 817 q 479 939 569 939 m 306 1153 l 694 1153 l 694 1106 l 306 1106 l 306 1153 z "},"ō":{"ha":776,"x_min":43,"x_max":733,"o":"m 382 -17 q 205 28 282 -17 q 85 155 128 74 q 43 342 43 236 q 91 539 43 453 q 219 672 139 625 q 392 719 299 719 q 569 674 492 719 q 690 546 647 628 q 733 357 733 464 q 685 163 733 247 q 557 31 638 78 q 382 -17 476 -17 m 403 29 q 490 65 451 29 q 549 165 528 101 q 571 311 571 229 q 550 475 571 392 q 485 616 529 558 q 374 674 440 674 q 287 638 325 674 q 227 538 249 601 q 206 392 206 474 q 226 228 206 313 q 292 87 247 144 q 403 29 336 29 m 192 883 l 581 883 l 581 836 l 192 836 l 192 883 z "},"Ŏ":{"ha":1001,"x_min":47,"x_max":953,"o":"m 506 989 q 747 924 646 989 q 901 748 849 858 q 953 507 953 638 q 892 233 953 353 q 728 49 832 114 q 499 -17 625 -17 q 255 49 357 -17 q 100 225 153 115 q 47 465 47 335 q 108 739 47 619 q 273 924 168 858 q 506 989 378 989 m 479 939 q 285 825 354 939 q 217 528 217 711 q 218 469 217 489 q 264 256 226 356 q 367 96 301 157 q 524 35 433 35 q 717 147 649 35 q 785 438 785 258 q 782 503 785 458 q 738 717 774 618 q 635 878 701 817 q 479 939 569 939 m 499 1043 q 369 1099 415 1043 q 318 1249 322 1154 l 357 1249 q 403 1163 365 1193 q 499 1132 442 1132 q 597 1163 557 1132 q 643 1249 636 1194 l 681 1249 q 629 1099 676 1154 q 499 1043 582 1043 z "},"ŏ":{"ha":776,"x_min":43,"x_max":733,"o":"m 382 -17 q 205 28 282 -17 q 85 155 128 74 q 43 342 43 236 q 91 539 43 453 q 219 672 139 625 q 392 719 299 719 q 569 674 492 719 q 690 546 647 628 q 733 357 733 464 q 685 163 733 247 q 557 31 638 78 q 382 -17 476 -17 m 403 29 q 490 65 451 29 q 549 165 528 101 q 571 311 571 229 q 550 475 571 392 q 485 616 529 558 q 374 674 440 674 q 287 638 325 674 q 227 538 249 601 q 206 392 206 474 q 226 228 206 313 q 292 87 247 144 q 403 29 336 29 m 385 774 q 255 829 301 774 q 204 979 208 885 l 243 979 q 290 893 251 924 q 385 863 328 863 q 483 894 443 863 q 529 979 522 925 l 567 979 q 515 829 563 885 q 385 774 468 774 z "},"Ő":{"ha":1001,"x_min":47,"x_max":953,"o":"m 506 989 q 747 924 646 989 q 901 748 849 858 q 953 507 953 638 q 892 233 953 353 q 728 49 832 114 q 499 -17 625 -17 q 255 49 357 -17 q 100 225 153 115 q 47 465 47 335 q 108 739 47 619 q 273 924 168 858 q 506 989 378 989 m 479 939 q 285 825 354 939 q 217 528 217 711 q 218 469 217 489 q 264 256 226 356 q 367 96 301 157 q 524 35 433 35 q 717 147 649 35 q 785 438 785 258 q 782 503 785 458 q 738 717 774 618 q 635 878 701 817 q 479 939 569 939 m 364 1054 l 456 1257 l 578 1257 l 410 1054 l 364 1054 m 544 1054 l 638 1257 l 765 1257 l 592 1054 l 544 1054 z "},"ő":{"ha":776,"x_min":43,"x_max":733,"o":"m 382 -17 q 205 28 282 -17 q 85 155 128 74 q 43 342 43 236 q 91 539 43 453 q 219 672 139 625 q 392 719 299 719 q 569 674 492 719 q 690 546 647 628 q 733 357 733 464 q 685 163 733 247 q 557 31 638 78 q 382 -17 476 -17 m 403 29 q 490 65 451 29 q 549 165 528 101 q 571 311 571 229 q 550 475 571 392 q 485 616 529 558 q 374 674 440 674 q 287 638 325 674 q 227 538 249 601 q 206 392 206 474 q 226 228 206 313 q 292 87 247 144 q 403 29 336 29 m 250 785 l 342 988 l 464 988 l 296 785 l 250 785 m 431 785 l 524 988 l 651 988 l 478 785 l 431 785 z "},"Œ":{"ha":1378,"x_min":47,"x_max":1347,"o":"m 1304 0 l 621 0 q 497 -19 565 -19 q 256 46 358 -19 q 101 222 154 111 q 47 468 47 333 q 109 739 47 619 q 279 925 171 858 q 519 992 388 992 q 672 972 597 992 l 1281 972 l 1324 740 l 1303 740 l 1196 894 q 1173 917 1183 910 q 1147 925 1163 925 l 842 925 l 842 556 l 1032 556 q 1078 589 1065 556 l 1122 693 l 1143 693 l 1143 371 l 1122 371 l 1078 475 q 1032 508 1065 508 l 842 508 l 842 94 q 856 60 842 72 q 892 47 869 47 l 1169 47 q 1197 55 1186 47 q 1218 78 1207 63 l 1326 232 l 1347 232 l 1304 0 m 218 525 q 254 292 218 399 q 363 122 290 186 q 539 58 435 58 q 678 90 611 58 l 678 94 l 678 878 q 676 892 678 888 q 508 944 604 944 q 290 829 363 944 q 218 525 218 714 z "},"œ":{"ha":1249,"x_min":43,"x_max":1204,"o":"m 985 101 q 1099 132 1047 101 q 1179 211 1150 163 l 1201 201 q 1093 45 1171 107 q 903 -17 1015 -17 q 756 17 821 -17 q 650 110 692 50 q 531 17 601 50 q 382 -17 461 -17 q 205 28 282 -17 q 85 155 128 74 q 43 342 43 236 q 91 539 43 453 q 219 672 139 625 q 392 719 299 719 q 545 687 476 719 q 660 594 614 654 q 772 688 704 656 q 924 719 840 719 q 1134 635 1064 719 q 1204 403 1204 550 l 732 403 q 768 241 733 310 q 859 137 803 172 q 985 101 915 101 m 900 676 q 783 615 826 676 q 733 444 739 553 l 1044 444 q 1005 617 1039 557 q 900 676 971 676 m 403 29 q 490 65 451 29 q 549 165 528 101 q 571 311 571 229 q 550 475 571 392 q 485 616 529 558 q 374 674 440 674 q 287 638 325 674 q 227 538 249 601 q 206 392 206 474 q 226 228 206 313 q 292 87 247 144 q 403 29 336 29 z "},"Ŕ":{"ha":992,"x_min":40,"x_max":974,"o":"m 858 86 q 903 37 874 53 q 974 19 933 21 l 974 0 l 717 0 l 529 358 q 460 433 504 408 q 367 458 417 458 l 326 458 l 326 94 q 360 49 326 57 l 472 19 l 472 0 l 40 0 l 40 19 l 128 49 q 163 94 163 57 l 163 878 q 128 924 163 915 l 40 953 l 40 972 l 446 972 q 706 913 615 972 q 796 718 796 853 q 722 537 796 601 q 511 461 647 472 q 633 442 579 461 q 714 364 686 424 l 858 86 m 411 506 q 569 563 515 506 q 624 718 624 619 q 571 872 624 818 q 411 925 518 925 l 326 925 l 326 506 l 411 506 m 393 1054 l 490 1257 l 628 1257 l 439 1054 l 393 1054 z "},"ŕ":{"ha":611,"x_min":35,"x_max":569,"o":"m 518 722 q 569 715 538 722 l 569 565 q 471 585 525 585 q 362 551 410 585 q 289 458 314 518 l 289 92 q 324 46 289 56 l 418 19 l 418 0 l 40 0 l 40 19 l 103 43 q 133 90 133 56 l 133 588 q 100 633 133 625 l 35 651 l 35 672 l 256 719 l 289 719 l 289 513 q 376 666 322 615 q 500 721 431 717 l 518 722 m 281 785 l 378 988 l 515 988 l 326 785 l 281 785 z "},"Ŗ":{"ha":992,"x_min":40,"x_max":974,"o":"m 858 86 q 903 37 874 53 q 974 19 933 21 l 974 0 l 717 0 l 529 358 q 460 433 504 408 q 367 458 417 458 l 326 458 l 326 94 q 360 49 326 57 l 472 19 l 472 0 l 40 0 l 40 19 l 128 49 q 163 94 163 57 l 163 878 q 128 924 163 915 l 40 953 l 40 972 l 446 972 q 706 913 615 972 q 796 718 796 853 q 722 537 796 601 q 511 461 647 472 q 633 442 579 461 q 714 364 686 424 l 858 86 m 411 506 q 569 563 515 506 q 624 718 624 619 q 571 872 624 818 q 411 925 518 925 l 326 925 l 326 506 l 411 506 m 551 -75 q 400 -311 551 -204 l 379 -294 q 411 -230 400 -267 q 422 -156 422 -193 q 403 -65 422 -104 l 550 -54 l 551 -75 z "},"ŗ":{"ha":611,"x_min":35,"x_max":569,"o":"m 518 722 q 569 715 538 722 l 569 565 q 471 585 525 585 q 362 551 410 585 q 289 458 314 518 l 289 92 q 324 46 289 56 l 418 19 l 418 0 l 40 0 l 40 19 l 103 43 q 133 90 133 56 l 133 588 q 100 633 133 625 l 35 651 l 35 672 l 256 719 l 289 719 l 289 513 q 376 666 322 615 q 500 721 431 717 l 518 722 m 289 -75 q 138 -311 289 -204 l 117 -294 q 149 -230 138 -267 q 160 -156 160 -193 q 140 -65 160 -104 l 288 -54 l 289 -75 z "},"Ř":{"ha":992,"x_min":40,"x_max":974,"o":"m 858 86 q 903 37 874 53 q 974 19 933 21 l 974 0 l 717 0 l 529 358 q 460 433 504 408 q 367 458 417 458 l 326 458 l 326 94 q 360 49 326 57 l 472 19 l 472 0 l 40 0 l 40 19 l 128 49 q 163 94 163 57 l 163 878 q 128 924 163 915 l 40 953 l 40 972 l 446 972 q 706 913 615 972 q 796 718 796 853 q 722 537 796 601 q 511 461 647 472 q 633 442 579 461 q 714 364 686 424 l 858 86 m 411 506 q 569 563 515 506 q 624 718 624 619 q 571 872 624 818 q 411 925 518 925 l 326 925 l 326 506 l 411 506 m 642 1257 l 504 1054 l 356 1054 l 226 1257 l 276 1257 l 431 1119 l 586 1257 l 642 1257 z "},"ř":{"ha":611,"x_min":35,"x_max":569,"o":"m 518 722 q 569 715 538 722 l 569 565 q 471 585 525 585 q 362 551 410 585 q 289 458 314 518 l 289 92 q 324 46 289 56 l 418 19 l 418 0 l 40 0 l 40 19 l 103 43 q 133 90 133 56 l 133 588 q 100 633 133 625 l 35 651 l 35 672 l 256 719 l 289 719 l 289 513 q 376 666 322 615 q 500 721 431 717 l 518 722 m 529 988 l 392 785 l 243 785 l 114 988 l 164 988 l 318 850 l 474 988 l 529 988 z "},"Ś":{"ha":733,"x_min":47,"x_max":693,"o":"m 69 258 q 136 134 90 186 q 240 56 182 82 q 354 29 297 29 q 491 80 443 29 q 539 208 539 131 q 484 351 539 297 q 318 449 429 406 q 118 567 189 499 q 47 740 47 635 q 85 868 47 811 q 195 957 122 925 q 368 989 268 989 q 629 921 518 989 l 629 746 l 608 746 q 517 893 581 840 q 371 946 454 946 q 238 902 288 946 q 189 794 189 858 q 240 675 189 721 q 404 588 292 629 q 623 458 553 533 q 693 274 693 383 q 649 120 693 186 q 526 19 604 54 q 349 -17 447 -17 q 49 56 175 -17 l 49 258 l 69 258 m 315 1054 l 413 1257 l 550 1257 l 361 1054 l 315 1054 z "},"ś":{"ha":604,"x_min":53,"x_max":569,"o":"m 293 -17 q 166 -1 228 -17 q 61 38 104 14 l 61 204 l 82 204 q 167 74 108 124 q 300 25 226 25 q 406 61 367 25 q 444 147 444 97 q 401 239 444 207 q 258 300 357 271 q 159 341 201 319 q 85 408 117 363 q 53 524 53 453 q 120 666 53 613 q 300 719 188 719 q 413 709 360 719 q 504 681 465 699 l 504 521 l 483 521 q 410 634 460 590 q 296 678 361 678 q 203 649 235 678 q 172 578 172 619 q 213 495 172 526 q 329 440 253 464 q 501 357 433 407 q 569 211 569 307 q 535 97 569 149 q 438 14 501 44 q 293 -17 375 -17 m 243 785 l 340 988 l 478 988 l 289 785 l 243 785 z "},"Ŝ":{"ha":733,"x_min":47,"x_max":693,"o":"m 69 258 q 136 134 90 186 q 240 56 182 82 q 354 29 297 29 q 491 80 443 29 q 539 208 539 131 q 484 351 539 297 q 318 449 429 406 q 118 567 189 499 q 47 740 47 635 q 85 868 47 811 q 195 957 122 925 q 368 989 268 989 q 629 921 518 989 l 629 746 l 608 746 q 517 893 581 840 q 371 946 454 946 q 238 902 288 946 q 189 794 189 858 q 240 675 189 721 q 404 588 292 629 q 623 458 553 533 q 693 274 693 383 q 649 120 693 186 q 526 19 604 54 q 349 -17 447 -17 q 49 56 175 -17 l 49 258 l 69 258 m 507 1054 l 351 1192 l 197 1054 l 147 1054 l 276 1257 l 425 1257 l 563 1054 l 507 1054 z "},"ŝ":{"ha":604,"x_min":53,"x_max":569,"o":"m 293 -17 q 166 -1 228 -17 q 61 38 104 14 l 61 204 l 82 204 q 167 74 108 124 q 300 25 226 25 q 406 61 367 25 q 444 147 444 97 q 401 239 444 207 q 258 300 357 271 q 159 341 201 319 q 85 408 117 363 q 53 524 53 453 q 120 666 53 613 q 300 719 188 719 q 413 709 360 719 q 504 681 465 699 l 504 521 l 483 521 q 410 634 460 590 q 296 678 361 678 q 203 649 235 678 q 172 578 172 619 q 213 495 172 526 q 329 440 253 464 q 501 357 433 407 q 569 211 569 307 q 535 97 569 149 q 438 14 501 44 q 293 -17 375 -17 m 436 785 l 281 922 l 126 785 l 76 785 l 206 988 l 354 988 l 492 785 l 436 785 z "},"Ş":{"ha":733,"x_min":47,"x_max":693,"o":"m 693 274 q 651 125 693 189 q 536 24 610 61 q 368 -17 463 -12 l 336 -75 q 416 -112 381 -85 q 451 -181 451 -140 q 409 -268 451 -237 q 293 -299 367 -299 q 225 -293 257 -299 l 225 -274 q 320 -260 286 -278 q 354 -206 354 -243 q 330 -162 354 -181 q 258 -135 306 -143 l 333 -17 q 49 56 165 -12 l 49 258 l 69 258 q 136 134 90 186 q 240 56 182 82 q 354 29 297 29 q 491 80 443 29 q 539 208 539 131 q 484 351 539 297 q 318 449 429 406 q 118 567 189 499 q 47 740 47 635 q 85 868 47 811 q 195 957 122 925 q 368 989 268 989 q 629 921 518 989 l 629 746 l 608 746 q 517 893 581 840 q 371 946 454 946 q 238 902 288 946 q 189 794 189 858 q 240 675 189 721 q 404 588 292 629 q 623 458 553 533 q 693 274 693 383 z "},"ş":{"ha":604,"x_min":53,"x_max":569,"o":"m 329 440 q 501 357 433 407 q 569 211 569 307 q 538 99 569 150 q 447 17 506 49 q 308 -17 388 -14 l 276 -75 q 356 -112 321 -85 q 392 -181 392 -140 q 349 -268 392 -237 q 232 -299 307 -299 q 164 -293 196 -299 l 165 -274 q 260 -260 226 -278 q 293 -206 293 -243 q 269 -162 293 -181 q 199 -135 244 -143 l 274 -17 q 158 1 214 -14 q 61 38 101 17 l 61 204 l 82 204 q 167 74 108 124 q 300 25 226 25 q 406 61 367 25 q 444 147 444 97 q 401 239 444 207 q 258 300 357 271 q 159 341 201 319 q 85 408 117 363 q 53 524 53 453 q 120 666 53 613 q 300 719 188 719 q 413 709 360 719 q 504 681 465 699 l 504 521 l 483 521 q 410 634 460 590 q 296 678 361 678 q 203 649 235 678 q 172 578 172 619 q 213 495 172 526 q 329 440 253 464 z "},"Š":{"ha":733,"x_min":47,"x_max":693,"o":"m 69 258 q 136 134 90 186 q 240 56 182 82 q 354 29 297 29 q 491 80 443 29 q 539 208 539 131 q 484 351 539 297 q 318 449 429 406 q 118 567 189 499 q 47 740 47 635 q 85 868 47 811 q 195 957 122 925 q 368 989 268 989 q 629 921 518 989 l 629 746 l 608 746 q 517 893 581 840 q 371 946 454 946 q 238 902 288 946 q 189 794 189 858 q 240 675 189 721 q 404 588 292 629 q 623 458 553 533 q 693 274 693 383 q 649 120 693 186 q 526 19 604 54 q 349 -17 447 -17 q 49 56 175 -17 l 49 258 l 69 258 m 563 1257 l 425 1054 l 276 1054 l 147 1257 l 197 1257 l 351 1119 l 507 1257 l 563 1257 z "},"š":{"ha":604,"x_min":53,"x_max":569,"o":"m 293 -17 q 166 -1 228 -17 q 61 38 104 14 l 61 204 l 82 204 q 167 74 108 124 q 300 25 226 25 q 406 61 367 25 q 444 147 444 97 q 401 239 444 207 q 258 300 357 271 q 159 341 201 319 q 85 408 117 363 q 53 524 53 453 q 120 666 53 613 q 300 719 188 719 q 413 709 360 719 q 504 681 465 699 l 504 521 l 483 521 q 410 634 460 590 q 296 678 361 678 q 203 649 235 678 q 172 578 172 619 q 213 495 172 526 q 329 440 253 464 q 501 357 433 407 q 569 211 569 307 q 535 97 569 149 q 438 14 501 44 q 293 -17 375 -17 m 492 988 l 354 785 l 206 785 l 76 988 l 126 988 l 281 850 l 436 988 l 492 988 z "},"Ţ":{"ha":954,"x_min":28,"x_max":926,"o":"m 272 19 l 361 49 q 394 94 394 60 l 394 925 l 204 925 q 178 917 189 925 q 157 894 168 910 l 49 740 l 28 740 l 71 972 l 883 972 l 926 740 l 906 740 l 797 894 q 776 917 786 910 q 749 925 765 925 l 558 925 l 558 94 q 593 49 558 60 l 681 19 l 681 0 l 272 0 l 272 19 m 343 -274 q 437 -260 403 -278 q 471 -206 471 -243 q 447 -162 471 -181 q 376 -135 422 -143 l 460 0 l 496 0 l 454 -75 q 534 -112 499 -85 q 569 -181 569 -140 q 527 -268 569 -237 q 410 -299 485 -299 q 342 -293 374 -299 l 343 -274 z "},"ţ":{"ha":550,"x_min":42,"x_max":508,"o":"m 353 703 l 508 703 l 508 661 l 353 661 l 353 0 l 197 0 l 197 661 l 42 661 l 42 703 l 203 703 l 203 890 l 332 972 l 353 972 l 353 703 m 163 -274 q 256 -260 222 -278 q 290 -206 290 -243 q 266 -162 290 -181 q 196 -135 242 -143 l 279 0 l 315 0 l 274 -75 q 353 -112 318 -85 q 389 -181 389 -140 q 347 -268 389 -237 q 229 -299 304 -299 q 161 -293 193 -299 l 163 -274 z "},"Ť":{"ha":954,"x_min":28,"x_max":926,"o":"m 272 19 l 361 49 q 394 94 394 60 l 394 925 l 204 925 q 178 917 189 925 q 157 894 168 910 l 49 740 l 28 740 l 71 972 l 883 972 l 926 740 l 906 740 l 797 894 q 776 917 786 910 q 749 925 765 925 l 558 925 l 558 94 q 593 49 558 60 l 681 19 l 681 0 l 272 0 l 272 19 m 685 1257 l 547 1054 l 399 1054 l 269 1257 l 319 1257 l 474 1119 l 629 1257 l 685 1257 z "},"ť":{"ha":564,"x_min":42,"x_max":575,"o":"m 353 703 l 508 703 l 508 661 l 353 661 l 353 0 l 197 0 l 197 661 l 42 661 l 42 703 l 203 703 l 203 890 l 332 972 l 353 972 l 353 703 m 440 786 l 468 1040 l 575 1040 l 478 786 l 440 786 z "},"Ŧ":{"ha":954,"x_min":28,"x_max":926,"o":"m 926 740 l 906 740 l 797 894 q 776 917 786 910 q 749 925 765 925 l 558 925 l 558 507 l 701 507 l 701 465 l 558 465 l 558 94 q 593 49 558 60 l 681 19 l 681 0 l 272 0 l 272 19 l 361 49 q 394 94 394 60 l 394 465 l 251 465 l 251 507 l 394 507 l 394 925 l 204 925 q 178 917 189 925 q 157 894 168 910 l 49 740 l 28 740 l 71 972 l 883 972 l 926 740 z "},"ŧ":{"ha":550,"x_min":42,"x_max":508,"o":"m 353 661 l 353 372 l 500 372 l 500 331 l 353 331 l 353 0 l 197 0 l 197 331 l 50 331 l 50 372 l 197 372 l 197 661 l 42 661 l 42 703 l 203 703 l 203 890 l 332 972 l 353 972 l 353 703 l 508 703 l 508 661 l 353 661 z "},"Ũ":{"ha":1044,"x_min":40,"x_max":1006,"o":"m 1006 972 l 1006 953 l 913 924 q 879 876 879 914 l 879 349 q 792 78 879 174 q 544 -18 706 -18 q 260 74 358 -18 q 163 340 163 167 l 163 878 q 128 924 163 915 l 40 953 l 40 972 l 449 972 l 449 953 l 360 924 q 331 876 331 917 l 331 344 q 393 126 331 206 q 578 47 456 47 q 760 124 694 47 q 825 350 825 201 l 825 876 q 796 921 825 910 l 694 953 l 694 972 l 1006 972 m 340 1076 q 382 1194 344 1147 q 471 1242 419 1242 q 588 1203 510 1242 q 642 1179 621 1188 q 681 1171 664 1171 q 719 1189 704 1171 q 744 1247 733 1207 l 774 1240 q 732 1121 768 1168 q 646 1074 696 1074 q 590 1083 617 1074 q 525 1111 564 1093 q 469 1135 489 1128 q 431 1142 450 1142 q 393 1125 407 1142 q 369 1069 379 1108 l 340 1076 z "},"ũ":{"ha":865,"x_min":35,"x_max":829,"o":"m 829 51 l 829 32 l 610 -15 l 575 -15 l 575 119 q 392 15 463 47 q 265 -17 321 -17 q 167 28 201 -17 q 133 158 133 74 l 133 588 q 100 633 133 625 l 35 651 l 35 672 l 256 719 l 289 719 l 289 168 q 308 102 289 126 q 361 78 326 78 q 450 96 408 78 q 575 161 492 114 l 575 588 q 542 633 575 625 l 476 651 l 476 672 l 697 719 l 731 719 l 731 117 q 765 69 731 79 l 829 51 m 207 807 q 249 925 211 878 q 338 972 286 972 q 454 933 376 972 q 509 910 488 918 q 547 901 531 901 q 585 919 571 901 q 611 978 600 938 l 640 971 q 599 851 635 899 q 513 804 563 804 q 457 814 483 804 q 392 842 431 824 q 336 865 356 858 q 297 872 317 872 q 260 856 274 872 q 236 800 246 839 l 207 807 z "},"Ū":{"ha":1044,"x_min":40,"x_max":1006,"o":"m 1006 972 l 1006 953 l 913 924 q 879 876 879 914 l 879 349 q 792 78 879 174 q 544 -18 706 -18 q 260 74 358 -18 q 163 340 163 167 l 163 878 q 128 924 163 915 l 40 953 l 40 972 l 449 972 l 449 953 l 360 924 q 331 876 331 917 l 331 344 q 393 126 331 206 q 578 47 456 47 q 760 124 694 47 q 825 350 825 201 l 825 876 q 796 921 825 910 l 694 953 l 694 972 l 1006 972 m 364 1153 l 753 1153 l 753 1106 l 364 1106 l 364 1153 z "},"ū":{"ha":865,"x_min":35,"x_max":829,"o":"m 829 51 l 829 32 l 610 -15 l 575 -15 l 575 119 q 392 15 463 47 q 265 -17 321 -17 q 167 28 201 -17 q 133 158 133 74 l 133 588 q 100 633 133 625 l 35 651 l 35 672 l 256 719 l 289 719 l 289 168 q 308 102 289 126 q 361 78 326 78 q 450 96 408 78 q 575 161 492 114 l 575 588 q 542 633 575 625 l 476 651 l 476 672 l 697 719 l 731 719 l 731 117 q 765 69 731 79 l 829 51 m 231 883 l 619 883 l 619 836 l 231 836 l 231 883 z "},"Ŭ":{"ha":1044,"x_min":40,"x_max":1006,"o":"m 1006 972 l 1006 953 l 913 924 q 879 876 879 914 l 879 349 q 792 78 879 174 q 544 -18 706 -18 q 260 74 358 -18 q 163 340 163 167 l 163 878 q 128 924 163 915 l 40 953 l 40 972 l 449 972 l 449 953 l 360 924 q 331 876 331 917 l 331 344 q 393 126 331 206 q 578 47 456 47 q 760 124 694 47 q 825 350 825 201 l 825 876 q 796 921 825 910 l 694 953 l 694 972 l 1006 972 m 557 1043 q 427 1099 474 1043 q 376 1249 381 1154 l 415 1249 q 462 1163 424 1193 q 557 1132 500 1132 q 655 1163 615 1132 q 701 1249 694 1194 l 739 1249 q 688 1099 735 1154 q 557 1043 640 1043 z "},"ŭ":{"ha":865,"x_min":35,"x_max":829,"o":"m 829 51 l 829 32 l 610 -15 l 575 -15 l 575 119 q 392 15 463 47 q 265 -17 321 -17 q 167 28 201 -17 q 133 158 133 74 l 133 588 q 100 633 133 625 l 35 651 l 35 672 l 256 719 l 289 719 l 289 168 q 308 102 289 126 q 361 78 326 78 q 450 96 408 78 q 575 161 492 114 l 575 588 q 542 633 575 625 l 476 651 l 476 672 l 697 719 l 731 719 l 731 117 q 765 69 731 79 l 829 51 m 424 774 q 294 829 340 774 q 243 979 247 885 l 282 979 q 328 893 290 924 q 424 863 367 863 q 522 894 482 863 q 568 979 561 925 l 606 979 q 554 829 601 885 q 424 774 507 774 z "},"Ů":{"ha":1044,"x_min":40,"x_max":1006,"o":"m 1006 972 l 1006 953 l 913 924 q 879 876 879 914 l 879 349 q 792 78 879 174 q 544 -18 706 -18 q 260 74 358 -18 q 163 340 163 167 l 163 878 q 128 924 163 915 l 40 953 l 40 972 l 449 972 l 449 953 l 360 924 q 331 876 331 917 l 331 344 q 393 126 331 206 q 578 47 456 47 q 760 124 694 47 q 825 350 825 201 l 825 876 q 796 921 825 910 l 694 953 l 694 972 l 1006 972 m 560 1040 q 456 1079 497 1040 q 414 1176 414 1118 q 456 1273 414 1235 q 560 1311 497 1311 q 663 1273 621 1311 q 704 1176 704 1235 q 663 1079 704 1118 q 560 1040 621 1040 m 560 1082 q 626 1108 600 1082 q 651 1176 651 1135 q 626 1244 651 1218 q 560 1271 600 1271 q 495 1244 521 1271 q 469 1176 469 1218 q 495 1108 469 1135 q 560 1082 521 1082 z "},"ů":{"ha":865,"x_min":35,"x_max":829,"o":"m 829 51 l 829 32 l 610 -15 l 575 -15 l 575 119 q 392 15 463 47 q 265 -17 321 -17 q 167 28 201 -17 q 133 158 133 74 l 133 588 q 100 633 133 625 l 35 651 l 35 672 l 256 719 l 289 719 l 289 168 q 308 102 289 126 q 361 78 326 78 q 450 96 408 78 q 575 161 492 114 l 575 588 q 542 633 575 625 l 476 651 l 476 672 l 697 719 l 731 719 l 731 117 q 765 69 731 79 l 829 51 m 426 771 q 322 810 364 771 q 281 907 281 849 q 322 1003 281 965 q 426 1042 364 1042 q 529 1003 488 1042 q 571 907 571 965 q 529 810 571 849 q 426 771 488 771 m 426 813 q 492 839 467 813 q 518 907 518 865 q 492 975 518 949 q 426 1001 467 1001 q 362 975 388 1001 q 336 907 336 949 q 362 839 336 865 q 426 813 388 813 z "},"Ű":{"ha":1044,"x_min":40,"x_max":1006,"o":"m 1006 972 l 1006 953 l 913 924 q 879 876 879 914 l 879 349 q 792 78 879 174 q 544 -18 706 -18 q 260 74 358 -18 q 163 340 163 167 l 163 878 q 128 924 163 915 l 40 953 l 40 972 l 449 972 l 449 953 l 360 924 q 331 876 331 917 l 331 344 q 393 126 331 206 q 578 47 456 47 q 760 124 694 47 q 825 350 825 201 l 825 876 q 796 921 825 910 l 694 953 l 694 972 l 1006 972 m 422 1054 l 514 1257 l 636 1257 l 468 1054 l 422 1054 m 603 1054 l 696 1257 l 824 1257 l 650 1054 l 603 1054 z "},"ű":{"ha":865,"x_min":35,"x_max":829,"o":"m 829 51 l 829 32 l 610 -15 l 575 -15 l 575 119 q 392 15 463 47 q 265 -17 321 -17 q 167 28 201 -17 q 133 158 133 74 l 133 588 q 100 633 133 625 l 35 651 l 35 672 l 256 719 l 289 719 l 289 168 q 308 102 289 126 q 361 78 326 78 q 450 96 408 78 q 575 161 492 114 l 575 588 q 542 633 575 625 l 476 651 l 476 672 l 697 719 l 731 719 l 731 117 q 765 69 731 79 l 829 51 m 290 785 l 382 988 l 504 988 l 336 785 l 290 785 m 471 785 l 564 988 l 692 988 l 518 785 l 471 785 z "},"Ų":{"ha":1044,"x_min":40,"x_max":1006,"o":"m 1006 972 l 1006 953 l 913 924 q 879 876 879 914 l 879 349 q 825 122 879 211 q 668 0 771 32 q 608 -81 626 -47 q 590 -154 590 -115 q 610 -211 590 -190 q 665 -232 631 -232 q 739 -214 699 -232 l 749 -237 q 676 -278 719 -262 q 596 -293 633 -293 q 494 -267 532 -293 q 457 -194 457 -240 q 490 -105 457 -146 q 593 -15 524 -64 q 544 -18 563 -18 q 260 74 358 -18 q 163 340 163 167 l 163 878 q 128 924 163 915 l 40 953 l 40 972 l 449 972 l 449 953 l 360 924 q 331 876 331 917 l 331 344 q 393 126 331 206 q 578 47 456 47 q 760 124 694 47 q 825 350 825 201 l 825 876 q 796 921 825 910 l 694 953 l 694 972 l 1006 972 z "},"ų":{"ha":865,"x_min":35,"x_max":829,"o":"m 697 4 q 644 -72 660 -39 q 628 -142 628 -104 q 648 -199 628 -178 q 703 -219 668 -219 q 776 -201 736 -219 l 786 -224 q 714 -265 757 -250 q 633 -279 671 -279 q 531 -253 568 -279 q 494 -182 494 -228 q 524 -97 494 -136 q 613 -15 553 -58 l 575 -15 l 575 119 q 392 15 463 47 q 265 -17 321 -17 q 167 28 201 -17 q 133 158 133 74 l 133 588 q 100 633 133 625 l 35 651 l 35 672 l 256 719 l 289 719 l 289 168 q 308 102 289 126 q 361 78 326 78 q 450 96 408 78 q 575 161 492 114 l 575 588 q 542 633 575 625 l 476 651 l 476 672 l 697 719 l 731 719 l 731 117 q 765 69 731 79 l 829 51 l 829 32 l 697 4 z "},"Ŵ":{"ha":1413,"x_min":18,"x_max":1396,"o":"m 1026 197 l 1233 867 q 1236 882 1236 878 q 1206 919 1236 908 l 1100 953 l 1100 972 l 1396 972 l 1396 953 l 1332 925 q 1296 876 1308 914 l 1017 -8 l 928 -8 l 713 640 l 492 -8 l 399 -8 l 107 878 q 72 926 94 917 l 18 953 l 18 972 l 417 972 l 417 953 l 315 919 q 286 883 286 910 q 289 868 286 879 l 497 182 l 725 861 l 814 861 l 1026 197 m 899 1054 l 743 1192 l 589 1054 l 539 1054 l 668 1257 l 817 1257 l 954 1054 l 899 1054 z "},"ŵ":{"ha":1207,"x_min":21,"x_max":1186,"o":"m 875 164 l 1035 604 q 1038 622 1038 618 q 1008 658 1038 647 l 931 682 l 931 703 l 1186 703 l 1186 682 l 1128 657 q 1090 617 1103 646 l 861 -8 l 786 -8 l 600 482 l 417 -8 l 344 -8 l 107 619 q 68 658 97 646 l 21 682 l 21 703 l 360 703 l 360 682 l 301 660 q 274 625 274 647 q 276 607 274 614 l 432 164 l 606 640 l 701 640 l 875 164 m 760 785 l 604 922 l 450 785 l 400 785 l 529 988 l 678 988 l 815 785 l 760 785 z "},"Ŷ":{"ha":908,"x_min":14,"x_max":893,"o":"m 893 953 l 829 924 q 789 886 801 911 l 538 410 l 538 94 q 572 49 538 58 l 661 19 l 661 0 l 251 0 l 251 19 l 339 49 q 374 94 374 58 l 374 390 l 110 889 q 71 926 93 917 l 14 953 l 14 972 l 382 972 l 382 953 l 310 928 q 279 894 279 917 q 285 874 279 883 l 501 453 l 719 872 q 726 893 726 886 q 697 925 726 914 l 631 953 l 631 972 l 893 972 l 893 953 m 636 1054 l 481 1192 l 326 1054 l 276 1054 l 406 1257 l 554 1257 l 692 1054 l 636 1054 z "},"ŷ":{"ha":815,"x_min":21,"x_max":794,"o":"m 794 703 l 794 682 l 732 658 q 693 619 706 649 l 413 -78 q 326 -224 371 -178 q 204 -271 282 -271 q 150 -267 175 -271 l 150 -133 q 239 -144 190 -144 q 322 -125 289 -144 q 375 -60 356 -106 l 390 -21 l 115 619 q 74 660 103 647 l 21 682 l 21 703 l 368 703 l 368 682 l 303 661 q 276 629 276 650 q 282 608 276 625 l 463 171 l 638 607 q 643 628 643 621 q 614 660 643 651 l 532 682 l 532 703 l 794 703 m 575 785 l 419 922 l 265 785 l 215 785 l 344 988 l 493 988 l 631 785 l 575 785 z "},"Ÿ":{"ha":908,"x_min":14,"x_max":893,"o":"m 893 953 l 829 924 q 789 886 801 911 l 538 410 l 538 94 q 572 49 538 58 l 661 19 l 661 0 l 251 0 l 251 19 l 339 49 q 374 94 374 58 l 374 390 l 110 889 q 71 926 93 917 l 14 953 l 14 972 l 382 972 l 382 953 l 310 928 q 279 894 279 917 q 285 874 279 883 l 501 453 l 719 872 q 726 893 726 886 q 697 925 726 914 l 631 953 l 631 972 l 893 972 l 893 953 m 357 1079 q 285 1106 314 1079 q 256 1174 256 1132 q 285 1240 256 1214 q 357 1267 314 1267 q 428 1240 399 1267 q 457 1174 457 1214 q 428 1106 457 1132 q 357 1079 399 1079 m 613 1079 q 542 1106 571 1079 q 513 1174 513 1132 q 542 1240 513 1214 q 613 1267 571 1267 q 683 1240 654 1267 q 713 1174 713 1214 q 683 1106 713 1132 q 613 1079 654 1079 z "},"Ź":{"ha":844,"x_min":39,"x_max":814,"o":"m 814 232 l 771 0 l 39 0 l 39 32 l 610 925 l 232 925 q 183 894 201 925 l 90 740 l 69 740 l 113 972 l 804 972 l 804 940 l 233 47 l 651 47 q 700 78 682 47 l 793 232 l 814 232 m 393 1054 l 490 1257 l 628 1257 l 439 1054 l 393 1054 z "},"ź":{"ha":686,"x_min":32,"x_max":631,"o":"m 631 651 l 210 42 l 450 42 q 510 58 483 42 q 549 104 536 74 l 610 240 l 631 240 l 601 0 l 32 0 l 32 53 l 456 661 l 233 661 q 180 649 201 661 q 143 607 158 638 l 76 485 l 57 485 l 89 703 l 631 703 l 631 651 m 293 785 l 390 988 l 528 988 l 339 785 l 293 785 z "},"Ż":{"ha":844,"x_min":39,"x_max":814,"o":"m 814 232 l 771 0 l 39 0 l 39 32 l 610 925 l 232 925 q 183 894 201 925 l 90 740 l 69 740 l 113 972 l 804 972 l 804 940 l 233 47 l 651 47 q 700 78 682 47 l 793 232 l 814 232 m 433 1075 q 358 1103 389 1075 q 328 1175 328 1132 q 358 1244 328 1217 q 433 1272 389 1272 q 508 1244 478 1272 q 538 1175 538 1217 q 508 1103 538 1132 q 433 1075 478 1075 z "},"ż":{"ha":686,"x_min":32,"x_max":631,"o":"m 631 651 l 210 42 l 450 42 q 510 58 483 42 q 549 104 536 74 l 610 240 l 631 240 l 601 0 l 32 0 l 32 53 l 456 661 l 233 661 q 180 649 201 661 q 143 607 158 638 l 76 485 l 57 485 l 89 703 l 631 703 l 631 651 m 333 806 q 258 834 289 806 q 228 906 228 863 q 258 975 228 947 q 333 1003 289 1003 q 408 975 378 1003 q 438 906 438 947 q 408 834 438 863 q 333 806 378 806 z "},"Ž":{"ha":844,"x_min":39,"x_max":814,"o":"m 814 232 l 771 0 l 39 0 l 39 32 l 610 925 l 232 925 q 183 894 201 925 l 90 740 l 69 740 l 113 972 l 804 972 l 804 940 l 233 47 l 651 47 q 700 78 682 47 l 793 232 l 814 232 m 642 1257 l 504 1054 l 356 1054 l 226 1257 l 276 1257 l 431 1119 l 586 1257 l 642 1257 z "},"ž":{"ha":686,"x_min":32,"x_max":631,"o":"m 631 651 l 210 42 l 450 42 q 510 58 483 42 q 549 104 536 74 l 610 240 l 631 240 l 601 0 l 32 0 l 32 53 l 456 661 l 233 661 q 180 649 201 661 q 143 607 158 638 l 76 485 l 57 485 l 89 703 l 631 703 l 631 651 m 542 988 l 404 785 l 256 785 l 126 988 l 176 988 l 331 850 l 486 988 l 542 988 z "},"ſ":{"ha":546,"x_min":28,"x_max":507,"o":"m 507 914 q 326 951 386 951 q 276 939 290 951 q 263 901 263 926 q 279 822 263 881 q 294 768 288 796 q 300 718 300 740 l 300 88 q 333 40 300 49 l 424 19 l 424 0 l 54 0 l 54 19 l 111 39 q 144 85 144 50 l 144 661 l 28 661 l 28 703 l 144 703 q 242 960 144 864 q 507 1068 339 1057 l 507 914 z "},"ƒ":{"ha":707,"x_min":93,"x_max":664,"o":"m 664 914 q 483 951 542 951 q 433 939 447 951 q 418 903 418 926 q 436 822 418 876 q 451 768 444 796 q 457 718 457 740 l 457 640 l 654 640 l 654 599 l 457 599 l 457 90 q 412 -73 457 3 q 284 -196 367 -149 q 93 -250 201 -243 l 93 -96 q 275 -133 215 -133 q 325 -121 311 -133 q 339 -85 339 -108 q 322 -6 339 -64 q 308 49 314 21 q 301 99 301 76 l 301 599 l 104 599 l 104 640 l 301 640 l 301 726 q 346 890 301 815 q 473 1013 390 965 q 664 1068 556 1061 l 664 914 z "},"Ǻ":{"ha":1036,"x_min":24,"x_max":1013,"o":"m 525 1042 q 421 1080 463 1042 q 379 1176 379 1118 q 409 1261 379 1225 q 486 1308 439 1297 l 581 1503 l 718 1503 l 538 1313 q 632 1270 594 1308 q 669 1176 669 1232 q 628 1080 669 1118 q 525 1042 586 1042 m 525 1271 q 460 1244 486 1271 q 435 1176 435 1218 q 460 1108 435 1135 q 525 1082 486 1082 q 591 1108 565 1082 q 617 1176 617 1135 q 591 1244 617 1218 q 525 1271 565 1271 m 1013 19 l 1013 0 l 607 0 l 607 19 l 710 50 q 739 83 739 58 q 735 103 739 93 l 657 306 l 276 306 l 199 103 q 194 85 194 93 q 225 50 194 58 l 332 19 l 332 0 l 24 0 l 24 19 l 97 49 q 135 90 124 60 l 483 981 l 565 981 l 913 90 q 949 47 922 60 l 1013 19 m 638 353 l 467 796 l 296 353 l 638 353 z "},"ǻ":{"ha":732,"x_min":42,"x_max":704,"o":"m 346 771 q 242 809 283 771 q 201 907 201 847 q 231 991 201 956 q 307 1038 260 1026 l 401 1233 l 539 1233 l 358 1042 q 453 1000 415 1038 q 490 907 490 963 q 449 809 490 847 q 346 771 408 771 m 346 1001 q 281 975 307 1001 q 256 907 256 949 q 281 839 256 865 q 346 813 307 813 q 412 839 386 813 q 438 907 438 865 q 412 975 438 949 q 346 1001 386 1001 m 704 50 l 704 31 l 483 -17 l 450 -17 l 450 115 q 239 -17 372 -17 q 98 36 154 -17 q 42 171 42 89 q 117 328 42 267 q 347 407 193 390 l 450 418 l 450 472 q 418 623 450 568 q 325 678 386 678 q 228 628 261 678 q 199 499 196 578 l 46 499 q 144 663 57 606 q 351 719 232 719 q 542 649 478 719 q 606 451 606 578 l 606 115 q 639 68 606 79 l 704 50 m 319 82 q 450 168 403 82 l 450 379 l 363 364 q 204 200 204 338 q 237 115 204 149 q 319 82 269 82 z "},"Ǽ":{"ha":1399,"x_min":0,"x_max":1368,"o":"m 1368 232 l 1325 0 l 576 0 l 576 19 l 664 49 q 699 94 699 57 l 699 306 l 332 306 l 196 103 q 189 82 189 93 q 221 50 189 60 l 329 19 l 329 0 l 0 0 l 0 19 l 79 51 q 128 90 110 63 l 676 919 l 664 924 l 576 953 l 576 972 l 1301 972 l 1344 740 l 1324 740 l 1215 894 q 1194 917 1204 910 q 1168 925 1183 925 l 863 925 l 863 556 l 1051 556 q 1099 589 1086 556 l 1142 693 l 1163 693 l 1163 371 l 1142 371 l 1099 475 q 1051 508 1086 508 l 863 508 l 863 94 q 876 60 863 72 q 913 47 889 47 l 1190 47 q 1217 54 1207 47 q 1239 78 1226 61 l 1347 232 l 1368 232 m 699 353 l 699 853 l 364 353 l 699 353 m 757 1054 l 854 1257 l 992 1257 l 803 1054 l 757 1054 z "},"ǽ":{"ha":1122,"x_min":42,"x_max":1076,"o":"m 857 101 q 969 132 918 101 q 1051 211 1021 163 l 1072 201 q 965 45 1043 107 q 775 -17 888 -17 q 602 32 675 -17 q 490 163 529 81 q 385 36 456 89 q 233 -17 314 -17 q 96 36 150 -17 q 42 171 42 89 q 117 328 42 267 q 347 407 193 390 l 451 418 l 451 472 q 419 623 451 568 q 325 678 386 678 q 228 628 261 678 q 199 499 196 578 l 46 499 q 144 663 57 606 q 351 719 232 719 q 557 625 496 719 q 663 695 601 671 q 794 719 724 719 q 1004 635 933 719 q 1076 403 1075 550 l 604 403 q 640 240 606 308 q 731 137 674 172 q 857 101 788 101 m 772 676 q 655 615 699 676 q 606 444 611 553 l 917 444 q 877 617 911 557 q 772 676 843 676 m 317 82 q 407 112 365 82 q 478 193 449 142 q 454 333 454 260 q 456 363 454 353 l 451 363 l 451 378 l 363 364 q 204 200 204 339 q 237 115 204 149 q 317 82 269 82 m 529 785 l 626 988 l 764 988 l 575 785 l 529 785 z "},"Ș":{"ha":733,"x_min":47,"x_max":693,"o":"m 69 258 q 136 134 90 186 q 240 56 182 82 q 354 29 297 29 q 491 80 443 29 q 539 208 539 131 q 484 351 539 297 q 318 449 429 406 q 118 567 189 499 q 47 740 47 635 q 85 868 47 811 q 195 957 122 925 q 368 989 268 989 q 629 921 518 989 l 629 746 l 608 746 q 517 893 581 840 q 371 946 454 946 q 238 902 288 946 q 189 794 189 858 q 240 675 189 721 q 404 588 292 629 q 623 458 553 533 q 693 274 693 383 q 649 120 693 186 q 526 19 604 54 q 349 -17 447 -17 q 49 56 175 -17 l 49 258 l 69 258 m 429 -75 q 278 -311 429 -204 l 257 -294 q 289 -230 278 -267 q 300 -156 300 -193 q 281 -65 300 -104 l 428 -54 l 429 -75 z "},"ș":{"ha":604,"x_min":53,"x_max":569,"o":"m 293 -17 q 166 -1 228 -17 q 61 38 104 14 l 61 204 l 82 204 q 167 74 108 124 q 300 25 226 25 q 406 61 367 25 q 444 147 444 97 q 401 239 444 207 q 258 300 357 271 q 159 341 201 319 q 85 408 117 363 q 53 524 53 453 q 120 666 53 613 q 300 719 188 719 q 413 709 360 719 q 504 681 465 699 l 504 521 l 483 521 q 410 634 460 590 q 296 678 361 678 q 203 649 235 678 q 172 578 172 619 q 213 495 172 526 q 329 440 253 464 q 501 357 433 407 q 569 211 569 307 q 535 97 569 149 q 438 14 501 44 q 293 -17 375 -17 m 363 -75 q 211 -311 363 -204 l 190 -294 q 222 -230 211 -267 q 233 -156 233 -193 q 214 -65 233 -104 l 361 -54 l 363 -75 z "},"Ț":{"ha":954,"x_min":28,"x_max":926,"o":"m 272 19 l 361 49 q 394 94 394 60 l 394 925 l 204 925 q 178 917 189 925 q 157 894 168 910 l 49 740 l 28 740 l 71 972 l 883 972 l 926 740 l 906 740 l 797 894 q 776 917 786 910 q 749 925 765 925 l 558 925 l 558 94 q 593 49 558 60 l 681 19 l 681 0 l 272 0 l 272 19 m 540 -75 q 389 -311 540 -204 l 368 -294 q 400 -230 389 -267 q 411 -156 411 -193 q 392 -65 411 -104 l 539 -54 l 540 -75 z "},"ț":{"ha":550,"x_min":42,"x_max":508,"o":"m 353 703 l 508 703 l 508 661 l 353 661 l 353 0 l 197 0 l 197 661 l 42 661 l 42 703 l 203 703 l 203 890 l 332 972 l 353 972 l 353 703 m 351 -75 q 200 -311 351 -204 l 179 -294 q 211 -230 200 -267 q 222 -156 222 -193 q 203 -65 222 -104 l 350 -54 l 351 -75 z "},"ȷ":{"ha":389,"x_min":-1,"x_max":282,"o":"m 282 721 l 282 42 q 258 -96 282 -39 q 175 -195 235 -153 q 8 -264 115 -237 l -1 -243 q 83 -194 60 -212 q 116 -131 106 -176 q 126 17 126 -86 l 126 589 q 93 635 126 626 l 28 653 l 28 674 l 249 721 l 282 721 z "},"ˆ":{"ha":553,"x_min":69,"x_max":485,"o":"m 429 785 l 274 922 l 119 785 l 69 785 l 199 988 l 347 988 l 485 785 l 429 785 z "},"ˇ":{"ha":553,"x_min":69,"x_max":485,"o":"m 485 988 l 347 785 l 199 785 l 69 988 l 119 988 l 274 850 l 429 988 l 485 988 z "},"˘":{"ha":501,"x_min":69,"x_max":432,"o":"m 250 774 q 120 829 167 774 q 69 979 74 885 l 108 979 q 155 893 117 924 q 250 863 193 863 q 348 894 308 863 q 394 979 388 925 l 432 979 q 381 829 428 885 q 250 774 333 774 z "},"˙":{"ha":331,"x_min":61,"x_max":271,"o":"m 167 806 q 92 834 122 806 q 61 906 61 863 q 92 975 61 947 q 167 1003 122 1003 q 241 975 211 1003 q 271 906 271 947 q 241 834 271 863 q 167 806 211 806 z "},"˚":{"ha":429,"x_min":69,"x_max":360,"o":"m 215 771 q 111 810 153 771 q 69 907 69 849 q 111 1003 69 965 q 215 1042 153 1042 q 318 1003 276 1042 q 360 907 360 965 q 318 810 360 849 q 215 771 276 771 m 215 813 q 281 839 256 813 q 307 907 307 865 q 281 975 307 949 q 215 1001 256 1001 q 151 975 176 1001 q 125 907 125 949 q 151 839 125 865 q 215 813 176 813 z "},"˛":{"ha":431,"x_min":69,"x_max":361,"o":"m 208 -294 q 107 -268 144 -294 q 69 -196 69 -242 q 99 -111 69 -150 q 175 -38 128 -72 q 314 53 222 -4 l 322 43 q 228 -68 254 -28 q 203 -157 203 -108 q 223 -213 203 -193 q 278 -233 243 -233 q 351 -215 311 -233 l 361 -239 q 289 -279 332 -264 q 208 -294 246 -294 z "},"˜":{"ha":572,"x_min":68,"x_max":501,"o":"m 68 807 q 110 925 72 878 q 199 972 147 972 q 315 933 238 972 q 370 910 349 918 q 408 901 392 901 q 447 919 432 901 q 472 978 461 938 l 501 971 q 460 851 496 899 q 374 804 424 804 q 318 814 344 804 q 253 842 292 824 q 197 865 217 858 q 158 872 178 872 q 121 856 135 872 q 97 800 107 839 l 68 807 z "},"˝":{"ha":540,"x_min":69,"x_max":471,"o":"m 69 785 l 161 988 l 283 988 l 115 785 l 69 785 m 250 785 l 343 988 l 471 988 l 297 785 l 250 785 z "},"̀":{"ha":0,"x_min":-321,"x_max":-86,"o":"m -321 988 l -185 988 l -86 785 l -132 785 l -321 988 z "},"́":{"ha":0,"x_min":-322,"x_max":-87,"o":"m -322 785 l -225 988 l -87 988 l -276 785 l -322 785 z "},"̂":{"ha":0,"x_min":-490,"x_max":-75,"o":"m -131 785 l -286 922 l -440 785 l -490 785 l -361 988 l -212 988 l -75 785 l -131 785 z "},"̃":{"ha":0,"x_min":-515,"x_max":-82,"o":"m -515 807 q -474 925 -511 878 q -385 972 -436 972 q -268 933 -346 972 q -213 910 -235 918 q -175 901 -192 901 q -137 919 -151 901 q -111 978 -122 938 l -82 971 q -124 851 -87 899 q -210 804 -160 804 q -265 814 -239 804 q -331 842 -292 824 q -386 865 -367 858 q -425 872 -406 872 q -462 856 -449 872 q -486 800 -476 839 l -515 807 z "},"̄":{"ha":0,"x_min":-458,"x_max":-69,"o":"m -458 883 l -69 883 l -69 836 l -458 836 l -458 883 z "},"̆":{"ha":0,"x_min":-432,"x_max":-69,"o":"m -251 774 q -381 829 -335 774 q -432 979 -428 885 l -393 979 q -347 893 -385 924 q -251 863 -308 863 q -153 894 -193 863 q -107 979 -114 925 l -69 979 q -121 829 -74 885 q -251 774 -168 774 z "},"̇":{"ha":0,"x_min":-283,"x_max":-74,"o":"m -178 806 q -253 834 -222 806 q -283 906 -283 863 q -253 975 -283 947 q -178 1003 -222 1003 q -103 975 -133 1003 q -74 906 -74 947 q -103 834 -74 863 q -178 806 -133 806 z "},"̈":{"ha":0,"x_min":-533,"x_max":-76,"o":"m -432 810 q -504 836 -475 810 q -533 904 -533 863 q -504 971 -533 944 q -432 997 -475 997 q -361 971 -390 997 q -332 904 -332 944 q -361 836 -332 863 q -432 810 -390 810 m -176 810 q -247 836 -218 810 q -276 904 -276 863 q -247 971 -276 944 q -176 997 -218 997 q -106 971 -135 997 q -76 904 -76 944 q -106 836 -76 863 q -176 810 -135 810 z "},"̊":{"ha":0,"x_min":-360,"x_max":-69,"o":"m -214 771 q -318 810 -276 771 q -360 907 -360 849 q -318 1003 -360 965 q -214 1042 -276 1042 q -111 1003 -153 1042 q -69 907 -69 965 q -111 810 -69 849 q -214 771 -153 771 m -214 813 q -148 839 -174 813 q -122 907 -122 865 q -148 975 -122 949 q -214 1001 -174 1001 q -278 975 -253 1001 q -304 907 -304 949 q -278 839 -304 865 q -214 813 -253 813 z "},"̋":{"ha":0,"x_min":-483,"x_max":-82,"o":"m -483 785 l -392 988 l -269 988 l -437 785 l -483 785 m -303 785 l -210 988 l -82 988 l -256 785 l -303 785 z "},"̌":{"ha":0,"x_min":-490,"x_max":-75,"o":"m -75 988 l -212 785 l -361 785 l -490 988 l -440 988 l -286 850 l -131 988 l -75 988 z "},"̒":{"ha":0,"x_min":-239,"x_max":-65,"o":"m -239 1047 q -86 1283 -239 1176 l -65 1267 q -97 1202 -86 1239 q -108 1128 -108 1165 q -89 1038 -108 1072 l -237 1026 l -239 1047 z "},"̦":{"ha":0,"x_min":-261,"x_max":-89,"o":"m -89 -75 q -240 -311 -89 -204 l -261 -294 q -229 -230 -240 -267 q -218 -156 -218 -193 q -237 -65 -218 -104 l -90 -54 l -89 -75 z "},"̧":{"ha":0,"x_min":-297,"x_max":-69,"o":"m -296 -274 q -202 -260 -236 -278 q -168 -206 -168 -243 q -192 -162 -168 -181 q -262 -135 -217 -143 l -179 0 l -143 0 l -185 -75 q -105 -112 -140 -85 q -69 -181 -69 -140 q -112 -268 -69 -237 q -229 -299 -154 -299 q -297 -293 -265 -299 l -296 -274 z "},"̨":{"ha":0,"x_min":-361,"x_max":-69,"o":"m -222 -294 q -324 -268 -286 -294 q -361 -196 -361 -242 q -332 -111 -361 -150 q -256 -38 -303 -72 q -117 53 -208 -4 l -108 43 q -202 -68 -176 -28 q -228 -157 -228 -108 q -208 -213 -228 -193 q -153 -233 -187 -233 q -79 -215 -119 -233 l -69 -239 q -142 -279 -99 -264 q -222 -294 -185 -294 z "},"π":{"ha":900,"x_min":24,"x_max":888,"o":"m 803 53 q 888 68 849 53 l 888 38 q 805 -2 850 13 q 715 -17 760 -17 q 571 154 571 -17 l 571 661 l 344 661 l 344 0 l 189 0 l 189 661 l 24 661 l 47 703 l 851 703 l 851 661 l 726 661 l 726 136 q 748 73 726 93 q 803 53 769 53 z "},"Ẁ":{"ha":1413,"x_min":18,"x_max":1396,"o":"m 1026 197 l 1233 867 q 1236 882 1236 878 q 1206 919 1236 908 l 1100 953 l 1100 972 l 1396 972 l 1396 953 l 1332 925 q 1296 876 1308 914 l 1017 -8 l 928 -8 l 713 640 l 492 -8 l 399 -8 l 107 878 q 72 926 94 917 l 18 953 l 18 972 l 417 972 l 417 953 l 315 919 q 286 883 286 910 q 289 868 286 879 l 497 182 l 725 861 l 814 861 l 1026 197 m 558 1257 l 694 1257 l 793 1054 l 747 1054 l 558 1257 z "},"ẁ":{"ha":1207,"x_min":21,"x_max":1186,"o":"m 875 164 l 1035 604 q 1038 622 1038 618 q 1008 658 1038 647 l 931 682 l 931 703 l 1186 703 l 1186 682 l 1128 657 q 1090 617 1103 646 l 861 -8 l 786 -8 l 600 482 l 417 -8 l 344 -8 l 107 619 q 68 658 97 646 l 21 682 l 21 703 l 360 703 l 360 682 l 301 660 q 274 625 274 647 q 276 607 274 614 l 432 164 l 606 640 l 701 640 l 875 164 m 424 988 l 560 988 l 658 785 l 613 785 l 424 988 z "},"Ẃ":{"ha":1413,"x_min":18,"x_max":1396,"o":"m 1026 197 l 1233 867 q 1236 882 1236 878 q 1206 919 1236 908 l 1100 953 l 1100 972 l 1396 972 l 1396 953 l 1332 925 q 1296 876 1308 914 l 1017 -8 l 928 -8 l 713 640 l 492 -8 l 399 -8 l 107 878 q 72 926 94 917 l 18 953 l 18 972 l 417 972 l 417 953 l 315 919 q 286 883 286 910 q 289 868 286 879 l 497 182 l 725 861 l 814 861 l 1026 197 m 707 1054 l 804 1257 l 942 1257 l 753 1054 l 707 1054 z "},"ẃ":{"ha":1207,"x_min":21,"x_max":1186,"o":"m 875 164 l 1035 604 q 1038 622 1038 618 q 1008 658 1038 647 l 931 682 l 931 703 l 1186 703 l 1186 682 l 1128 657 q 1090 617 1103 646 l 861 -8 l 786 -8 l 600 482 l 417 -8 l 344 -8 l 107 619 q 68 658 97 646 l 21 682 l 21 703 l 360 703 l 360 682 l 301 660 q 274 625 274 647 q 276 607 274 614 l 432 164 l 606 640 l 701 640 l 875 164 m 571 785 l 668 988 l 806 988 l 617 785 l 571 785 z "},"Ẅ":{"ha":1413,"x_min":18,"x_max":1396,"o":"m 1026 197 l 1233 867 q 1236 882 1236 878 q 1206 919 1236 908 l 1100 953 l 1100 972 l 1396 972 l 1396 953 l 1332 925 q 1296 876 1308 914 l 1017 -8 l 928 -8 l 713 640 l 492 -8 l 399 -8 l 107 878 q 72 926 94 917 l 18 953 l 18 972 l 417 972 l 417 953 l 315 919 q 286 883 286 910 q 289 868 286 879 l 497 182 l 725 861 l 814 861 l 1026 197 m 621 1079 q 549 1106 578 1079 q 519 1174 519 1132 q 549 1240 519 1214 q 621 1267 578 1267 q 692 1240 663 1267 q 721 1174 721 1214 q 692 1106 721 1132 q 621 1079 663 1079 m 876 1079 q 806 1106 835 1079 q 776 1174 776 1132 q 806 1240 776 1214 q 876 1267 835 1267 q 947 1240 918 1267 q 976 1174 976 1214 q 947 1106 976 1132 q 876 1079 918 1079 z "},"ẅ":{"ha":1207,"x_min":21,"x_max":1186,"o":"m 875 164 l 1035 604 q 1038 622 1038 618 q 1008 658 1038 647 l 931 682 l 931 703 l 1186 703 l 1186 682 l 1128 657 q 1090 617 1103 646 l 861 -8 l 786 -8 l 600 482 l 417 -8 l 344 -8 l 107 619 q 68 658 97 646 l 21 682 l 21 703 l 360 703 l 360 682 l 301 660 q 274 625 274 647 q 276 607 274 614 l 432 164 l 606 640 l 701 640 l 875 164 m 485 810 q 413 836 442 810 q 383 904 383 863 q 413 971 383 944 q 485 997 442 997 q 556 971 526 997 q 585 904 585 944 q 556 836 585 863 q 485 810 526 810 m 740 810 q 669 836 699 810 q 640 904 640 863 q 669 971 640 944 q 740 997 699 997 q 811 971 782 997 q 840 904 840 944 q 811 836 840 863 q 740 810 782 810 z "},"ẞ":{"ha":978,"x_min":40,"x_max":939,"o":"m 572 596 q 769 556 686 600 q 896 440 853 513 q 939 285 939 367 q 901 127 939 196 q 798 19 864 58 q 649 -19 732 -19 q 400 119 494 -19 l 421 138 q 510 68 468 90 q 610 46 553 46 q 738 98 688 46 q 789 232 789 150 q 753 357 789 299 q 643 451 718 415 q 457 483 568 486 l 449 538 l 767 925 l 318 925 l 318 0 l 40 0 l 40 19 l 121 49 q 156 94 156 60 l 156 878 q 121 924 156 913 l 40 953 l 40 972 l 839 972 l 839 915 l 572 596 z "},"Ỳ":{"ha":908,"x_min":14,"x_max":893,"o":"m 893 953 l 829 924 q 789 886 801 911 l 538 410 l 538 94 q 572 49 538 58 l 661 19 l 661 0 l 251 0 l 251 19 l 339 49 q 374 94 374 58 l 374 390 l 110 889 q 71 926 93 917 l 14 953 l 14 972 l 382 972 l 382 953 l 310 928 q 279 894 279 917 q 285 874 279 883 l 501 453 l 719 872 q 726 893 726 886 q 697 925 726 914 l 631 953 l 631 972 l 893 972 l 893 953 m 296 1257 l 432 1257 l 531 1054 l 485 1054 l 296 1257 z "},"ỳ":{"ha":815,"x_min":21,"x_max":794,"o":"m 794 703 l 794 682 l 732 658 q 693 619 706 649 l 413 -78 q 326 -224 371 -178 q 204 -271 282 -271 q 150 -267 175 -271 l 150 -133 q 239 -144 190 -144 q 322 -125 289 -144 q 375 -60 356 -106 l 390 -21 l 115 619 q 74 660 103 647 l 21 682 l 21 703 l 368 703 l 368 682 l 303 661 q 276 629 276 650 q 282 608 276 625 l 463 171 l 638 607 q 643 628 643 621 q 614 660 643 651 l 532 682 l 532 703 l 794 703 m 236 988 l 372 988 l 471 785 l 425 785 l 236 988 z "},"–":{"ha":550,"x_min":39,"x_max":511,"o":"m 511 374 l 39 374 l 39 421 l 511 421 l 511 374 z "},"—":{"ha":1051,"x_min":39,"x_max":1011,"o":"m 1011 374 l 39 374 l 39 421 l 1011 421 l 1011 374 z "},"‘":{"ha":374,"x_min":81,"x_max":293,"o":"m 192 694 q 111 730 142 694 q 81 822 81 765 q 140 991 81 924 q 293 1068 200 1058 l 293 1038 q 201 985 240 1028 q 160 886 161 943 q 192 890 176 890 q 264 863 235 890 q 293 796 293 835 q 264 724 293 753 q 192 694 235 694 z "},"’":{"ha":367,"x_min":74,"x_max":286,"o":"m 175 1086 q 256 1051 225 1086 q 286 958 286 1015 q 226 790 286 857 q 74 713 167 722 l 74 743 q 166 795 126 753 q 207 894 206 838 q 175 890 190 890 q 103 918 132 890 q 74 985 74 946 q 103 1057 74 1028 q 175 1086 132 1086 z "},"‚":{"ha":374,"x_min":81,"x_max":293,"o":"m 182 179 q 263 144 232 179 q 293 51 293 108 q 233 -117 293 -50 q 81 -194 174 -185 l 81 -164 q 173 -112 133 -154 q 214 -12 213 -69 q 182 -17 197 -17 q 110 11 139 -17 q 81 78 81 39 q 110 150 81 121 q 182 179 139 179 z "},"“":{"ha":650,"x_min":81,"x_max":569,"o":"m 192 694 q 111 730 142 694 q 81 822 81 765 q 140 991 81 924 q 293 1068 200 1058 l 293 1038 q 201 985 240 1028 q 160 886 161 943 q 192 890 176 890 q 264 863 235 890 q 293 796 293 835 q 264 724 293 753 q 192 694 235 694 m 468 694 q 388 730 418 694 q 357 822 357 765 q 417 991 357 924 q 569 1068 476 1058 l 569 1038 q 477 985 517 1028 q 436 886 438 943 q 468 890 453 890 q 540 863 511 890 q 569 796 569 835 q 540 724 569 753 q 468 694 511 694 z "},"”":{"ha":643,"x_min":74,"x_max":563,"o":"z "},"„":{"ha":650,"x_min":81,"x_max":569,"o":"m 458 179 q 539 144 508 179 q 569 51 569 108 q 510 -117 569 -50 q 357 -194 450 -185 l 357 -164 q 449 -112 410 -154 q 490 -12 489 -69 q 458 -17 474 -17 q 386 11 415 -17 q 357 78 357 39 q 386 150 357 121 q 458 179 415 179 m 182 179 q 263 144 232 179 q 293 51 293 108 q 233 -117 293 -50 q 81 -194 174 -185 l 81 -164 q 173 -112 133 -154 q 214 -12 213 -69 q 182 -17 197 -17 q 110 11 139 -17 q 81 78 81 39 q 110 150 81 121 q 182 179 139 179 z "},"†":{"ha":561,"x_min":81,"x_max":482,"o":"m 257 718 l 81 718 l 81 760 l 257 760 l 257 954 l 306 954 l 306 760 l 482 760 l 482 718 l 306 718 l 306 317 l 257 317 l 257 718 z "},"‡":{"ha":561,"x_min":81,"x_max":482,"o":"m 306 461 l 482 461 l 482 419 l 306 419 l 306 18 l 257 18 l 257 419 l 81 419 l 81 461 l 257 461 l 257 718 l 81 718 l 81 760 l 257 760 l 257 954 l 306 954 l 306 760 l 482 760 l 482 718 l 306 718 l 306 461 z "},"•":{"ha":651,"x_min":47,"x_max":603,"o":"m 328 100 q 186 138 250 100 q 85 238 122 175 q 47 378 47 301 q 85 517 47 453 q 187 618 122 581 q 328 656 251 656 q 466 618 403 656 q 566 517 529 581 q 603 378 603 453 q 566 238 603 301 q 466 138 529 175 q 328 100 403 100 z "},"…":{"ha":911,"x_min":81,"x_max":831,"o":"m 731 -19 q 660 9 689 -19 q 632 81 632 38 q 660 150 632 121 q 731 179 689 179 q 803 151 775 179 q 831 81 831 122 q 801 9 831 38 q 731 -19 772 -19 m 454 -19 q 384 9 413 -19 q 356 81 356 38 q 384 150 356 121 q 454 179 413 179 q 526 151 499 179 q 554 81 554 122 q 525 9 554 38 q 454 -19 496 -19 m 179 -19 q 109 9 138 -19 q 81 81 81 38 q 109 150 81 121 q 179 179 138 179 q 251 151 224 179 q 279 81 279 122 q 250 9 279 38 q 179 -19 221 -19 z "},"‰":{"ha":1350,"x_min":39,"x_max":1311,"o":"m 189 0 l 725 972 l 779 972 l 243 0 l 189 0 m 228 508 q 131 537 175 508 q 63 615 88 565 q 39 728 39 665 q 63 840 39 789 q 131 919 88 890 q 228 947 175 947 q 324 919 281 947 q 391 840 367 890 q 415 728 415 789 q 391 615 415 665 q 324 537 367 565 q 228 508 281 508 m 233 551 q 288 594 267 551 q 308 710 308 636 q 284 853 308 800 q 221 906 260 906 q 166 863 188 906 q 144 746 144 819 q 170 603 144 656 q 233 551 196 551 m 710 -19 q 613 9 657 -19 q 545 88 569 38 q 521 201 521 139 q 545 313 521 263 q 613 391 569 363 q 710 419 657 419 q 806 391 763 419 q 873 313 849 363 q 897 201 897 263 q 873 88 897 139 q 806 9 849 38 q 710 -19 763 -19 m 1124 -19 q 1027 9 1071 -19 q 959 88 983 38 q 935 201 935 139 q 959 313 935 263 q 1027 391 983 363 q 1124 419 1071 419 q 1219 391 1176 419 q 1287 313 1263 363 q 1311 201 1311 263 q 1287 88 1311 139 q 1219 9 1263 38 q 1124 -19 1176 -19 m 717 24 q 771 67 750 24 q 792 189 792 111 q 767 326 792 275 q 704 378 742 378 q 648 335 669 378 q 626 219 626 293 q 652 76 626 129 q 717 24 678 24 m 1131 24 q 1185 67 1165 24 q 1206 188 1206 110 q 1181 326 1206 275 q 1118 378 1156 378 q 1062 335 1083 378 q 1040 219 1040 293 q 1066 76 1040 129 q 1131 24 1092 24 z "},"‹":{"ha":450,"x_min":51,"x_max":399,"o":"m 51 388 l 376 644 l 399 624 l 182 361 l 399 94 l 376 75 l 51 332 l 51 388 z "},"›":{"ha":450,"x_min":51,"x_max":399,"o":"m 74 75 l 51 94 l 269 361 l 51 624 l 74 644 l 399 388 l 399 332 l 74 75 z "},"⁄":{"ha":239,"x_min":-176,"x_max":414,"o":"m -176 0 l 360 972 l 414 972 l -122 0 l -176 0 z "},"⁺":{"ha":408,"x_min":22,"x_max":388,"o":"m 388 438 l 224 438 l 224 274 l 185 274 l 185 438 l 22 438 l 22 476 l 185 476 l 185 639 l 224 639 l 224 476 l 388 476 l 388 438 z "},"⁻":{"ha":408,"x_min":22,"x_max":386,"o":"m 22 835 l 386 835 l 386 797 l 22 797 l 22 835 z "},"⁼":{"ha":408,"x_min":22,"x_max":388,"o":"m 22 901 l 388 901 l 388 863 l 22 863 l 22 901 m 22 767 l 388 767 l 388 726 l 22 726 l 22 767 z "},"⁽":{"ha":321,"x_min":33,"x_max":303,"o":"m 303 788 q 194 638 236 739 q 153 415 153 536 q 194 194 153 294 q 303 44 236 93 l 282 22 q 102 178 171 72 q 33 415 33 285 q 103 653 33 546 q 282 810 172 761 l 303 788 z "},"⁾":{"ha":314,"x_min":17,"x_max":288,"o":"m 39 810 q 218 653 149 761 q 288 415 288 546 q 219 178 288 285 q 39 22 150 72 l 17 44 q 126 194 83 93 q 168 415 168 296 q 126 638 168 536 q 17 788 83 739 l 39 810 z "},"₊":{"ha":408,"x_min":22,"x_max":388,"o":"m 388 54 l 224 54 l 224 -110 l 185 -110 l 185 54 l 22 54 l 22 93 l 185 93 l 185 256 l 224 256 l 224 93 l 388 93 l 388 54 z "},"₋":{"ha":408,"x_min":22,"x_max":386,"o":"m 22 90 l 386 90 l 386 53 l 22 53 l 22 90 z "},"₌":{"ha":408,"x_min":22,"x_max":388,"o":"m 22 163 l 388 163 l 388 124 l 22 124 l 22 163 m 22 28 l 388 28 l 388 -12 l 22 -12 l 22 28 z "},"₍":{"ha":321,"x_min":33,"x_max":303,"o":"m 303 404 q 194 254 236 356 q 153 32 153 153 q 194 -190 153 -89 q 303 -339 236 -290 l 282 -361 q 102 -205 171 -311 q 33 32 33 -99 q 103 270 33 163 q 282 426 172 378 l 303 404 z "},"₎":{"ha":314,"x_min":17,"x_max":288,"o":"m 39 426 q 218 270 149 378 q 288 32 288 163 q 219 -205 288 -99 q 39 -361 150 -311 l 17 -339 q 126 -189 83 -290 q 168 32 168 -87 q 126 254 168 153 q 17 404 83 356 l 39 426 z "},"€":{"ha":815,"x_min":-96,"x_max":874,"o":"m 874 249 q 744 63 832 142 q 503 -17 657 -17 q 288 35 383 -17 q 131 177 192 86 q 51 385 71 268 l -96 385 l -96 432 l 46 432 q 44 476 44 447 q 50 558 44 524 l -96 558 l -96 606 l 58 606 q 153 805 83 718 q 324 940 222 892 q 544 989 425 989 q 712 971 629 989 q 846 922 794 953 l 846 729 l 825 729 q 717 884 797 825 q 531 943 636 943 q 317 854 396 943 q 222 606 238 765 l 617 606 l 617 558 l 219 558 q 218 517 218 544 q 224 432 218 485 l 617 432 l 617 385 l 232 385 q 343 163 260 244 q 544 82 426 82 q 735 132 657 82 q 853 260 814 182 l 874 249 z "},"№":{"ha":1471,"x_min":40,"x_max":1431,"o":"m 1203 528 q 1044 590 1104 528 q 983 753 983 651 q 1014 875 983 821 q 1097 958 1044 929 q 1208 988 1149 988 q 1369 925 1308 988 q 1431 760 1431 863 q 1399 639 1431 692 q 1316 557 1368 586 q 1203 528 1264 528 m 653 972 l 967 972 l 967 953 l 885 924 q 850 876 850 911 l 850 0 l 794 0 l 222 797 l 222 103 q 257 54 222 67 l 365 19 l 365 0 l 51 0 l 51 19 l 136 53 q 168 101 168 65 l 168 871 q 71 940 126 919 l 40 953 l 40 972 l 301 972 l 797 269 l 797 876 q 763 922 797 913 l 653 953 l 653 972 m 1199 954 q 1113 906 1146 954 q 1079 783 1079 858 q 1094 683 1079 735 q 1139 597 1108 632 q 1215 561 1169 561 q 1302 609 1269 561 q 1335 733 1335 657 q 1321 833 1335 782 q 1276 919 1307 885 q 1199 954 1246 954 m 989 435 l 1422 435 l 1422 390 l 989 390 l 989 435 z "},"℗":{"ha":1063,"x_min":47,"x_max":1014,"o":"m 529 -19 q 288 46 399 -19 q 113 222 178 111 q 47 464 47 333 q 113 706 47 594 q 288 882 178 817 q 529 947 399 947 q 772 882 660 947 q 949 706 883 817 q 1014 464 1014 594 q 949 222 1014 333 q 772 46 883 111 q 529 -19 660 -19 m 531 26 q 749 85 649 26 q 909 244 850 144 q 968 463 968 344 q 909 683 968 582 q 749 842 850 783 q 531 901 649 901 q 313 842 413 901 q 153 682 213 783 q 94 463 94 581 q 153 244 94 344 q 313 85 213 144 q 531 26 413 26 m 425 439 l 425 204 l 376 204 l 376 742 l 560 742 q 683 700 636 742 q 729 590 729 658 q 683 481 729 522 q 560 439 636 439 l 425 439 m 425 485 l 561 485 q 648 513 617 485 q 679 590 679 542 q 648 667 679 639 q 561 696 617 696 l 425 696 l 425 485 z "},"™":{"ha":1092,"x_min":81,"x_max":1013,"o":"m 174 586 l 207 597 q 225 621 225 604 l 225 947 l 164 947 q 143 933 151 947 l 96 865 l 81 865 l 99 972 l 444 972 l 463 865 l 447 865 l 400 933 q 378 947 389 947 l 317 947 l 317 621 q 333 597 317 601 l 369 586 l 369 572 l 174 572 l 174 586 m 431 586 l 464 597 q 483 619 479 603 l 533 917 l 533 921 q 519 940 533 935 l 478 957 l 478 972 l 617 972 l 719 721 l 829 972 l 971 972 l 971 957 l 935 942 q 921 918 918 936 l 963 619 q 967 605 964 610 q 979 597 971 600 l 1013 586 l 1013 572 l 818 572 l 818 586 l 850 596 q 867 621 869 603 l 832 892 l 710 618 l 672 618 l 561 885 l 521 621 l 521 615 q 536 596 521 600 l 575 586 l 575 572 l 431 572 l 431 586 z "},"Ω":{"ha":1024,"x_min":32,"x_max":986,"o":"m 958 197 l 979 197 l 931 0 l 601 0 l 601 197 q 753 309 696 221 q 810 525 810 397 q 807 575 810 542 q 759 761 799 676 q 651 896 719 846 q 492 946 582 946 q 283 849 358 946 q 208 596 208 751 q 211 542 208 578 q 276 331 221 425 q 419 197 332 236 l 419 0 l 99 0 l 51 190 l 72 190 l 133 115 q 152 96 144 101 q 174 90 160 90 l 372 90 l 372 139 q 122 289 213 182 q 32 538 32 396 q 96 774 32 671 q 271 933 160 876 q 517 989 382 989 q 763 935 656 989 q 928 786 869 881 q 986 574 986 692 q 942 383 986 471 q 820 235 897 296 q 649 149 743 175 l 649 97 l 857 97 q 878 103 871 97 q 897 122 886 108 l 958 197 z "},"℮":{"ha":1044,"x_min":39,"x_max":1004,"o":"m 535 -19 q 283 44 396 -19 q 104 219 169 108 q 39 464 39 329 q 103 709 39 599 q 277 883 167 819 q 522 947 388 947 q 768 883 657 947 q 942 706 879 818 q 1004 460 1006 594 l 214 460 l 214 168 q 351 68 268 108 q 535 28 433 28 q 729 74 642 28 q 881 213 817 121 l 919 185 q 753 34 854 88 q 535 -19 653 -19 m 831 763 q 700 859 782 818 q 522 900 618 900 q 342 858 425 900 q 214 761 260 817 l 214 517 l 831 517 l 831 763 z "},"⅛":{"ha":1108,"x_min":21,"x_max":1086,"o":"m 226 0 l 763 972 l 817 972 l 281 0 l 226 0 z "},"⅜":{"ha":1154,"x_min":11,"x_max":1132,"o":"m 274 0 l 810 972 l 864 972 l 328 0 l 274 0 z "},"⅝":{"ha":1163,"x_min":22,"x_max":1140,"o":"m 282 0 l 818 972 l 872 972 l 336 0 l 282 0 z "},"⅞":{"ha":1101,"x_min":22,"x_max":1079,"o":"m 219 0 l 756 972 l 810 972 l 274 0 l 219 0 z "},"←":{"ha":990,"x_min":71,"x_max":939,"o":"m 939 329 l 147 329 l 469 17 l 438 -15 l 71 351 l 439 718 l 471 685 l 147 374 l 939 374 l 939 329 z "},"↑":{"ha":890,"x_min":93,"x_max":826,"o":"m 793 469 l 482 793 l 482 1 l 438 1 l 438 793 l 126 468 l 93 500 l 460 868 l 826 501 l 793 469 z "},"→":{"ha":990,"x_min":51,"x_max":919,"o":"m 919 351 l 553 -15 l 521 17 l 843 329 l 51 329 l 51 374 l 843 374 l 519 685 l 551 718 l 919 351 z "},"↓":{"ha":890,"x_min":64,"x_max":797,"o":"m 797 392 l 431 24 l 64 390 l 97 422 l 408 99 l 408 890 l 453 890 l 453 99 l 764 424 l 797 392 z "},"↔":{"ha":1453,"x_min":71,"x_max":1376,"o":"m 1376 351 l 1010 -15 l 978 17 l 1300 329 l 147 329 l 469 17 l 438 -15 l 71 351 l 439 718 l 471 685 l 147 374 l 1300 374 l 976 685 l 1008 718 l 1376 351 z "},"↕":{"ha":890,"x_min":64,"x_max":797,"o":"m 764 183 l 797 151 l 431 -217 l 64 150 l 97 182 l 408 -140 l 408 1013 l 97 689 l 64 722 l 431 1089 l 797 721 l 764 688 l 453 1013 l 453 -140 l 764 183 z "},"↖":{"ha":819,"x_min":99,"x_max":728,"o":"m 697 24 l 136 585 l 146 135 l 99 135 l 99 653 l 618 653 l 618 606 l 168 615 l 728 56 l 697 24 z "},"↗":{"ha":815,"x_min":86,"x_max":715,"o":"m 715 653 l 715 135 l 669 135 l 679 585 l 118 24 l 86 56 l 646 615 l 197 606 l 196 653 l 715 653 z "},"↘":{"ha":819,"x_min":72,"x_max":701,"o":"m 183 56 l 632 47 l 72 607 l 104 639 l 663 79 l 653 528 l 700 529 l 701 10 l 183 10 l 183 56 z "},"↙":{"ha":819,"x_min":118,"x_max":747,"o":"m 188 47 l 636 56 l 636 10 l 118 10 l 119 529 l 167 528 l 157 81 l 715 639 l 747 607 l 188 47 z "},"∂":{"ha":825,"x_min":39,"x_max":786,"o":"m 397 989 q 605 932 517 989 q 740 773 693 875 q 786 539 786 671 q 737 270 786 397 q 594 65 688 143 q 375 -14 500 -14 q 206 26 283 -14 q 84 137 129 65 q 39 303 39 208 q 81 465 39 390 q 197 583 124 539 q 360 626 269 626 q 617 447 531 626 q 632 618 632 539 q 564 863 632 778 q 365 947 496 947 q 201 913 272 947 l 201 944 q 397 989 290 989 m 340 36 q 505 143 435 36 q 608 407 575 250 q 411 522 540 522 q 287 481 338 522 q 212 374 236 439 q 188 238 188 308 q 231 93 188 150 q 340 36 274 36 z "},"∆":{"ha":833,"x_min":-19,"x_max":853,"o":"m 853 0 l -19 0 l 399 972 l 435 972 l 853 0 m 667 47 l 363 768 l 53 47 l 667 47 z "},"∏":{"ha":1031,"x_min":39,"x_max":992,"o":"m 911 924 q 876 878 876 914 l 876 94 q 911 49 876 58 l 992 19 l 992 0 l 597 0 l 597 19 l 678 49 q 713 94 713 58 l 713 925 l 318 925 l 318 94 q 353 49 318 58 l 433 19 l 433 0 l 39 0 l 39 19 l 119 49 q 154 94 154 58 l 154 878 q 119 924 154 914 l 39 953 l 39 972 l 992 972 l 992 953 l 911 924 z "},"∑":{"ha":836,"x_min":33,"x_max":821,"o":"m 821 204 l 779 0 l 33 0 l 33 29 l 424 444 l 33 943 l 33 972 l 757 972 l 797 768 l 776 768 l 672 894 q 649 918 658 911 q 625 925 640 925 l 261 925 l 576 521 l 142 68 l 654 68 q 678 74 669 68 q 703 97 688 81 l 800 204 l 821 204 z "},"−":{"ha":738,"x_min":69,"x_max":668,"o":"m 69 482 l 668 482 l 668 438 l 69 438 l 69 482 z "},"√":{"ha":764,"x_min":44,"x_max":744,"o":"m 188 483 l 44 483 l 44 526 l 221 526 l 383 40 l 699 972 l 744 972 l 419 0 l 350 0 l 188 483 z "},"∞":{"ha":1211,"x_min":72,"x_max":1133,"o":"m 881 699 q 1063 629 993 699 q 1133 449 1133 560 q 1064 269 1133 338 q 881 200 994 200 q 732 249 801 200 q 619 378 663 297 q 491 244 572 289 q 324 199 410 199 q 142 268 211 199 q 72 449 72 338 q 142 628 72 560 q 324 697 211 697 q 472 651 403 697 q 583 521 542 604 q 713 655 633 611 q 881 699 793 699 m 315 253 q 445 309 390 253 q 558 481 500 365 q 460 603 524 558 q 324 647 397 647 q 178 594 232 647 q 124 449 124 540 q 178 310 124 367 q 315 253 232 253 m 881 251 q 1027 304 972 251 q 1082 449 1082 357 q 1028 589 1082 535 q 888 643 974 643 q 758 587 815 643 q 642 422 700 531 q 746 297 682 343 q 881 251 810 251 z "},"∫":{"ha":685,"x_min":65,"x_max":619,"o":"m 610 913 q 561 917 583 917 q 506 901 526 917 q 472 842 485 885 q 450 715 458 799 l 378 35 q 306 -146 367 -78 q 126 -214 246 -214 q 65 -210 99 -214 l 75 -178 q 110 -181 100 -181 q 174 -163 150 -181 q 210 -105 197 -146 q 232 11 224 -64 l 304 692 q 373 881 317 810 q 557 953 429 953 q 619 949 586 953 l 610 913 z "},"≈":{"ha":792,"x_min":69,"x_max":722,"o":"m 69 603 q 250 689 156 689 q 323 676 289 689 q 401 639 357 664 q 475 603 444 615 q 540 592 506 592 q 722 693 629 592 l 722 636 q 540 544 636 544 q 467 558 501 544 q 389 596 432 571 q 316 631 347 619 q 250 643 285 643 q 71 546 163 643 l 69 603 m 69 349 q 250 436 157 436 q 323 424 289 436 q 401 386 357 411 q 474 350 443 363 q 540 338 504 338 q 722 440 628 338 l 722 383 q 540 292 636 292 q 470 304 503 292 q 392 342 438 317 q 317 378 349 365 q 250 390 286 390 q 164 366 210 390 q 71 293 118 342 l 69 349 z "},"≠":{"ha":738,"x_min":69,"x_max":668,"o":"m 429 554 l 361 374 l 668 374 l 668 329 l 343 329 l 268 129 l 218 129 l 293 329 l 69 329 l 69 374 l 311 374 l 379 554 l 69 554 l 69 599 l 396 599 l 471 797 l 521 797 l 446 599 l 668 599 l 668 554 l 429 554 z "},"≤":{"ha":738,"x_min":69,"x_max":668,"o":"m 633 231 l 614 186 l 82 458 l 82 510 l 614 782 l 633 738 l 129 485 l 633 231 m 69 0 l 69 44 l 668 44 l 668 0 l 69 0 z "},"≥":{"ha":738,"x_min":69,"x_max":668,"o":"m 85 739 l 104 782 l 636 510 l 636 458 l 104 186 l 85 231 l 590 485 l 85 739 m 69 44 l 668 44 l 668 0 l 69 0 l 69 44 z "},"◊":{"ha":667,"x_min":40,"x_max":628,"o":"m 40 464 l 306 928 l 363 928 l 628 464 l 363 0 l 306 0 l 40 464 m 576 464 l 335 890 l 92 464 l 335 38 l 576 464 z "},"○":{"ha":1063,"x_min":47,"x_max":1014,"o":"m 529 -19 q 288 46 399 -19 q 113 222 178 111 q 47 464 47 333 q 113 706 47 594 q 288 882 178 817 q 529 947 399 947 q 772 882 660 947 q 949 706 883 817 q 1014 464 1014 594 q 949 222 1014 333 q 772 46 883 111 q 529 -19 660 -19 m 531 26 q 749 85 649 26 q 909 244 850 144 q 968 463 968 344 q 909 683 968 582 q 749 842 850 783 q 531 901 649 901 q 313 842 413 901 q 153 682 213 783 q 94 463 94 581 q 153 244 94 344 q 313 85 213 144 q 531 26 413 26 z "},"●":{"ha":1063,"x_min":47,"x_max":1014,"o":"m 529 -19 q 772 46 660 -19 q 949 222 883 111 q 1014 464 1014 333 q 949 706 1014 594 q 772 882 883 817 q 529 947 660 947 q 288 882 399 947 q 113 706 178 817 q 47 464 47 594 q 113 222 47 333 q 288 46 178 111 q 529 -19 399 -19 z "},"":{"ha":1047,"x_min":40,"x_max":1008,"o":"m 832 332 q 919 308 878 332 q 984 242 960 283 q 1008 154 1008 201 q 984 68 1008 108 q 919 4 960 28 q 832 -19 879 -19 q 744 4 785 -19 q 678 68 703 28 q 654 154 654 108 l 654 289 l 393 289 l 393 154 q 369 68 393 108 q 303 4 344 28 q 214 -19 261 -19 q 91 31 142 -19 q 40 154 40 82 q 64 242 40 201 q 128 308 88 283 q 214 332 168 332 l 349 332 l 349 594 l 214 594 q 128 619 168 594 q 64 684 88 643 q 40 772 40 725 q 64 860 40 819 q 128 924 88 900 q 214 947 168 947 q 303 923 261 947 q 369 858 344 899 q 393 772 393 818 l 393 638 l 654 638 l 654 772 q 678 858 654 818 q 744 923 703 899 q 832 947 785 947 q 919 924 879 947 q 984 860 960 900 q 1008 772 1008 819 q 984 684 1008 725 q 919 619 960 643 q 832 594 878 594 l 699 594 l 699 332 l 832 332 m 85 772 q 123 677 85 717 q 214 638 161 638 l 349 638 l 349 772 q 309 865 349 826 q 214 904 269 904 q 122 865 160 904 q 85 772 85 826 m 832 904 q 738 865 776 904 q 699 772 699 826 l 699 638 l 832 638 q 925 677 886 638 q 964 772 964 717 q 925 865 964 826 q 832 904 886 904 m 654 332 l 654 594 l 393 594 l 393 332 l 654 332 m 214 24 q 309 62 269 24 q 349 154 349 100 l 349 289 l 214 289 q 123 249 161 289 q 85 154 85 210 q 122 62 85 100 q 214 24 160 24 m 832 24 q 925 62 886 24 q 964 154 964 100 q 925 249 964 210 q 832 289 886 289 l 699 289 l 699 154 q 738 62 699 100 q 832 24 776 24 z "}}}
